%TF.GenerationSoftware,KiCad,Pcbnew,(6.0.1-0)*%
%TF.CreationDate,2022-02-09T14:27:11+08:00*%
%TF.ProjectId,usb_can,7573625f-6361-46e2-9e6b-696361645f70,rev?*%
%TF.SameCoordinates,Original*%
%TF.FileFunction,Copper,L4,Bot*%
%TF.FilePolarity,Positive*%
%FSLAX46Y46*%
G04 Gerber Fmt 4.6, Leading zero omitted, Abs format (unit mm)*
G04 Created by KiCad (PCBNEW (6.0.1-0)) date 2022-02-09 14:27:11*
%MOMM*%
%LPD*%
G01*
G04 APERTURE LIST*
%TA.AperFunction,ComponentPad*%
%ADD10O,1.100000X1.800000*%
%TD*%
%TA.AperFunction,SMDPad,CuDef*%
%ADD11R,1.000000X2.500000*%
%TD*%
%TA.AperFunction,SMDPad,CuDef*%
%ADD12C,1.500000*%
%TD*%
%TA.AperFunction,SMDPad,CuDef*%
%ADD13R,2.500000X1.000000*%
%TD*%
%TA.AperFunction,ViaPad*%
%ADD14C,0.450000*%
%TD*%
%TA.AperFunction,Conductor*%
%ADD15C,0.146812*%
%TD*%
G04 APERTURE END LIST*
D10*
%TO.P,J1,6,Shield*%
%TO.N,GND*%
X103900000Y-124400000D03*
X111100000Y-127870000D03*
X103900000Y-127870000D03*
X111100000Y-124400000D03*
%TD*%
D11*
%TO.P,J4,1,Pin_1*%
%TO.N,CAN1_L*%
X111430000Y-92525000D03*
%TO.P,J4,2,Pin_2*%
%TO.N,CAN1_H*%
X108890000Y-92525000D03*
%TO.P,J4,3,Pin_3*%
%TO.N,CAN2_L*%
X106350000Y-92525000D03*
%TO.P,J4,4,Pin_4*%
%TO.N,CAN2_H*%
X103810000Y-92525000D03*
%TO.P,J4,5,Pin_5*%
%TO.N,GND*%
X101270000Y-92525000D03*
%TO.P,J4,6,Pin_6*%
%TO.N,I2C1_SDA*%
X98730000Y-92525000D03*
%TO.P,J4,7,Pin_7*%
%TO.N,I2C1_SCL*%
X96190000Y-92525000D03*
%TO.P,J4,8,Pin_8*%
%TO.N,GND*%
X93650000Y-92525000D03*
%TO.P,J4,9,Pin_9*%
%TO.N,USART1_RX*%
X91110000Y-92525000D03*
%TO.P,J4,10,Pin_10*%
%TO.N,USART1_TX*%
X88570000Y-92525000D03*
%TD*%
D12*
%TO.P,TP1,1,1*%
%TO.N,Net-(TP1-Pad1)*%
X114000000Y-105500000D03*
%TD*%
%TO.P,TP2,1,1*%
%TO.N,Net-(TP2-Pad1)*%
X114000000Y-111000000D03*
%TD*%
D11*
%TO.P,J3,1,Pin_1*%
%TO.N,USART2_TX*%
X91110000Y-117475000D03*
%TO.P,J3,2,Pin_2*%
%TO.N,USART2_RX*%
X93650000Y-117475000D03*
%TO.P,J3,3,Pin_3*%
%TO.N,GND*%
X96190000Y-117475000D03*
%TO.P,J3,4,Pin_4*%
%TO.N,SPI1_SCK*%
X98730000Y-117475000D03*
%TO.P,J3,5,Pin_5*%
%TO.N,SPI1_MISO*%
X101270000Y-117475000D03*
%TO.P,J3,6,Pin_6*%
%TO.N,SPI1_MOSI*%
X103810000Y-117475000D03*
%TO.P,J3,7,Pin_7*%
%TO.N,SPI1_NSS*%
X106350000Y-117475000D03*
%TO.P,J3,8,Pin_8*%
%TO.N,GND*%
X108890000Y-117475000D03*
%TD*%
D13*
%TO.P,J5,1,Pin_1*%
%TO.N,+3V3*%
X96525000Y-99920000D03*
%TO.P,J5,2,Pin_2*%
%TO.N,SWDIO*%
X96525000Y-102460000D03*
%TO.P,J5,3,Pin_3*%
%TO.N,SWCLK*%
X96525000Y-105000000D03*
%TO.P,J5,4,Pin_4*%
%TO.N,NRST*%
X96525000Y-107540000D03*
%TO.P,J5,5,Pin_5*%
%TO.N,GND*%
X96525000Y-110080000D03*
%TD*%
D14*
%TO.N,Net-(J1-Pad4)*%
X108150000Y-126700000D03*
X98150000Y-123912500D03*
%TO.N,GND*%
X102500000Y-110000000D03*
X105000000Y-105000000D03*
X88000000Y-109000000D03*
X91900000Y-114400000D03*
X102500000Y-105000000D03*
X105000000Y-98500000D03*
X97500000Y-98500000D03*
X102500000Y-102500000D03*
X107500000Y-98500000D03*
X91100000Y-110800000D03*
X107500000Y-105000000D03*
X92500000Y-105000000D03*
X86000000Y-107500000D03*
X102500000Y-107500000D03*
X100000000Y-98500000D03*
X94000000Y-105000000D03*
X94000000Y-110000000D03*
X105000000Y-107500000D03*
X100000000Y-105000000D03*
X100000000Y-102500000D03*
X107500000Y-107500000D03*
X108900000Y-97000000D03*
X92500000Y-107500000D03*
X88000000Y-106000000D03*
X108900000Y-103600000D03*
X107500000Y-102500000D03*
X92500000Y-110000000D03*
X99200000Y-95700000D03*
X100000000Y-107500000D03*
X97500000Y-116900000D03*
X105000000Y-110000000D03*
X103600000Y-96000000D03*
X90900000Y-104000000D03*
X94000000Y-107500000D03*
X109000000Y-109100000D03*
X107500000Y-110000000D03*
X105000000Y-102500000D03*
X102500000Y-98500000D03*
X100000000Y-110000000D03*
X102525000Y-116900000D03*
X92500000Y-102500000D03*
%TO.N,+3V3*%
X101635000Y-88975000D03*
X111635000Y-88975000D03*
X102520000Y-117640000D03*
X86000000Y-90500000D03*
X87500000Y-121000000D03*
X89500000Y-121000000D03*
X94800000Y-86800000D03*
X87500000Y-123000000D03*
X87362500Y-113300000D03*
X97410000Y-117640000D03*
X87500000Y-81300000D03*
X89500000Y-122000000D03*
X87362500Y-111700000D03*
X97887500Y-92500000D03*
X87500000Y-125000000D03*
X102900000Y-92450000D03*
X88500000Y-125000000D03*
X90500000Y-121000000D03*
X90500000Y-122000000D03*
X90500000Y-124000000D03*
X87362500Y-98750000D03*
X89500000Y-125000000D03*
X89500000Y-123000000D03*
X94000000Y-86100000D03*
X112637500Y-102750000D03*
X87362500Y-103300000D03*
X104700000Y-87387500D03*
X104100000Y-86100000D03*
X90500000Y-123000000D03*
X92250000Y-117637500D03*
X89500000Y-124000000D03*
X114700000Y-87387500D03*
X112637500Y-108250000D03*
X87500000Y-124000000D03*
X90500000Y-94300000D03*
X88500000Y-121000000D03*
X98360000Y-101030000D03*
X88500000Y-123000000D03*
X110250000Y-116387500D03*
X111100000Y-94862500D03*
X87500000Y-122000000D03*
X88500000Y-124000000D03*
X88500000Y-122000000D03*
%TO.N,SWDIO*%
X90950000Y-82960000D03*
X94800000Y-97750000D03*
%TO.N,SWCLK*%
X90950000Y-84230000D03*
X94140000Y-97660000D03*
%TO.N,SPI1_NSS*%
X107225000Y-96250000D03*
%TO.N,USART1_TX*%
X91400000Y-96900000D03*
%TO.N,SPI1_SCK*%
X98300000Y-113500000D03*
%TO.N,USART1_RX*%
X92325000Y-97150000D03*
%TO.N,SPI1_MOSI*%
X103300000Y-114300000D03*
%TO.N,SPI1_MISO*%
X100900000Y-113900000D03*
%TO.N,CAN1_H*%
X110365000Y-84025000D03*
%TO.N,CAN2_H*%
X100365000Y-84025000D03*
%TO.N,CAN1_L*%
X111635000Y-84025000D03*
%TO.N,CAN2_L*%
X101635000Y-84025000D03*
%TO.N,USB_OTG_HS_VBUS*%
X96400000Y-122087500D03*
X96200000Y-112200000D03*
%TO.N,USB_OTG_HS_ID*%
X100600000Y-112700000D03*
X98150000Y-122087500D03*
%TO.N,NRST*%
X91700000Y-108250000D03*
X86000000Y-94700000D03*
%TO.N,USART2_TX*%
X90600000Y-113800000D03*
%TO.N,USART2_RX*%
X92700000Y-113900000D03*
%TO.N,I2C1_SDA*%
X95912500Y-88000000D03*
X98100000Y-96100000D03*
%TO.N,I2C1_SCL*%
X95900000Y-89900000D03*
X95800000Y-96600000D03*
%TO.N,/VBUS*%
X95200000Y-127000000D03*
X96400000Y-123912500D03*
%TO.N,Net-(TP1-Pad1)*%
X108400000Y-105500000D03*
%TO.N,Net-(TP2-Pad1)*%
X108400000Y-111000000D03*
%TD*%
D15*
%TO.N,Net-(J1-Pad4)*%
X105100000Y-126700000D02*
X104500000Y-126100000D01*
X104500000Y-126100000D02*
X100337500Y-126100000D01*
X108150000Y-126700000D02*
X105100000Y-126700000D01*
X100337500Y-126100000D02*
X98150000Y-123912500D01*
%TO.N,+3V3*%
X96525000Y-99920000D02*
X97250000Y-99920000D01*
X97250000Y-99920000D02*
X98360000Y-101030000D01*
%TO.N,SWDIO*%
X92550000Y-83725000D02*
X91785000Y-82960000D01*
X92550000Y-95500000D02*
X92550000Y-83725000D01*
X94800000Y-97750000D02*
X94680000Y-97870000D01*
X95790000Y-102460000D02*
X96525000Y-102460000D01*
X91785000Y-82960000D02*
X90950000Y-82960000D01*
X94680000Y-97870000D02*
X94680000Y-101350000D01*
X94680000Y-101350000D02*
X95790000Y-102460000D01*
X94800000Y-97750000D02*
X92550000Y-95500000D01*
%TO.N,SWCLK*%
X94140000Y-97660000D02*
X94260000Y-97780000D01*
X94140000Y-97660000D02*
X92200000Y-95720000D01*
X95780000Y-105000000D02*
X96525000Y-105000000D01*
X94260000Y-97780000D02*
X94260000Y-103480000D01*
X92200000Y-84625000D02*
X91805000Y-84230000D01*
X92200000Y-95720000D02*
X92200000Y-84625000D01*
X94260000Y-103480000D02*
X95780000Y-105000000D01*
X91805000Y-84230000D02*
X90950000Y-84230000D01*
%TO.N,SPI1_NSS*%
X107225000Y-96250000D02*
X106350000Y-97125000D01*
X106350000Y-97125000D02*
X106350000Y-117475000D01*
%TO.N,USART1_TX*%
X88570000Y-94070000D02*
X88570000Y-92525000D01*
X91400000Y-96900000D02*
X88570000Y-94070000D01*
%TO.N,SPI1_SCK*%
X98300000Y-113500000D02*
X98730000Y-113930000D01*
X98730000Y-113930000D02*
X98730000Y-117475000D01*
%TO.N,USART1_RX*%
X91110000Y-95935000D02*
X91110000Y-92525000D01*
X92325000Y-97150000D02*
X91110000Y-95935000D01*
%TO.N,SPI1_MOSI*%
X103300000Y-114300000D02*
X103810000Y-114810000D01*
X103810000Y-114810000D02*
X103810000Y-117475000D01*
%TO.N,SPI1_MISO*%
X101270000Y-114270000D02*
X101270000Y-117475000D01*
X100900000Y-113900000D02*
X101270000Y-114270000D01*
%TO.N,CAN1_H*%
X110850000Y-87225000D02*
X110850000Y-84510000D01*
X110075000Y-91340000D02*
X110075000Y-88000000D01*
X110850000Y-84510000D02*
X110365000Y-84025000D01*
X108890000Y-92525000D02*
X110075000Y-91340000D01*
X110075000Y-88000000D02*
X110850000Y-87225000D01*
%TO.N,CAN2_H*%
X103810000Y-92525000D02*
X104925000Y-91410000D01*
X100850000Y-84510000D02*
X100365000Y-84025000D01*
X104925000Y-89375000D02*
X100850000Y-85300000D01*
X104925000Y-91410000D02*
X104925000Y-89375000D01*
X100850000Y-85300000D02*
X100850000Y-84510000D01*
%TO.N,CAN1_L*%
X110350000Y-88150000D02*
X111150000Y-87350000D01*
X111150000Y-87350000D02*
X111150000Y-84510000D01*
X110350000Y-91345000D02*
X110350000Y-88150000D01*
X111150000Y-84510000D02*
X111635000Y-84025000D01*
X111430000Y-92425000D02*
X110350000Y-91345000D01*
%TO.N,CAN2_L*%
X105225000Y-89300000D02*
X101125000Y-85200000D01*
X106350000Y-92525000D02*
X105225000Y-91400000D01*
X101125000Y-85200000D02*
X101125000Y-84535000D01*
X105225000Y-91400000D02*
X105225000Y-89300000D01*
X101125000Y-84535000D02*
X101635000Y-84025000D01*
%TO.N,USB_OTG_HS_VBUS*%
X94950000Y-120637500D02*
X96400000Y-122087500D01*
X96200000Y-112200000D02*
X94950000Y-113450000D01*
X94950000Y-113450000D02*
X94950000Y-120637500D01*
%TO.N,USB_OTG_HS_ID*%
X100100000Y-113200000D02*
X100100000Y-120137500D01*
X100600000Y-112700000D02*
X100100000Y-113200000D01*
X100100000Y-120137500D02*
X98150000Y-122087500D01*
%TO.N,NRST*%
X95770000Y-107540000D02*
X96525000Y-107540000D01*
X91700000Y-108250000D02*
X95060000Y-108250000D01*
X95060000Y-108250000D02*
X95770000Y-107540000D01*
X91700000Y-99900000D02*
X86500000Y-94700000D01*
X86500000Y-94700000D02*
X86000000Y-94700000D01*
X91700000Y-108250000D02*
X91700000Y-99900000D01*
%TO.N,USART2_TX*%
X91110000Y-114310000D02*
X91110000Y-117475000D01*
X90600000Y-113800000D02*
X91110000Y-114310000D01*
%TO.N,USART2_RX*%
X93650000Y-114350000D02*
X93650000Y-117475000D01*
X92700000Y-113900000D02*
X93200000Y-113900000D01*
X93200000Y-113900000D02*
X93650000Y-114350000D01*
%TO.N,I2C1_SDA*%
X98100000Y-96100000D02*
X98730000Y-95470000D01*
X98730000Y-92525000D02*
X98730000Y-90230000D01*
X98730000Y-95470000D02*
X98730000Y-92425000D01*
X98730000Y-90230000D02*
X96500000Y-88000000D01*
X96500000Y-88000000D02*
X95912500Y-88000000D01*
%TO.N,I2C1_SCL*%
X96190000Y-96210000D02*
X96190000Y-92525000D01*
X95900000Y-89900000D02*
X96190000Y-90190000D01*
X96190000Y-90190000D02*
X96190000Y-92525000D01*
X95800000Y-96600000D02*
X96190000Y-96210000D01*
%TO.N,/VBUS*%
X96400000Y-125800000D02*
X96400000Y-123912500D01*
X95200000Y-127000000D02*
X96400000Y-125800000D01*
%TO.N,Net-(TP1-Pad1)*%
X108400000Y-105500000D02*
X114000000Y-105500000D01*
%TO.N,Net-(TP2-Pad1)*%
X108400000Y-111000000D02*
X114000000Y-111000000D01*
%TD*%
%TA.AperFunction,Conductor*%
%TO.N,GND*%
G36*
X114987153Y-80256421D02*
G01*
X115000000Y-80258976D01*
X115012172Y-80256555D01*
X115019754Y-80256555D01*
X115032104Y-80257162D01*
X115133188Y-80267118D01*
X115157408Y-80271935D01*
X115273617Y-80307187D01*
X115296418Y-80316631D01*
X115403517Y-80373876D01*
X115424047Y-80387594D01*
X115517909Y-80464626D01*
X115535374Y-80482091D01*
X115612406Y-80575953D01*
X115626124Y-80596483D01*
X115683369Y-80703582D01*
X115692813Y-80726383D01*
X115728065Y-80842592D01*
X115732882Y-80866812D01*
X115742838Y-80967896D01*
X115743445Y-80980246D01*
X115743445Y-80987828D01*
X115741024Y-81000000D01*
X115743445Y-81012170D01*
X115743579Y-81012844D01*
X115746000Y-81037425D01*
X115746000Y-128962575D01*
X115743579Y-128987153D01*
X115741024Y-129000000D01*
X115743445Y-129012172D01*
X115743445Y-129019754D01*
X115742838Y-129032104D01*
X115732882Y-129133188D01*
X115728065Y-129157408D01*
X115692813Y-129273617D01*
X115683369Y-129296418D01*
X115626124Y-129403517D01*
X115612406Y-129424047D01*
X115535374Y-129517909D01*
X115517909Y-129535374D01*
X115424047Y-129612406D01*
X115403517Y-129626124D01*
X115296418Y-129683369D01*
X115273617Y-129692813D01*
X115157408Y-129728065D01*
X115133188Y-129732882D01*
X115032104Y-129742838D01*
X115019754Y-129743445D01*
X115012172Y-129743445D01*
X115000000Y-129741024D01*
X114987153Y-129743579D01*
X114962575Y-129746000D01*
X85037425Y-129746000D01*
X85012847Y-129743579D01*
X85000000Y-129741024D01*
X84987828Y-129743445D01*
X84980246Y-129743445D01*
X84967896Y-129742838D01*
X84866812Y-129732882D01*
X84842592Y-129728065D01*
X84726383Y-129692813D01*
X84703582Y-129683369D01*
X84596483Y-129626124D01*
X84575953Y-129612406D01*
X84482091Y-129535374D01*
X84464626Y-129517909D01*
X84387594Y-129424047D01*
X84373876Y-129403517D01*
X84316631Y-129296418D01*
X84307187Y-129273617D01*
X84271935Y-129157408D01*
X84267118Y-129133188D01*
X84257162Y-129032104D01*
X84256555Y-129019754D01*
X84256555Y-129012172D01*
X84258976Y-129000000D01*
X84256421Y-128987153D01*
X84254000Y-128962575D01*
X84254000Y-128261828D01*
X103096000Y-128261828D01*
X103096393Y-128268852D01*
X103110234Y-128392253D01*
X103113336Y-128405906D01*
X103168021Y-128562938D01*
X103174074Y-128575571D01*
X103262191Y-128716589D01*
X103270888Y-128727561D01*
X103388060Y-128845555D01*
X103398971Y-128854327D01*
X103539366Y-128943425D01*
X103551962Y-128949568D01*
X103708609Y-129005348D01*
X103722235Y-129008544D01*
X103755011Y-129012452D01*
X103769418Y-129010025D01*
X103773000Y-128997257D01*
X103773000Y-128997010D01*
X104027000Y-128997010D01*
X104031197Y-129011302D01*
X104043798Y-129013360D01*
X104066735Y-129010949D01*
X104080406Y-129007944D01*
X104237825Y-128954354D01*
X104250491Y-128948393D01*
X104392124Y-128861260D01*
X104403158Y-128852640D01*
X104521961Y-128736299D01*
X104530818Y-128725440D01*
X104620889Y-128585676D01*
X104627121Y-128573123D01*
X104683991Y-128416873D01*
X104687284Y-128403258D01*
X104703503Y-128274870D01*
X104704000Y-128266980D01*
X104704000Y-128261828D01*
X110296000Y-128261828D01*
X110296393Y-128268852D01*
X110310234Y-128392253D01*
X110313336Y-128405906D01*
X110368021Y-128562938D01*
X110374074Y-128575571D01*
X110462191Y-128716589D01*
X110470888Y-128727561D01*
X110588060Y-128845555D01*
X110598971Y-128854327D01*
X110739366Y-128943425D01*
X110751962Y-128949568D01*
X110908609Y-129005348D01*
X110922235Y-129008544D01*
X110955011Y-129012452D01*
X110969418Y-129010025D01*
X110973000Y-128997257D01*
X110973000Y-128997010D01*
X111227000Y-128997010D01*
X111231197Y-129011302D01*
X111243798Y-129013360D01*
X111266735Y-129010949D01*
X111280406Y-129007944D01*
X111437825Y-128954354D01*
X111450491Y-128948393D01*
X111592124Y-128861260D01*
X111603158Y-128852640D01*
X111721961Y-128736299D01*
X111730818Y-128725440D01*
X111820889Y-128585676D01*
X111827121Y-128573123D01*
X111883991Y-128416873D01*
X111887284Y-128403258D01*
X111903503Y-128274870D01*
X111904000Y-128266980D01*
X111904000Y-128015115D01*
X111899525Y-127999876D01*
X111898135Y-127998671D01*
X111890452Y-127997000D01*
X111245115Y-127997000D01*
X111229876Y-128001475D01*
X111228671Y-128002865D01*
X111227000Y-128010548D01*
X111227000Y-128997010D01*
X110973000Y-128997010D01*
X110973000Y-128015115D01*
X110968525Y-127999876D01*
X110967135Y-127998671D01*
X110959452Y-127997000D01*
X110314115Y-127997000D01*
X110298876Y-128001475D01*
X110297671Y-128002865D01*
X110296000Y-128010548D01*
X110296000Y-128261828D01*
X104704000Y-128261828D01*
X104704000Y-128015115D01*
X104699525Y-127999876D01*
X104698135Y-127998671D01*
X104690452Y-127997000D01*
X104045115Y-127997000D01*
X104029876Y-128001475D01*
X104028671Y-128002865D01*
X104027000Y-128010548D01*
X104027000Y-128997010D01*
X103773000Y-128997010D01*
X103773000Y-128015115D01*
X103768525Y-127999876D01*
X103767135Y-127998671D01*
X103759452Y-127997000D01*
X103114115Y-127997000D01*
X103098876Y-128001475D01*
X103097671Y-128002865D01*
X103096000Y-128010548D01*
X103096000Y-128261828D01*
X84254000Y-128261828D01*
X84254000Y-127724885D01*
X103096000Y-127724885D01*
X103100475Y-127740124D01*
X103101865Y-127741329D01*
X103109548Y-127743000D01*
X103754885Y-127743000D01*
X103770124Y-127738525D01*
X103771329Y-127737135D01*
X103773000Y-127729452D01*
X103773000Y-127724885D01*
X104027000Y-127724885D01*
X104031475Y-127740124D01*
X104032865Y-127741329D01*
X104040548Y-127743000D01*
X104685885Y-127743000D01*
X104701124Y-127738525D01*
X104702329Y-127737135D01*
X104704000Y-127729452D01*
X104704000Y-127724885D01*
X110296000Y-127724885D01*
X110300475Y-127740124D01*
X110301865Y-127741329D01*
X110309548Y-127743000D01*
X110954885Y-127743000D01*
X110970124Y-127738525D01*
X110971329Y-127737135D01*
X110973000Y-127729452D01*
X110973000Y-127724885D01*
X111227000Y-127724885D01*
X111231475Y-127740124D01*
X111232865Y-127741329D01*
X111240548Y-127743000D01*
X111885885Y-127743000D01*
X111901124Y-127738525D01*
X111902329Y-127737135D01*
X111904000Y-127729452D01*
X111904000Y-127478172D01*
X111903607Y-127471148D01*
X111889766Y-127347747D01*
X111886664Y-127334094D01*
X111831979Y-127177062D01*
X111825926Y-127164429D01*
X111737809Y-127023411D01*
X111729112Y-127012439D01*
X111611940Y-126894445D01*
X111601029Y-126885673D01*
X111460634Y-126796575D01*
X111448038Y-126790432D01*
X111291391Y-126734652D01*
X111277765Y-126731456D01*
X111244989Y-126727548D01*
X111230582Y-126729975D01*
X111227000Y-126742743D01*
X111227000Y-127724885D01*
X110973000Y-127724885D01*
X110973000Y-126742990D01*
X110968803Y-126728698D01*
X110956202Y-126726640D01*
X110933265Y-126729051D01*
X110919594Y-126732056D01*
X110762175Y-126785646D01*
X110749509Y-126791607D01*
X110607876Y-126878740D01*
X110596842Y-126887360D01*
X110478039Y-127003701D01*
X110469182Y-127014560D01*
X110379111Y-127154324D01*
X110372879Y-127166877D01*
X110316009Y-127323127D01*
X110312716Y-127336742D01*
X110296497Y-127465130D01*
X110296000Y-127473020D01*
X110296000Y-127724885D01*
X104704000Y-127724885D01*
X104704000Y-127478172D01*
X104703607Y-127471148D01*
X104689766Y-127347747D01*
X104686664Y-127334094D01*
X104631979Y-127177062D01*
X104625926Y-127164429D01*
X104537809Y-127023411D01*
X104529112Y-127012439D01*
X104411940Y-126894445D01*
X104401029Y-126885673D01*
X104260634Y-126796575D01*
X104248038Y-126790432D01*
X104091391Y-126734652D01*
X104077765Y-126731456D01*
X104044989Y-126727548D01*
X104030582Y-126729975D01*
X104027000Y-126742743D01*
X104027000Y-127724885D01*
X103773000Y-127724885D01*
X103773000Y-126742990D01*
X103768803Y-126728698D01*
X103756202Y-126726640D01*
X103733265Y-126729051D01*
X103719594Y-126732056D01*
X103562175Y-126785646D01*
X103549509Y-126791607D01*
X103407876Y-126878740D01*
X103396842Y-126887360D01*
X103278039Y-127003701D01*
X103269182Y-127014560D01*
X103179111Y-127154324D01*
X103172879Y-127166877D01*
X103116009Y-127323127D01*
X103112716Y-127336742D01*
X103096497Y-127465130D01*
X103096000Y-127473020D01*
X103096000Y-127724885D01*
X84254000Y-127724885D01*
X84254000Y-126994082D01*
X94715605Y-126994082D01*
X94716769Y-127002984D01*
X94716769Y-127002987D01*
X94724221Y-127059975D01*
X94733414Y-127130273D01*
X94788732Y-127255992D01*
X94794510Y-127262865D01*
X94794510Y-127262866D01*
X94854383Y-127334094D01*
X94877111Y-127361132D01*
X94991447Y-127437240D01*
X95122549Y-127478199D01*
X95259876Y-127480716D01*
X95269109Y-127478199D01*
X95383727Y-127446951D01*
X95392391Y-127444589D01*
X95509439Y-127372721D01*
X95526153Y-127354256D01*
X95595584Y-127277550D01*
X95595585Y-127277549D01*
X95601612Y-127270890D01*
X95646446Y-127178354D01*
X95657585Y-127155362D01*
X95657585Y-127155361D01*
X95661499Y-127147283D01*
X95681502Y-127028386D01*
X95684157Y-127012604D01*
X95719316Y-126944413D01*
X96617850Y-126045879D01*
X96625954Y-126038452D01*
X96646620Y-126021111D01*
X96655065Y-126014025D01*
X96660576Y-126004480D01*
X96660579Y-126004476D01*
X96674066Y-125981115D01*
X96679972Y-125971844D01*
X96695444Y-125949748D01*
X96701768Y-125940717D01*
X96704623Y-125930063D01*
X96706145Y-125926799D01*
X96707373Y-125923426D01*
X96712884Y-125913880D01*
X96718480Y-125882147D01*
X96719483Y-125876456D01*
X96721862Y-125865727D01*
X96728844Y-125839671D01*
X96728844Y-125839666D01*
X96731697Y-125829020D01*
X96728672Y-125794440D01*
X96728386Y-125791177D01*
X96727906Y-125780195D01*
X96727906Y-124313375D01*
X96747908Y-124245254D01*
X96760491Y-124228820D01*
X96795584Y-124190050D01*
X96795585Y-124190049D01*
X96801612Y-124183390D01*
X96815192Y-124155362D01*
X96857585Y-124067862D01*
X96857585Y-124067861D01*
X96861499Y-124059783D01*
X96884286Y-123924336D01*
X96884431Y-123912500D01*
X96883584Y-123906582D01*
X97665605Y-123906582D01*
X97666769Y-123915484D01*
X97666769Y-123915487D01*
X97673420Y-123966344D01*
X97683414Y-124042773D01*
X97738732Y-124168492D01*
X97744510Y-124175365D01*
X97744510Y-124175366D01*
X97818011Y-124262806D01*
X97827111Y-124273632D01*
X97941447Y-124349740D01*
X98072549Y-124390699D01*
X98115351Y-124391483D01*
X98183094Y-124412729D01*
X98202138Y-124428367D01*
X99149325Y-125375555D01*
X100091632Y-126317862D01*
X100099047Y-126325953D01*
X100123475Y-126355065D01*
X100156391Y-126374069D01*
X100165637Y-126379960D01*
X100196783Y-126401768D01*
X100207436Y-126404623D01*
X100210701Y-126406145D01*
X100214074Y-126407373D01*
X100223620Y-126412884D01*
X100234473Y-126414798D01*
X100234474Y-126414798D01*
X100261044Y-126419483D01*
X100271773Y-126421862D01*
X100297829Y-126428844D01*
X100297834Y-126428844D01*
X100308480Y-126431697D01*
X100319464Y-126430736D01*
X100319465Y-126430736D01*
X100346323Y-126428386D01*
X100357305Y-126427906D01*
X104311986Y-126427906D01*
X104380107Y-126447908D01*
X104401082Y-126464811D01*
X104854138Y-126917868D01*
X104861563Y-126925972D01*
X104885975Y-126955065D01*
X104918891Y-126974069D01*
X104928137Y-126979960D01*
X104959283Y-127001768D01*
X104969936Y-127004623D01*
X104973201Y-127006145D01*
X104976574Y-127007373D01*
X104986120Y-127012884D01*
X104996973Y-127014798D01*
X104996974Y-127014798D01*
X105023544Y-127019483D01*
X105034273Y-127021862D01*
X105060329Y-127028844D01*
X105060334Y-127028844D01*
X105070980Y-127031697D01*
X105081964Y-127030736D01*
X105081965Y-127030736D01*
X105108823Y-127028386D01*
X105119805Y-127027906D01*
X107743744Y-127027906D01*
X107811865Y-127047908D01*
X107823322Y-127056625D01*
X107827111Y-127061132D01*
X107834582Y-127066105D01*
X107834583Y-127066106D01*
X107933973Y-127132265D01*
X107941447Y-127137240D01*
X108072549Y-127178199D01*
X108209876Y-127180716D01*
X108219109Y-127178199D01*
X108333727Y-127146951D01*
X108342391Y-127144589D01*
X108459439Y-127072721D01*
X108500004Y-127027906D01*
X108545584Y-126977550D01*
X108545585Y-126977549D01*
X108551612Y-126970890D01*
X108588650Y-126894445D01*
X108607585Y-126855362D01*
X108607585Y-126855361D01*
X108611499Y-126847283D01*
X108634286Y-126711836D01*
X108634431Y-126700000D01*
X108625526Y-126637816D01*
X108616232Y-126572923D01*
X108616232Y-126572921D01*
X108614959Y-126564036D01*
X108558110Y-126439003D01*
X108468453Y-126334951D01*
X108353196Y-126260244D01*
X108221603Y-126220890D01*
X108212627Y-126220835D01*
X108212626Y-126220835D01*
X108155080Y-126220484D01*
X108084255Y-126220051D01*
X107952192Y-126257795D01*
X107944605Y-126262582D01*
X107944603Y-126262583D01*
X107856991Y-126317862D01*
X107836031Y-126331087D01*
X107830089Y-126337815D01*
X107825114Y-126342049D01*
X107760274Y-126370966D01*
X107743452Y-126372094D01*
X105891158Y-126372094D01*
X105823037Y-126352092D01*
X105776544Y-126298436D01*
X105766440Y-126228162D01*
X105795934Y-126163582D01*
X105814454Y-126146131D01*
X105871093Y-126102671D01*
X105871094Y-126102670D01*
X105877644Y-126097644D01*
X105962517Y-125987034D01*
X106005963Y-125882147D01*
X106012711Y-125865856D01*
X106015871Y-125858227D01*
X106034069Y-125720000D01*
X108965931Y-125720000D01*
X108984129Y-125858227D01*
X108987289Y-125865856D01*
X108994037Y-125882147D01*
X109037483Y-125987034D01*
X109122356Y-126097644D01*
X109232965Y-126182517D01*
X109361773Y-126235871D01*
X109500000Y-126254069D01*
X109508188Y-126252991D01*
X109630039Y-126236949D01*
X109638227Y-126235871D01*
X109767035Y-126182517D01*
X109877644Y-126097644D01*
X109962517Y-125987034D01*
X110005963Y-125882147D01*
X110012711Y-125865856D01*
X110015871Y-125858227D01*
X110034069Y-125720000D01*
X110015871Y-125581773D01*
X109962517Y-125452966D01*
X109877644Y-125342356D01*
X109767035Y-125257483D01*
X109638227Y-125204129D01*
X109500000Y-125185931D01*
X109361773Y-125204129D01*
X109232966Y-125257483D01*
X109122356Y-125342356D01*
X109037483Y-125452966D01*
X108984129Y-125581773D01*
X108965931Y-125720000D01*
X106034069Y-125720000D01*
X106015871Y-125581773D01*
X105962517Y-125452966D01*
X105877644Y-125342356D01*
X105767035Y-125257483D01*
X105638227Y-125204129D01*
X105500000Y-125185931D01*
X105361773Y-125204129D01*
X105232966Y-125257483D01*
X105122356Y-125342356D01*
X105037483Y-125452966D01*
X104984129Y-125581773D01*
X104965931Y-125720000D01*
X104975429Y-125792141D01*
X104964490Y-125862288D01*
X104917362Y-125915387D01*
X104849009Y-125934577D01*
X104781131Y-125913766D01*
X104761414Y-125897684D01*
X104745876Y-125882147D01*
X104738447Y-125874040D01*
X104731580Y-125865856D01*
X104714025Y-125844935D01*
X104681116Y-125825935D01*
X104671852Y-125820033D01*
X104649746Y-125804554D01*
X104649745Y-125804554D01*
X104640717Y-125798232D01*
X104630071Y-125795379D01*
X104626809Y-125793858D01*
X104623424Y-125792626D01*
X104613880Y-125787116D01*
X104603027Y-125785202D01*
X104603026Y-125785202D01*
X104576456Y-125780517D01*
X104565727Y-125778138D01*
X104539671Y-125771156D01*
X104539666Y-125771156D01*
X104529020Y-125768303D01*
X104518036Y-125769264D01*
X104518035Y-125769264D01*
X104491177Y-125771614D01*
X104480195Y-125772094D01*
X104153699Y-125772094D01*
X104085578Y-125752092D01*
X104039085Y-125698436D01*
X104028981Y-125628162D01*
X104058475Y-125563582D01*
X104113093Y-125526816D01*
X104237825Y-125484354D01*
X104250491Y-125478393D01*
X104392124Y-125391260D01*
X104403158Y-125382640D01*
X104521961Y-125266299D01*
X104530818Y-125255440D01*
X104620889Y-125115676D01*
X104627121Y-125103123D01*
X104683991Y-124946873D01*
X104687284Y-124933258D01*
X104703503Y-124804870D01*
X104704000Y-124796980D01*
X104704000Y-124791828D01*
X110296000Y-124791828D01*
X110296393Y-124798852D01*
X110310234Y-124922253D01*
X110313336Y-124935906D01*
X110368021Y-125092938D01*
X110374074Y-125105571D01*
X110462191Y-125246589D01*
X110470888Y-125257561D01*
X110588060Y-125375555D01*
X110598971Y-125384327D01*
X110739366Y-125473425D01*
X110751962Y-125479568D01*
X110908609Y-125535348D01*
X110922235Y-125538544D01*
X110955011Y-125542452D01*
X110969418Y-125540025D01*
X110973000Y-125527257D01*
X110973000Y-125527010D01*
X111227000Y-125527010D01*
X111231197Y-125541302D01*
X111243798Y-125543360D01*
X111266735Y-125540949D01*
X111280406Y-125537944D01*
X111437825Y-125484354D01*
X111450491Y-125478393D01*
X111592124Y-125391260D01*
X111603158Y-125382640D01*
X111721961Y-125266299D01*
X111730818Y-125255440D01*
X111820889Y-125115676D01*
X111827121Y-125103123D01*
X111883991Y-124946873D01*
X111887284Y-124933258D01*
X111903503Y-124804870D01*
X111904000Y-124796980D01*
X111904000Y-124545115D01*
X111899525Y-124529876D01*
X111898135Y-124528671D01*
X111890452Y-124527000D01*
X111245115Y-124527000D01*
X111229876Y-124531475D01*
X111228671Y-124532865D01*
X111227000Y-124540548D01*
X111227000Y-125527010D01*
X110973000Y-125527010D01*
X110973000Y-124545115D01*
X110968525Y-124529876D01*
X110967135Y-124528671D01*
X110959452Y-124527000D01*
X110314115Y-124527000D01*
X110298876Y-124531475D01*
X110297671Y-124532865D01*
X110296000Y-124540548D01*
X110296000Y-124791828D01*
X104704000Y-124791828D01*
X104704000Y-124545115D01*
X104699525Y-124529876D01*
X104698135Y-124528671D01*
X104690452Y-124527000D01*
X103114115Y-124527000D01*
X103098876Y-124531475D01*
X103097671Y-124532865D01*
X103096000Y-124540548D01*
X103096000Y-124791828D01*
X103096393Y-124798852D01*
X103110234Y-124922253D01*
X103113336Y-124935906D01*
X103168021Y-125092938D01*
X103174074Y-125105571D01*
X103262191Y-125246589D01*
X103270888Y-125257561D01*
X103388060Y-125375555D01*
X103398971Y-125384327D01*
X103539366Y-125473425D01*
X103551962Y-125479568D01*
X103686276Y-125527395D01*
X103743740Y-125569089D01*
X103769540Y-125635232D01*
X103755485Y-125704823D01*
X103706037Y-125755769D01*
X103644009Y-125772094D01*
X100525514Y-125772094D01*
X100457393Y-125752092D01*
X100436419Y-125735189D01*
X98956114Y-124254885D01*
X103096000Y-124254885D01*
X103100475Y-124270124D01*
X103101865Y-124271329D01*
X103109548Y-124273000D01*
X103754885Y-124273000D01*
X103770124Y-124268525D01*
X103771329Y-124267135D01*
X103773000Y-124259452D01*
X103773000Y-124254885D01*
X104027000Y-124254885D01*
X104031475Y-124270124D01*
X104032865Y-124271329D01*
X104040548Y-124273000D01*
X104685885Y-124273000D01*
X104701124Y-124268525D01*
X104702329Y-124267135D01*
X104704000Y-124259452D01*
X104704000Y-124254885D01*
X110296000Y-124254885D01*
X110300475Y-124270124D01*
X110301865Y-124271329D01*
X110309548Y-124273000D01*
X110954885Y-124273000D01*
X110970124Y-124268525D01*
X110971329Y-124267135D01*
X110973000Y-124259452D01*
X110973000Y-124254885D01*
X111227000Y-124254885D01*
X111231475Y-124270124D01*
X111232865Y-124271329D01*
X111240548Y-124273000D01*
X111885885Y-124273000D01*
X111901124Y-124268525D01*
X111902329Y-124267135D01*
X111904000Y-124259452D01*
X111904000Y-124008172D01*
X111903607Y-124001148D01*
X111889766Y-123877747D01*
X111886664Y-123864094D01*
X111831979Y-123707062D01*
X111825926Y-123694429D01*
X111737809Y-123553411D01*
X111729112Y-123542439D01*
X111611940Y-123424445D01*
X111601029Y-123415673D01*
X111460634Y-123326575D01*
X111448038Y-123320432D01*
X111291391Y-123264652D01*
X111277765Y-123261456D01*
X111244989Y-123257548D01*
X111230582Y-123259975D01*
X111227000Y-123272743D01*
X111227000Y-124254885D01*
X110973000Y-124254885D01*
X110973000Y-123272990D01*
X110968803Y-123258698D01*
X110956202Y-123256640D01*
X110933265Y-123259051D01*
X110919594Y-123262056D01*
X110762175Y-123315646D01*
X110749509Y-123321607D01*
X110607876Y-123408740D01*
X110596842Y-123417360D01*
X110478039Y-123533701D01*
X110469182Y-123544560D01*
X110379111Y-123684324D01*
X110372879Y-123696877D01*
X110316009Y-123853127D01*
X110312716Y-123866742D01*
X110296497Y-123995130D01*
X110296000Y-124003020D01*
X110296000Y-124254885D01*
X104704000Y-124254885D01*
X104704000Y-124008172D01*
X104703607Y-124001148D01*
X104689766Y-123877747D01*
X104686664Y-123864094D01*
X104631979Y-123707062D01*
X104625926Y-123694429D01*
X104537809Y-123553411D01*
X104529112Y-123542439D01*
X104411940Y-123424445D01*
X104401029Y-123415673D01*
X104260634Y-123326575D01*
X104248038Y-123320432D01*
X104091391Y-123264652D01*
X104077765Y-123261456D01*
X104044989Y-123257548D01*
X104030582Y-123259975D01*
X104027000Y-123272743D01*
X104027000Y-124254885D01*
X103773000Y-124254885D01*
X103773000Y-123272990D01*
X103768803Y-123258698D01*
X103756202Y-123256640D01*
X103733265Y-123259051D01*
X103719594Y-123262056D01*
X103562175Y-123315646D01*
X103549509Y-123321607D01*
X103407876Y-123408740D01*
X103396842Y-123417360D01*
X103278039Y-123533701D01*
X103269182Y-123544560D01*
X103179111Y-123684324D01*
X103172879Y-123696877D01*
X103116009Y-123853127D01*
X103112716Y-123866742D01*
X103096497Y-123995130D01*
X103096000Y-124003020D01*
X103096000Y-124254885D01*
X98956114Y-124254885D01*
X98667573Y-123966344D01*
X98633548Y-123904032D01*
X98631941Y-123895112D01*
X98616232Y-123785423D01*
X98616232Y-123785421D01*
X98614959Y-123776536D01*
X98558110Y-123651503D01*
X98468453Y-123547451D01*
X98353196Y-123472744D01*
X98221603Y-123433390D01*
X98212627Y-123433335D01*
X98212626Y-123433335D01*
X98155080Y-123432984D01*
X98084255Y-123432551D01*
X97952192Y-123470295D01*
X97944605Y-123475082D01*
X97944603Y-123475083D01*
X97933780Y-123481912D01*
X97836031Y-123543587D01*
X97830088Y-123550316D01*
X97780606Y-123606343D01*
X97745109Y-123646536D01*
X97741295Y-123654659D01*
X97741294Y-123654661D01*
X97722623Y-123694429D01*
X97686736Y-123770866D01*
X97677027Y-123833224D01*
X97666986Y-123897709D01*
X97666986Y-123897713D01*
X97665605Y-123906582D01*
X96883584Y-123906582D01*
X96866232Y-123785423D01*
X96866232Y-123785421D01*
X96864959Y-123776536D01*
X96808110Y-123651503D01*
X96718453Y-123547451D01*
X96603196Y-123472744D01*
X96471603Y-123433390D01*
X96462627Y-123433335D01*
X96462626Y-123433335D01*
X96405080Y-123432984D01*
X96334255Y-123432551D01*
X96202192Y-123470295D01*
X96194605Y-123475082D01*
X96194603Y-123475083D01*
X96183780Y-123481912D01*
X96086031Y-123543587D01*
X96080088Y-123550316D01*
X96030606Y-123606343D01*
X95995109Y-123646536D01*
X95991295Y-123654659D01*
X95991294Y-123654661D01*
X95972623Y-123694429D01*
X95936736Y-123770866D01*
X95927027Y-123833224D01*
X95916986Y-123897709D01*
X95916986Y-123897713D01*
X95915605Y-123906582D01*
X95916769Y-123915484D01*
X95916769Y-123915487D01*
X95923420Y-123966344D01*
X95933414Y-124042773D01*
X95988732Y-124168492D01*
X95994510Y-124175366D01*
X95994511Y-124175367D01*
X96042545Y-124232511D01*
X96071066Y-124297527D01*
X96072094Y-124313586D01*
X96072094Y-125611987D01*
X96052092Y-125680108D01*
X96035189Y-125701082D01*
X95252947Y-126483324D01*
X95190635Y-126517350D01*
X95163083Y-126520227D01*
X95150778Y-126520152D01*
X95134255Y-126520051D01*
X95002192Y-126557795D01*
X94994605Y-126562582D01*
X94994603Y-126562583D01*
X94932850Y-126601546D01*
X94886031Y-126631087D01*
X94795109Y-126734036D01*
X94736736Y-126858366D01*
X94727472Y-126917868D01*
X94716986Y-126985209D01*
X94716986Y-126985213D01*
X94715605Y-126994082D01*
X84254000Y-126994082D01*
X84254000Y-124994082D01*
X87015605Y-124994082D01*
X87016769Y-125002984D01*
X87016769Y-125002987D01*
X87018554Y-125016633D01*
X87033414Y-125130273D01*
X87057904Y-125185931D01*
X87084595Y-125246589D01*
X87088732Y-125255992D01*
X87094510Y-125262865D01*
X87094510Y-125262866D01*
X87171331Y-125354256D01*
X87177111Y-125361132D01*
X87291447Y-125437240D01*
X87422549Y-125478199D01*
X87559876Y-125480716D01*
X87569109Y-125478199D01*
X87683727Y-125446951D01*
X87692391Y-125444589D01*
X87790537Y-125384327D01*
X87801791Y-125377417D01*
X87809439Y-125372721D01*
X87897092Y-125275884D01*
X87897094Y-125275882D01*
X87901612Y-125270890D01*
X87902333Y-125271542D01*
X87950898Y-125231313D01*
X88021379Y-125222772D01*
X88085289Y-125253692D01*
X88097133Y-125265986D01*
X88166837Y-125348909D01*
X88177111Y-125361132D01*
X88291447Y-125437240D01*
X88422549Y-125478199D01*
X88559876Y-125480716D01*
X88569109Y-125478199D01*
X88683727Y-125446951D01*
X88692391Y-125444589D01*
X88790537Y-125384327D01*
X88801791Y-125377417D01*
X88809439Y-125372721D01*
X88897092Y-125275884D01*
X88897094Y-125275882D01*
X88901612Y-125270890D01*
X88902333Y-125271542D01*
X88950898Y-125231313D01*
X89021379Y-125222772D01*
X89085289Y-125253692D01*
X89097133Y-125265986D01*
X89166837Y-125348909D01*
X89177111Y-125361132D01*
X89291447Y-125437240D01*
X89422549Y-125478199D01*
X89559876Y-125480716D01*
X89569109Y-125478199D01*
X89683727Y-125446951D01*
X89692391Y-125444589D01*
X89790537Y-125384327D01*
X89801791Y-125377417D01*
X89809439Y-125372721D01*
X89830993Y-125348909D01*
X89895584Y-125277550D01*
X89895586Y-125277547D01*
X89901612Y-125270890D01*
X89909098Y-125255440D01*
X89957585Y-125155362D01*
X89957585Y-125155361D01*
X89961499Y-125147283D01*
X89984286Y-125011836D01*
X89984431Y-125000000D01*
X89983584Y-124994082D01*
X89966232Y-124872923D01*
X89966232Y-124872921D01*
X89964959Y-124864036D01*
X89908110Y-124739003D01*
X89818453Y-124634951D01*
X89773882Y-124606061D01*
X89727598Y-124552224D01*
X89717768Y-124481912D01*
X89747513Y-124417446D01*
X89776487Y-124392954D01*
X89801788Y-124377419D01*
X89801789Y-124377418D01*
X89809439Y-124372721D01*
X89897092Y-124275884D01*
X89897094Y-124275882D01*
X89901612Y-124270890D01*
X89902333Y-124271542D01*
X89950898Y-124231313D01*
X90021379Y-124222772D01*
X90085289Y-124253692D01*
X90097131Y-124265984D01*
X90177111Y-124361132D01*
X90291447Y-124437240D01*
X90422549Y-124478199D01*
X90559876Y-124480716D01*
X90569109Y-124478199D01*
X90626133Y-124462653D01*
X90692391Y-124444589D01*
X90809439Y-124372721D01*
X90826153Y-124354256D01*
X90895584Y-124277550D01*
X90895586Y-124277547D01*
X90901612Y-124270890D01*
X90909367Y-124254885D01*
X90957585Y-124155362D01*
X90957585Y-124155361D01*
X90961499Y-124147283D01*
X90984286Y-124011836D01*
X90984431Y-124000000D01*
X90983584Y-123994082D01*
X90966232Y-123872923D01*
X90966232Y-123872921D01*
X90964959Y-123864036D01*
X90908110Y-123739003D01*
X90818453Y-123634951D01*
X90773882Y-123606061D01*
X90727598Y-123552224D01*
X90717768Y-123481912D01*
X90747513Y-123417446D01*
X90776487Y-123392954D01*
X90801788Y-123377419D01*
X90801789Y-123377418D01*
X90809439Y-123372721D01*
X90826153Y-123354256D01*
X90895584Y-123277550D01*
X90895586Y-123277547D01*
X90901612Y-123270890D01*
X90906901Y-123259975D01*
X90957585Y-123155362D01*
X90957585Y-123155361D01*
X90961499Y-123147283D01*
X90984286Y-123011836D01*
X90984431Y-123000000D01*
X90983584Y-122994082D01*
X90966232Y-122872923D01*
X90966232Y-122872921D01*
X90964959Y-122864036D01*
X90908110Y-122739003D01*
X90818453Y-122634951D01*
X90773882Y-122606061D01*
X90727598Y-122552224D01*
X90717768Y-122481912D01*
X90747513Y-122417446D01*
X90776487Y-122392954D01*
X90801788Y-122377419D01*
X90801789Y-122377418D01*
X90809439Y-122372721D01*
X90815463Y-122366066D01*
X90895584Y-122277550D01*
X90895586Y-122277547D01*
X90901612Y-122270890D01*
X90909945Y-122253692D01*
X90957585Y-122155362D01*
X90957585Y-122155361D01*
X90961499Y-122147283D01*
X90984286Y-122011836D01*
X90984431Y-122000000D01*
X90983584Y-121994082D01*
X90966232Y-121872923D01*
X90966232Y-121872921D01*
X90964959Y-121864036D01*
X90908110Y-121739003D01*
X90818453Y-121634951D01*
X90776452Y-121607727D01*
X90773882Y-121606061D01*
X90727598Y-121552224D01*
X90717768Y-121481912D01*
X90747513Y-121417446D01*
X90776487Y-121392954D01*
X90801788Y-121377419D01*
X90801789Y-121377418D01*
X90809439Y-121372721D01*
X90901612Y-121270890D01*
X90909945Y-121253692D01*
X90957585Y-121155362D01*
X90957585Y-121155361D01*
X90961499Y-121147283D01*
X90984286Y-121011836D01*
X90984431Y-121000000D01*
X90983584Y-120994082D01*
X90966232Y-120872923D01*
X90966232Y-120872921D01*
X90964959Y-120864036D01*
X90908110Y-120739003D01*
X90818453Y-120634951D01*
X90703196Y-120560244D01*
X90571603Y-120520890D01*
X90562627Y-120520835D01*
X90562626Y-120520835D01*
X90505080Y-120520484D01*
X90434255Y-120520051D01*
X90302192Y-120557795D01*
X90294605Y-120562582D01*
X90294603Y-120562583D01*
X90232850Y-120601546D01*
X90186031Y-120631087D01*
X90095109Y-120734036D01*
X90092622Y-120731839D01*
X90050846Y-120767322D01*
X89980476Y-120776733D01*
X89916189Y-120746604D01*
X89904184Y-120734446D01*
X89824314Y-120641753D01*
X89818453Y-120634951D01*
X89703196Y-120560244D01*
X89571603Y-120520890D01*
X89562627Y-120520835D01*
X89562626Y-120520835D01*
X89505080Y-120520484D01*
X89434255Y-120520051D01*
X89302192Y-120557795D01*
X89294605Y-120562582D01*
X89294603Y-120562583D01*
X89232850Y-120601546D01*
X89186031Y-120631087D01*
X89095109Y-120734036D01*
X89092622Y-120731839D01*
X89050846Y-120767322D01*
X88980476Y-120776733D01*
X88916189Y-120746604D01*
X88904184Y-120734446D01*
X88824314Y-120641753D01*
X88818453Y-120634951D01*
X88703196Y-120560244D01*
X88571603Y-120520890D01*
X88562627Y-120520835D01*
X88562626Y-120520835D01*
X88505080Y-120520484D01*
X88434255Y-120520051D01*
X88302192Y-120557795D01*
X88294605Y-120562582D01*
X88294603Y-120562583D01*
X88232850Y-120601546D01*
X88186031Y-120631087D01*
X88095109Y-120734036D01*
X88092622Y-120731839D01*
X88050846Y-120767322D01*
X87980476Y-120776733D01*
X87916189Y-120746604D01*
X87904184Y-120734446D01*
X87824314Y-120641753D01*
X87818453Y-120634951D01*
X87703196Y-120560244D01*
X87571603Y-120520890D01*
X87562627Y-120520835D01*
X87562626Y-120520835D01*
X87505080Y-120520484D01*
X87434255Y-120520051D01*
X87302192Y-120557795D01*
X87294605Y-120562582D01*
X87294603Y-120562583D01*
X87232850Y-120601546D01*
X87186031Y-120631087D01*
X87095109Y-120734036D01*
X87036736Y-120858366D01*
X87027027Y-120920724D01*
X87016986Y-120985209D01*
X87016986Y-120985213D01*
X87015605Y-120994082D01*
X87016769Y-121002984D01*
X87016769Y-121002987D01*
X87018554Y-121016633D01*
X87033414Y-121130273D01*
X87088732Y-121255992D01*
X87177111Y-121361132D01*
X87227833Y-121394895D01*
X87273454Y-121449290D01*
X87282426Y-121519717D01*
X87251897Y-121583815D01*
X87225248Y-121606343D01*
X87186031Y-121631087D01*
X87180088Y-121637816D01*
X87173483Y-121645295D01*
X87095109Y-121734036D01*
X87036736Y-121858366D01*
X87027027Y-121920724D01*
X87016986Y-121985209D01*
X87016986Y-121985213D01*
X87015605Y-121994082D01*
X87016769Y-122002984D01*
X87016769Y-122002987D01*
X87018554Y-122016633D01*
X87033414Y-122130273D01*
X87088732Y-122255992D01*
X87177111Y-122361132D01*
X87227833Y-122394895D01*
X87273454Y-122449290D01*
X87282426Y-122519717D01*
X87251897Y-122583815D01*
X87225248Y-122606343D01*
X87186031Y-122631087D01*
X87095109Y-122734036D01*
X87036736Y-122858366D01*
X87027027Y-122920724D01*
X87016986Y-122985209D01*
X87016986Y-122985213D01*
X87015605Y-122994082D01*
X87016769Y-123002984D01*
X87016769Y-123002987D01*
X87018554Y-123016633D01*
X87033414Y-123130273D01*
X87088732Y-123255992D01*
X87094510Y-123262865D01*
X87094510Y-123262866D01*
X87103020Y-123272990D01*
X87177111Y-123361132D01*
X87227833Y-123394895D01*
X87273454Y-123449290D01*
X87282426Y-123519717D01*
X87251897Y-123583815D01*
X87225248Y-123606343D01*
X87186031Y-123631087D01*
X87095109Y-123734036D01*
X87091295Y-123742159D01*
X87091294Y-123742161D01*
X87077817Y-123770866D01*
X87036736Y-123858366D01*
X87031015Y-123895112D01*
X87016986Y-123985209D01*
X87016986Y-123985213D01*
X87015605Y-123994082D01*
X87016769Y-124002984D01*
X87016769Y-124002987D01*
X87021972Y-124042773D01*
X87033414Y-124130273D01*
X87088732Y-124255992D01*
X87094510Y-124262865D01*
X87094510Y-124262866D01*
X87163353Y-124344765D01*
X87177111Y-124361132D01*
X87227833Y-124394895D01*
X87273454Y-124449290D01*
X87282426Y-124519717D01*
X87251897Y-124583815D01*
X87225248Y-124606343D01*
X87186031Y-124631087D01*
X87095109Y-124734036D01*
X87036736Y-124858366D01*
X87027027Y-124920724D01*
X87016986Y-124985209D01*
X87016986Y-124985213D01*
X87015605Y-124994082D01*
X84254000Y-124994082D01*
X84254000Y-113794082D01*
X90115605Y-113794082D01*
X90116769Y-113802984D01*
X90116769Y-113802987D01*
X90123420Y-113853844D01*
X90133414Y-113930273D01*
X90188732Y-114055992D01*
X90194510Y-114062865D01*
X90194510Y-114062866D01*
X90265881Y-114147772D01*
X90277111Y-114161132D01*
X90391447Y-114237240D01*
X90467921Y-114261132D01*
X90497359Y-114270329D01*
X90522549Y-114278199D01*
X90565351Y-114278983D01*
X90633094Y-114300229D01*
X90652138Y-114315867D01*
X90745189Y-114408918D01*
X90779215Y-114471230D01*
X90782094Y-114498013D01*
X90782094Y-115844501D01*
X90762092Y-115912622D01*
X90708436Y-115959115D01*
X90656094Y-115970501D01*
X90584934Y-115970501D01*
X90549182Y-115977612D01*
X90522874Y-115982844D01*
X90522872Y-115982845D01*
X90510699Y-115985266D01*
X90500379Y-115992161D01*
X90500378Y-115992162D01*
X90455048Y-116022451D01*
X90426516Y-116041516D01*
X90370266Y-116125699D01*
X90355500Y-116199933D01*
X90355501Y-118750066D01*
X90370266Y-118824301D01*
X90426516Y-118908484D01*
X90510699Y-118964734D01*
X90584933Y-118979500D01*
X91109915Y-118979500D01*
X91635066Y-118979499D01*
X91670818Y-118972388D01*
X91697126Y-118967156D01*
X91697128Y-118967155D01*
X91709301Y-118964734D01*
X91719621Y-118957839D01*
X91719622Y-118957838D01*
X91783168Y-118915377D01*
X91793484Y-118908484D01*
X91849734Y-118824301D01*
X91864500Y-118750067D01*
X91864500Y-118188628D01*
X91884502Y-118120507D01*
X91938158Y-118074014D01*
X92008432Y-118063910D01*
X92039146Y-118073208D01*
X92041447Y-118074740D01*
X92050014Y-118077416D01*
X92050015Y-118077417D01*
X92163980Y-118113022D01*
X92172549Y-118115699D01*
X92309876Y-118118216D01*
X92319109Y-118115699D01*
X92433727Y-118084451D01*
X92442391Y-118082089D01*
X92547719Y-118017417D01*
X92551791Y-118014917D01*
X92559439Y-118010221D01*
X92567666Y-118001132D01*
X92645584Y-117915050D01*
X92645585Y-117915049D01*
X92651612Y-117908390D01*
X92656111Y-117899105D01*
X92656999Y-117898126D01*
X92660545Y-117892869D01*
X92661304Y-117893381D01*
X92703815Y-117846523D01*
X92772374Y-117828080D01*
X92840021Y-117849630D01*
X92885278Y-117904332D01*
X92895501Y-117954045D01*
X92895501Y-118750066D01*
X92910266Y-118824301D01*
X92966516Y-118908484D01*
X93050699Y-118964734D01*
X93124933Y-118979500D01*
X93649915Y-118979500D01*
X94175066Y-118979499D01*
X94210818Y-118972388D01*
X94237126Y-118967156D01*
X94237128Y-118967155D01*
X94249301Y-118964734D01*
X94259621Y-118957839D01*
X94259622Y-118957838D01*
X94323168Y-118915377D01*
X94333484Y-118908484D01*
X94389734Y-118824301D01*
X94392596Y-118826213D01*
X94424230Y-118786955D01*
X94491593Y-118764532D01*
X94560385Y-118782088D01*
X94608765Y-118834049D01*
X94622094Y-118890452D01*
X94622094Y-120617695D01*
X94621614Y-120628677D01*
X94618303Y-120666520D01*
X94621156Y-120677166D01*
X94621156Y-120677171D01*
X94628138Y-120703227D01*
X94630517Y-120713956D01*
X94634934Y-120739003D01*
X94637116Y-120751380D01*
X94642626Y-120760924D01*
X94643858Y-120764309D01*
X94645379Y-120767571D01*
X94648232Y-120778217D01*
X94654554Y-120787245D01*
X94654554Y-120787246D01*
X94670033Y-120809352D01*
X94675935Y-120818616D01*
X94694935Y-120851525D01*
X94703380Y-120858611D01*
X94724046Y-120875952D01*
X94732150Y-120883379D01*
X95883099Y-122034328D01*
X95917125Y-122096640D01*
X95918940Y-122107086D01*
X95933414Y-122217773D01*
X95988732Y-122343492D01*
X95994510Y-122350365D01*
X95994510Y-122350366D01*
X96067535Y-122437240D01*
X96077111Y-122448632D01*
X96191447Y-122524740D01*
X96279418Y-122552224D01*
X96305089Y-122560244D01*
X96322549Y-122565699D01*
X96459876Y-122568216D01*
X96469109Y-122565699D01*
X96583727Y-122534451D01*
X96592391Y-122532089D01*
X96709439Y-122460221D01*
X96719929Y-122448632D01*
X96795584Y-122365050D01*
X96795585Y-122365049D01*
X96801612Y-122358390D01*
X96841238Y-122276603D01*
X96857585Y-122242862D01*
X96857585Y-122242861D01*
X96861499Y-122234783D01*
X96884286Y-122099336D01*
X96884431Y-122087500D01*
X96883584Y-122081582D01*
X97665605Y-122081582D01*
X97666769Y-122090484D01*
X97666769Y-122090487D01*
X97671972Y-122130273D01*
X97683414Y-122217773D01*
X97738732Y-122343492D01*
X97744510Y-122350365D01*
X97744510Y-122350366D01*
X97817535Y-122437240D01*
X97827111Y-122448632D01*
X97941447Y-122524740D01*
X98029418Y-122552224D01*
X98055089Y-122560244D01*
X98072549Y-122565699D01*
X98209876Y-122568216D01*
X98219109Y-122565699D01*
X98333727Y-122534451D01*
X98342391Y-122532089D01*
X98459439Y-122460221D01*
X98469929Y-122448632D01*
X98545584Y-122365050D01*
X98545585Y-122365049D01*
X98551612Y-122358390D01*
X98591238Y-122276603D01*
X98607585Y-122242862D01*
X98607585Y-122242861D01*
X98611499Y-122234783D01*
X98629081Y-122130273D01*
X98634157Y-122100104D01*
X98669316Y-122031913D01*
X100317850Y-120383379D01*
X100325954Y-120375952D01*
X100346621Y-120358610D01*
X100355065Y-120351525D01*
X100374067Y-120318612D01*
X100379972Y-120309344D01*
X100395447Y-120287243D01*
X100401767Y-120278217D01*
X100404619Y-120267573D01*
X100406137Y-120264318D01*
X100407370Y-120260930D01*
X100412884Y-120251380D01*
X100414798Y-120240526D01*
X100414799Y-120240523D01*
X100419485Y-120213944D01*
X100421860Y-120203231D01*
X100431696Y-120166520D01*
X100428385Y-120128673D01*
X100427906Y-120117692D01*
X100427906Y-119038234D01*
X100447908Y-118970113D01*
X100501564Y-118923620D01*
X100571838Y-118913516D01*
X100623909Y-118933469D01*
X100670699Y-118964734D01*
X100744933Y-118979500D01*
X101269915Y-118979500D01*
X101795066Y-118979499D01*
X101830818Y-118972388D01*
X101857126Y-118967156D01*
X101857128Y-118967155D01*
X101869301Y-118964734D01*
X101879621Y-118957839D01*
X101879622Y-118957838D01*
X101943168Y-118915377D01*
X101953484Y-118908484D01*
X102009734Y-118824301D01*
X102024500Y-118750067D01*
X102024500Y-118121467D01*
X102044502Y-118053346D01*
X102098158Y-118006853D01*
X102168432Y-117996749D01*
X102220317Y-118016579D01*
X102311447Y-118077240D01*
X102442549Y-118118199D01*
X102579876Y-118120716D01*
X102589109Y-118118199D01*
X102703727Y-118086951D01*
X102712391Y-118084589D01*
X102829439Y-118012721D01*
X102835460Y-118006069D01*
X102835466Y-118006064D01*
X102836089Y-118005375D01*
X102836875Y-118004894D01*
X102842368Y-118000333D01*
X102843027Y-118001126D01*
X102896633Y-117968295D01*
X102967613Y-117969835D01*
X103026493Y-118009505D01*
X103054578Y-118074711D01*
X103055501Y-118089929D01*
X103055501Y-118750066D01*
X103070266Y-118824301D01*
X103126516Y-118908484D01*
X103210699Y-118964734D01*
X103284933Y-118979500D01*
X103809915Y-118979500D01*
X104335066Y-118979499D01*
X104370818Y-118972388D01*
X104397126Y-118967156D01*
X104397128Y-118967155D01*
X104409301Y-118964734D01*
X104419621Y-118957839D01*
X104419622Y-118957838D01*
X104483168Y-118915377D01*
X104493484Y-118908484D01*
X104549734Y-118824301D01*
X104564500Y-118750067D01*
X104564499Y-116199934D01*
X104564499Y-116199933D01*
X105595500Y-116199933D01*
X105595501Y-118750066D01*
X105610266Y-118824301D01*
X105666516Y-118908484D01*
X105750699Y-118964734D01*
X105824933Y-118979500D01*
X106349915Y-118979500D01*
X106875066Y-118979499D01*
X106910818Y-118972388D01*
X106937126Y-118967156D01*
X106937128Y-118967155D01*
X106949301Y-118964734D01*
X106959621Y-118957839D01*
X106959622Y-118957838D01*
X107023168Y-118915377D01*
X107033484Y-118908484D01*
X107089734Y-118824301D01*
X107104500Y-118750067D01*
X107104499Y-116381582D01*
X109765605Y-116381582D01*
X109766769Y-116390484D01*
X109766769Y-116390487D01*
X109768554Y-116404133D01*
X109783414Y-116517773D01*
X109838732Y-116643492D01*
X109927111Y-116748632D01*
X110041447Y-116824740D01*
X110172549Y-116865699D01*
X110309876Y-116868216D01*
X110319109Y-116865699D01*
X110433727Y-116834451D01*
X110442391Y-116832089D01*
X110559439Y-116760221D01*
X110651612Y-116658390D01*
X110711499Y-116534783D01*
X110734286Y-116399336D01*
X110734431Y-116387500D01*
X110733584Y-116381582D01*
X110716232Y-116260423D01*
X110716232Y-116260421D01*
X110714959Y-116251536D01*
X110658110Y-116126503D01*
X110568453Y-116022451D01*
X110453196Y-115947744D01*
X110321603Y-115908390D01*
X110312627Y-115908335D01*
X110312626Y-115908335D01*
X110255080Y-115907984D01*
X110184255Y-115907551D01*
X110052192Y-115945295D01*
X110044605Y-115950082D01*
X110044603Y-115950083D01*
X110019145Y-115966146D01*
X109936031Y-116018587D01*
X109845109Y-116121536D01*
X109786736Y-116245866D01*
X109777027Y-116308224D01*
X109766986Y-116372709D01*
X109766986Y-116372713D01*
X109765605Y-116381582D01*
X107104499Y-116381582D01*
X107104499Y-116199934D01*
X107097388Y-116164182D01*
X107092156Y-116137874D01*
X107092155Y-116137872D01*
X107089734Y-116125699D01*
X107033484Y-116041516D01*
X106949301Y-115985266D01*
X106875067Y-115970500D01*
X106803906Y-115970500D01*
X106735785Y-115950498D01*
X106689292Y-115896842D01*
X106677906Y-115844500D01*
X106677906Y-110994082D01*
X107915605Y-110994082D01*
X107933414Y-111130273D01*
X107988732Y-111255992D01*
X108077111Y-111361132D01*
X108191447Y-111437240D01*
X108322549Y-111478199D01*
X108459876Y-111480716D01*
X108469109Y-111478199D01*
X108583727Y-111446951D01*
X108592391Y-111444589D01*
X108709439Y-111372721D01*
X108715462Y-111366066D01*
X108722370Y-111360332D01*
X108724004Y-111362300D01*
X108773028Y-111332271D01*
X108805905Y-111327906D01*
X112962170Y-111327906D01*
X113030291Y-111347908D01*
X113074236Y-111396311D01*
X113151566Y-111546779D01*
X113155389Y-111551603D01*
X113155392Y-111551607D01*
X113183045Y-111586496D01*
X113273927Y-111701160D01*
X113278620Y-111705154D01*
X113278621Y-111705155D01*
X113343351Y-111760244D01*
X113423945Y-111828835D01*
X113429323Y-111831841D01*
X113429325Y-111831842D01*
X113459019Y-111848437D01*
X113595904Y-111924940D01*
X113783255Y-111985814D01*
X113978862Y-112009139D01*
X113984997Y-112008667D01*
X113984999Y-112008667D01*
X114044801Y-112004065D01*
X114175274Y-111994026D01*
X114365009Y-111941050D01*
X114370513Y-111938270D01*
X114535341Y-111855010D01*
X114535343Y-111855009D01*
X114540842Y-111852231D01*
X114696074Y-111730950D01*
X114700100Y-111726286D01*
X114700103Y-111726283D01*
X114820764Y-111586496D01*
X114820765Y-111586494D01*
X114824793Y-111581828D01*
X114922096Y-111410544D01*
X114984277Y-111223622D01*
X115008966Y-111028183D01*
X115009360Y-111000000D01*
X114990137Y-110803948D01*
X114933200Y-110615363D01*
X114903893Y-110560244D01*
X114843611Y-110446871D01*
X114843609Y-110446868D01*
X114840717Y-110441429D01*
X114716212Y-110288770D01*
X114650894Y-110234734D01*
X114569177Y-110167132D01*
X114569174Y-110167130D01*
X114564427Y-110163203D01*
X114391143Y-110069508D01*
X114202960Y-110011256D01*
X114196835Y-110010612D01*
X114196834Y-110010612D01*
X114013176Y-109991309D01*
X114013174Y-109991309D01*
X114007047Y-109990665D01*
X113925018Y-109998130D01*
X113817004Y-110007960D01*
X113817001Y-110007961D01*
X113810865Y-110008519D01*
X113804959Y-110010257D01*
X113804955Y-110010258D01*
X113664775Y-110051516D01*
X113621887Y-110064138D01*
X113616427Y-110066992D01*
X113616428Y-110066992D01*
X113452772Y-110152549D01*
X113452768Y-110152552D01*
X113447312Y-110155404D01*
X113293788Y-110278840D01*
X113167163Y-110429745D01*
X113072262Y-110602371D01*
X113070897Y-110601621D01*
X113030536Y-110650467D01*
X112959951Y-110672094D01*
X108806330Y-110672094D01*
X108738209Y-110652092D01*
X108724073Y-110641473D01*
X108718453Y-110634951D01*
X108603196Y-110560244D01*
X108471603Y-110520890D01*
X108462627Y-110520835D01*
X108462626Y-110520835D01*
X108405080Y-110520484D01*
X108334255Y-110520051D01*
X108202192Y-110557795D01*
X108194605Y-110562582D01*
X108194603Y-110562583D01*
X108132850Y-110601546D01*
X108086031Y-110631087D01*
X107995109Y-110734036D01*
X107936736Y-110858366D01*
X107935356Y-110867232D01*
X107916986Y-110985209D01*
X107916986Y-110985213D01*
X107915605Y-110994082D01*
X106677906Y-110994082D01*
X106677906Y-108244082D01*
X112153105Y-108244082D01*
X112154269Y-108252984D01*
X112154269Y-108252987D01*
X112156054Y-108266633D01*
X112170914Y-108380273D01*
X112226232Y-108505992D01*
X112232010Y-108512865D01*
X112232010Y-108512866D01*
X112289868Y-108581697D01*
X112314611Y-108611132D01*
X112428947Y-108687240D01*
X112560049Y-108728199D01*
X112697376Y-108730716D01*
X112706609Y-108728199D01*
X112821227Y-108696951D01*
X112829891Y-108694589D01*
X112946939Y-108622721D01*
X112987504Y-108577906D01*
X113033084Y-108527550D01*
X113033085Y-108527549D01*
X113039112Y-108520890D01*
X113060884Y-108475954D01*
X113095085Y-108405362D01*
X113095085Y-108405361D01*
X113098999Y-108397283D01*
X113121786Y-108261836D01*
X113121931Y-108250000D01*
X113121084Y-108244082D01*
X113103732Y-108122923D01*
X113103732Y-108122921D01*
X113102459Y-108114036D01*
X113045610Y-107989003D01*
X112955953Y-107884951D01*
X112840696Y-107810244D01*
X112709103Y-107770890D01*
X112700127Y-107770835D01*
X112700126Y-107770835D01*
X112642580Y-107770484D01*
X112571755Y-107770051D01*
X112439692Y-107807795D01*
X112432105Y-107812582D01*
X112432103Y-107812583D01*
X112411203Y-107825770D01*
X112323531Y-107881087D01*
X112232609Y-107984036D01*
X112174236Y-108108366D01*
X112167813Y-108149620D01*
X112154486Y-108235209D01*
X112154486Y-108235213D01*
X112153105Y-108244082D01*
X106677906Y-108244082D01*
X106677906Y-105494082D01*
X107915605Y-105494082D01*
X107916769Y-105502984D01*
X107916769Y-105502987D01*
X107920064Y-105528183D01*
X107933414Y-105630273D01*
X107937031Y-105638493D01*
X107982644Y-105742155D01*
X107988732Y-105755992D01*
X108077111Y-105861132D01*
X108191447Y-105937240D01*
X108322549Y-105978199D01*
X108459876Y-105980716D01*
X108469109Y-105978199D01*
X108583727Y-105946951D01*
X108592391Y-105944589D01*
X108709439Y-105872721D01*
X108715462Y-105866066D01*
X108722370Y-105860332D01*
X108724004Y-105862300D01*
X108773028Y-105832271D01*
X108805905Y-105827906D01*
X112962170Y-105827906D01*
X113030291Y-105847908D01*
X113074236Y-105896311D01*
X113151566Y-106046779D01*
X113155389Y-106051603D01*
X113155392Y-106051607D01*
X113183045Y-106086496D01*
X113273927Y-106201160D01*
X113278620Y-106205154D01*
X113278621Y-106205155D01*
X113303447Y-106226283D01*
X113423945Y-106328835D01*
X113429323Y-106331841D01*
X113429325Y-106331842D01*
X113459019Y-106348437D01*
X113595904Y-106424940D01*
X113783255Y-106485814D01*
X113978862Y-106509139D01*
X113984997Y-106508667D01*
X113984999Y-106508667D01*
X114044801Y-106504065D01*
X114175274Y-106494026D01*
X114365009Y-106441050D01*
X114370513Y-106438270D01*
X114535341Y-106355010D01*
X114535343Y-106355009D01*
X114540842Y-106352231D01*
X114696074Y-106230950D01*
X114700100Y-106226286D01*
X114700103Y-106226283D01*
X114820764Y-106086496D01*
X114820765Y-106086494D01*
X114824793Y-106081828D01*
X114922096Y-105910544D01*
X114984277Y-105723622D01*
X115008966Y-105528183D01*
X115009360Y-105500000D01*
X114990137Y-105303948D01*
X114933200Y-105115363D01*
X114903893Y-105060244D01*
X114843611Y-104946871D01*
X114843609Y-104946868D01*
X114840717Y-104941429D01*
X114716212Y-104788770D01*
X114614019Y-104704229D01*
X114569177Y-104667132D01*
X114569174Y-104667130D01*
X114564427Y-104663203D01*
X114391143Y-104569508D01*
X114202960Y-104511256D01*
X114196835Y-104510612D01*
X114196834Y-104510612D01*
X114013176Y-104491309D01*
X114013174Y-104491309D01*
X114007047Y-104490665D01*
X113925018Y-104498130D01*
X113817004Y-104507960D01*
X113817001Y-104507961D01*
X113810865Y-104508519D01*
X113804959Y-104510257D01*
X113804955Y-104510258D01*
X113664775Y-104551516D01*
X113621887Y-104564138D01*
X113616427Y-104566992D01*
X113616428Y-104566992D01*
X113452772Y-104652549D01*
X113452768Y-104652552D01*
X113447312Y-104655404D01*
X113293788Y-104778840D01*
X113167163Y-104929745D01*
X113072262Y-105102371D01*
X113070897Y-105101621D01*
X113030536Y-105150467D01*
X112959951Y-105172094D01*
X108806330Y-105172094D01*
X108738209Y-105152092D01*
X108724073Y-105141473D01*
X108718453Y-105134951D01*
X108603196Y-105060244D01*
X108471603Y-105020890D01*
X108462627Y-105020835D01*
X108462626Y-105020835D01*
X108405080Y-105020484D01*
X108334255Y-105020051D01*
X108202192Y-105057795D01*
X108194605Y-105062582D01*
X108194603Y-105062583D01*
X108132850Y-105101546D01*
X108086031Y-105131087D01*
X107995109Y-105234036D01*
X107936736Y-105358366D01*
X107935356Y-105367232D01*
X107916986Y-105485209D01*
X107916986Y-105485213D01*
X107915605Y-105494082D01*
X106677906Y-105494082D01*
X106677906Y-102744082D01*
X112153105Y-102744082D01*
X112154269Y-102752984D01*
X112154269Y-102752987D01*
X112156054Y-102766633D01*
X112170914Y-102880273D01*
X112226232Y-103005992D01*
X112232010Y-103012865D01*
X112232010Y-103012866D01*
X112260810Y-103047128D01*
X112314611Y-103111132D01*
X112428947Y-103187240D01*
X112560049Y-103228199D01*
X112697376Y-103230716D01*
X112706609Y-103228199D01*
X112821227Y-103196951D01*
X112829891Y-103194589D01*
X112913123Y-103143484D01*
X112939291Y-103127417D01*
X112946939Y-103122721D01*
X113015363Y-103047128D01*
X113033084Y-103027550D01*
X113033085Y-103027549D01*
X113039112Y-103020890D01*
X113053528Y-102991137D01*
X113095085Y-102905362D01*
X113095085Y-102905361D01*
X113098999Y-102897283D01*
X113121786Y-102761836D01*
X113121931Y-102750000D01*
X113121084Y-102744082D01*
X113103732Y-102622923D01*
X113103732Y-102622921D01*
X113102459Y-102614036D01*
X113045610Y-102489003D01*
X112955953Y-102384951D01*
X112840696Y-102310244D01*
X112709103Y-102270890D01*
X112700127Y-102270835D01*
X112700126Y-102270835D01*
X112642580Y-102270484D01*
X112571755Y-102270051D01*
X112439692Y-102307795D01*
X112432105Y-102312582D01*
X112432103Y-102312583D01*
X112370350Y-102351546D01*
X112323531Y-102381087D01*
X112232609Y-102484036D01*
X112174236Y-102608366D01*
X112164527Y-102670724D01*
X112154486Y-102735209D01*
X112154486Y-102735213D01*
X112153105Y-102744082D01*
X106677906Y-102744082D01*
X106677906Y-97313013D01*
X106697908Y-97244892D01*
X106714811Y-97223918D01*
X107171531Y-96767198D01*
X107233843Y-96733172D01*
X107262934Y-96730314D01*
X107275898Y-96730552D01*
X107275902Y-96730552D01*
X107284876Y-96730716D01*
X107293539Y-96728354D01*
X107293541Y-96728354D01*
X107408727Y-96696951D01*
X107417391Y-96694589D01*
X107534439Y-96622721D01*
X107540463Y-96616066D01*
X107620584Y-96527550D01*
X107620585Y-96527549D01*
X107626612Y-96520890D01*
X107647675Y-96477417D01*
X107682585Y-96405362D01*
X107682585Y-96405361D01*
X107686499Y-96397283D01*
X107709286Y-96261836D01*
X107709431Y-96250000D01*
X107708584Y-96244082D01*
X107691232Y-96122923D01*
X107691232Y-96122921D01*
X107689959Y-96114036D01*
X107680887Y-96094082D01*
X107636826Y-95997177D01*
X107633110Y-95989003D01*
X107543453Y-95884951D01*
X107428196Y-95810244D01*
X107296603Y-95770890D01*
X107287627Y-95770835D01*
X107287626Y-95770835D01*
X107230080Y-95770484D01*
X107159255Y-95770051D01*
X107027192Y-95807795D01*
X107019605Y-95812582D01*
X107019603Y-95812583D01*
X106985602Y-95834036D01*
X106911031Y-95881087D01*
X106820109Y-95984036D01*
X106816295Y-95992159D01*
X106816294Y-95992161D01*
X106813939Y-95997177D01*
X106761736Y-96108366D01*
X106744142Y-96221368D01*
X106742029Y-96234937D01*
X106711785Y-96299169D01*
X106706624Y-96304647D01*
X106132150Y-96879121D01*
X106124047Y-96886547D01*
X106094935Y-96910975D01*
X106089424Y-96920521D01*
X106075938Y-96943879D01*
X106070033Y-96953148D01*
X106060958Y-96966109D01*
X106048232Y-96984283D01*
X106045379Y-96994929D01*
X106043858Y-96998191D01*
X106042626Y-97001576D01*
X106037116Y-97011120D01*
X106035202Y-97021973D01*
X106035202Y-97021974D01*
X106030517Y-97048544D01*
X106028138Y-97059273D01*
X106021156Y-97085329D01*
X106021156Y-97085334D01*
X106018303Y-97095980D01*
X106019264Y-97106962D01*
X106021614Y-97133823D01*
X106022094Y-97144805D01*
X106022094Y-115844501D01*
X106002092Y-115912622D01*
X105948436Y-115959115D01*
X105896094Y-115970501D01*
X105824934Y-115970501D01*
X105789182Y-115977612D01*
X105762874Y-115982844D01*
X105762872Y-115982845D01*
X105750699Y-115985266D01*
X105740379Y-115992161D01*
X105740378Y-115992162D01*
X105695048Y-116022451D01*
X105666516Y-116041516D01*
X105610266Y-116125699D01*
X105595500Y-116199933D01*
X104564499Y-116199933D01*
X104557388Y-116164182D01*
X104552156Y-116137874D01*
X104552155Y-116137872D01*
X104549734Y-116125699D01*
X104493484Y-116041516D01*
X104409301Y-115985266D01*
X104335067Y-115970500D01*
X104263906Y-115970500D01*
X104195785Y-115950498D01*
X104149292Y-115896842D01*
X104137906Y-115844500D01*
X104137906Y-114829805D01*
X104138386Y-114818823D01*
X104140736Y-114791962D01*
X104141697Y-114780980D01*
X104138844Y-114770334D01*
X104138844Y-114770329D01*
X104131862Y-114744273D01*
X104129483Y-114733544D01*
X104124798Y-114706974D01*
X104124798Y-114706973D01*
X104122884Y-114696120D01*
X104117374Y-114686576D01*
X104116142Y-114683191D01*
X104114621Y-114679929D01*
X104111768Y-114669283D01*
X104089967Y-114638147D01*
X104084062Y-114628879D01*
X104070576Y-114605521D01*
X104065065Y-114595975D01*
X104035953Y-114571547D01*
X104027850Y-114564121D01*
X103817573Y-114353844D01*
X103783547Y-114291532D01*
X103781941Y-114282612D01*
X103766232Y-114172923D01*
X103766232Y-114172921D01*
X103764959Y-114164036D01*
X103708110Y-114039003D01*
X103618453Y-113934951D01*
X103503196Y-113860244D01*
X103371603Y-113820890D01*
X103362627Y-113820835D01*
X103362626Y-113820835D01*
X103305080Y-113820484D01*
X103234255Y-113820051D01*
X103102192Y-113857795D01*
X103094605Y-113862582D01*
X103094603Y-113862583D01*
X103058743Y-113885209D01*
X102986031Y-113931087D01*
X102980088Y-113937816D01*
X102911155Y-114015867D01*
X102895109Y-114034036D01*
X102891295Y-114042159D01*
X102891294Y-114042161D01*
X102863136Y-114102136D01*
X102836736Y-114158366D01*
X102832871Y-114183191D01*
X102816986Y-114285209D01*
X102816986Y-114285213D01*
X102815605Y-114294082D01*
X102816769Y-114302984D01*
X102816769Y-114302987D01*
X102822518Y-114346951D01*
X102833414Y-114430273D01*
X102888732Y-114555992D01*
X102894510Y-114562865D01*
X102894510Y-114562866D01*
X102954006Y-114633645D01*
X102977111Y-114661132D01*
X103091447Y-114737240D01*
X103187630Y-114767290D01*
X103197359Y-114770329D01*
X103222549Y-114778199D01*
X103265351Y-114778983D01*
X103333094Y-114800229D01*
X103352138Y-114815867D01*
X103445189Y-114908918D01*
X103479215Y-114971230D01*
X103482094Y-114998013D01*
X103482094Y-115844501D01*
X103462092Y-115912622D01*
X103408436Y-115959115D01*
X103356094Y-115970501D01*
X103284934Y-115970501D01*
X103249182Y-115977612D01*
X103222874Y-115982844D01*
X103222872Y-115982845D01*
X103210699Y-115985266D01*
X103200379Y-115992161D01*
X103200378Y-115992162D01*
X103155048Y-116022451D01*
X103126516Y-116041516D01*
X103070266Y-116125699D01*
X103055500Y-116199933D01*
X103055500Y-117188860D01*
X103035498Y-117256981D01*
X102981842Y-117303474D01*
X102911568Y-117313578D01*
X102846669Y-117283807D01*
X102844313Y-117281751D01*
X102838453Y-117274951D01*
X102723196Y-117200244D01*
X102591603Y-117160890D01*
X102582627Y-117160835D01*
X102582626Y-117160835D01*
X102525080Y-117160484D01*
X102454255Y-117160051D01*
X102322192Y-117197795D01*
X102314605Y-117202582D01*
X102314603Y-117202583D01*
X102217734Y-117263703D01*
X102149449Y-117283137D01*
X102081498Y-117262568D01*
X102035453Y-117208527D01*
X102024499Y-117157141D01*
X102024499Y-116199934D01*
X102017388Y-116164182D01*
X102012156Y-116137874D01*
X102012155Y-116137872D01*
X102009734Y-116125699D01*
X101953484Y-116041516D01*
X101869301Y-115985266D01*
X101795067Y-115970500D01*
X101723906Y-115970500D01*
X101655785Y-115950498D01*
X101609292Y-115896842D01*
X101597906Y-115844500D01*
X101597906Y-114289805D01*
X101598386Y-114278823D01*
X101600736Y-114251962D01*
X101601697Y-114240980D01*
X101598844Y-114230334D01*
X101598844Y-114230329D01*
X101591862Y-114204273D01*
X101589483Y-114193544D01*
X101584798Y-114166974D01*
X101584798Y-114166973D01*
X101582884Y-114156120D01*
X101577373Y-114146574D01*
X101576145Y-114143201D01*
X101574623Y-114139936D01*
X101571768Y-114129283D01*
X101549960Y-114098137D01*
X101544068Y-114088889D01*
X101525065Y-114055975D01*
X101495972Y-114031563D01*
X101487868Y-114024137D01*
X101417573Y-113953842D01*
X101383547Y-113891530D01*
X101381941Y-113882610D01*
X101366232Y-113772923D01*
X101366232Y-113772921D01*
X101364959Y-113764036D01*
X101308110Y-113639003D01*
X101218453Y-113534951D01*
X101103196Y-113460244D01*
X100971603Y-113420890D01*
X100962627Y-113420835D01*
X100962626Y-113420835D01*
X100905080Y-113420484D01*
X100834255Y-113420051D01*
X100702192Y-113457795D01*
X100641991Y-113495779D01*
X100621141Y-113508934D01*
X100552856Y-113528368D01*
X100484904Y-113507799D01*
X100438860Y-113453757D01*
X100427906Y-113402372D01*
X100427906Y-113388013D01*
X100447908Y-113319892D01*
X100464811Y-113298918D01*
X100546531Y-113217198D01*
X100608843Y-113183172D01*
X100637934Y-113180314D01*
X100650898Y-113180552D01*
X100650902Y-113180552D01*
X100659876Y-113180716D01*
X100668539Y-113178354D01*
X100668541Y-113178354D01*
X100783727Y-113146951D01*
X100792391Y-113144589D01*
X100909439Y-113072721D01*
X100916315Y-113065125D01*
X100995584Y-112977550D01*
X100995585Y-112977549D01*
X101001612Y-112970890D01*
X101017637Y-112937816D01*
X101057585Y-112855362D01*
X101057585Y-112855361D01*
X101061499Y-112847283D01*
X101084286Y-112711836D01*
X101084431Y-112700000D01*
X101083584Y-112694082D01*
X101066232Y-112572923D01*
X101066232Y-112572921D01*
X101064959Y-112564036D01*
X101008110Y-112439003D01*
X100918453Y-112334951D01*
X100803196Y-112260244D01*
X100671603Y-112220890D01*
X100662627Y-112220835D01*
X100662626Y-112220835D01*
X100605080Y-112220484D01*
X100534255Y-112220051D01*
X100402192Y-112257795D01*
X100394605Y-112262582D01*
X100394603Y-112262583D01*
X100332850Y-112301546D01*
X100286031Y-112331087D01*
X100195109Y-112434036D01*
X100136736Y-112558366D01*
X100117749Y-112680314D01*
X100117029Y-112684937D01*
X100086785Y-112749169D01*
X100081624Y-112754647D01*
X99882150Y-112954121D01*
X99874047Y-112961547D01*
X99844935Y-112985975D01*
X99839424Y-112995521D01*
X99825938Y-113018879D01*
X99820033Y-113028147D01*
X99798232Y-113059283D01*
X99795379Y-113069929D01*
X99793858Y-113073191D01*
X99792626Y-113076576D01*
X99787116Y-113086120D01*
X99785202Y-113096973D01*
X99785202Y-113096974D01*
X99780517Y-113123544D01*
X99778138Y-113134273D01*
X99771156Y-113160329D01*
X99771156Y-113160334D01*
X99768303Y-113170980D01*
X99769264Y-113181962D01*
X99771614Y-113208823D01*
X99772094Y-113219805D01*
X99772094Y-119949487D01*
X99752092Y-120017608D01*
X99735189Y-120038582D01*
X98202947Y-121570824D01*
X98140635Y-121604850D01*
X98113083Y-121607727D01*
X98100778Y-121607652D01*
X98084255Y-121607551D01*
X97952192Y-121645295D01*
X97944605Y-121650082D01*
X97944603Y-121650083D01*
X97882850Y-121689046D01*
X97836031Y-121718587D01*
X97745109Y-121821536D01*
X97741295Y-121829659D01*
X97741294Y-121829661D01*
X97727817Y-121858366D01*
X97686736Y-121945866D01*
X97680610Y-121985209D01*
X97666986Y-122072709D01*
X97666986Y-122072713D01*
X97665605Y-122081582D01*
X96883584Y-122081582D01*
X96866232Y-121960423D01*
X96866232Y-121960421D01*
X96864959Y-121951536D01*
X96808110Y-121826503D01*
X96718453Y-121722451D01*
X96603196Y-121647744D01*
X96471603Y-121608390D01*
X96462627Y-121608335D01*
X96462626Y-121608335D01*
X96435821Y-121608171D01*
X96367824Y-121587752D01*
X96347497Y-121571268D01*
X95314811Y-120538582D01*
X95280785Y-120476270D01*
X95277906Y-120449487D01*
X95277906Y-117634082D01*
X96925605Y-117634082D01*
X96926769Y-117642984D01*
X96926769Y-117642987D01*
X96934510Y-117702178D01*
X96943414Y-117770273D01*
X96998732Y-117895992D01*
X97004510Y-117902865D01*
X97004510Y-117902866D01*
X97011255Y-117910890D01*
X97087111Y-118001132D01*
X97094588Y-118006109D01*
X97181422Y-118063910D01*
X97201447Y-118077240D01*
X97332549Y-118118199D01*
X97469876Y-118120716D01*
X97479109Y-118118199D01*
X97593727Y-118086951D01*
X97602391Y-118084589D01*
X97719439Y-118012721D01*
X97756086Y-117972234D01*
X97816629Y-117935152D01*
X97887609Y-117936690D01*
X97946490Y-117976358D01*
X97974578Y-118041562D01*
X97975501Y-118056785D01*
X97975501Y-118750066D01*
X97990266Y-118824301D01*
X98046516Y-118908484D01*
X98130699Y-118964734D01*
X98204933Y-118979500D01*
X98729915Y-118979500D01*
X99255066Y-118979499D01*
X99290818Y-118972388D01*
X99317126Y-118967156D01*
X99317128Y-118967155D01*
X99329301Y-118964734D01*
X99339621Y-118957839D01*
X99339622Y-118957838D01*
X99403168Y-118915377D01*
X99413484Y-118908484D01*
X99469734Y-118824301D01*
X99484500Y-118750067D01*
X99484499Y-116199934D01*
X99477388Y-116164182D01*
X99472156Y-116137874D01*
X99472155Y-116137872D01*
X99469734Y-116125699D01*
X99413484Y-116041516D01*
X99329301Y-115985266D01*
X99255067Y-115970500D01*
X99183906Y-115970500D01*
X99115785Y-115950498D01*
X99069292Y-115896842D01*
X99057906Y-115844500D01*
X99057906Y-113949805D01*
X99058386Y-113938823D01*
X99060736Y-113911962D01*
X99061697Y-113900980D01*
X99058844Y-113890334D01*
X99058844Y-113890329D01*
X99051862Y-113864273D01*
X99049483Y-113853544D01*
X99044798Y-113826974D01*
X99044798Y-113826973D01*
X99042884Y-113816120D01*
X99037374Y-113806576D01*
X99036142Y-113803191D01*
X99034621Y-113799929D01*
X99031768Y-113789283D01*
X99024116Y-113778354D01*
X99009967Y-113758148D01*
X99004062Y-113748879D01*
X98990576Y-113725521D01*
X98985065Y-113715975D01*
X98955953Y-113691547D01*
X98947850Y-113684121D01*
X98817573Y-113553844D01*
X98783547Y-113491532D01*
X98781941Y-113482612D01*
X98766232Y-113372923D01*
X98766232Y-113372921D01*
X98764959Y-113364036D01*
X98708110Y-113239003D01*
X98618453Y-113134951D01*
X98503196Y-113060244D01*
X98371603Y-113020890D01*
X98362627Y-113020835D01*
X98362626Y-113020835D01*
X98305080Y-113020484D01*
X98234255Y-113020051D01*
X98102192Y-113057795D01*
X98094605Y-113062582D01*
X98094603Y-113062583D01*
X98040097Y-113096974D01*
X97986031Y-113131087D01*
X97980088Y-113137816D01*
X97976611Y-113141753D01*
X97895109Y-113234036D01*
X97891295Y-113242159D01*
X97891294Y-113242161D01*
X97874398Y-113278148D01*
X97836736Y-113358366D01*
X97832120Y-113388013D01*
X97816986Y-113485209D01*
X97816986Y-113485213D01*
X97815605Y-113494082D01*
X97816769Y-113502984D01*
X97816769Y-113502987D01*
X97820949Y-113534951D01*
X97833414Y-113630273D01*
X97840852Y-113647177D01*
X97883715Y-113744589D01*
X97888732Y-113755992D01*
X97894510Y-113762865D01*
X97894510Y-113762866D01*
X97942579Y-113820051D01*
X97977111Y-113861132D01*
X98026611Y-113894082D01*
X98080981Y-113930273D01*
X98091447Y-113937240D01*
X98222549Y-113978199D01*
X98265351Y-113978983D01*
X98333094Y-114000229D01*
X98352138Y-114015867D01*
X98365189Y-114028918D01*
X98399215Y-114091230D01*
X98402094Y-114118013D01*
X98402094Y-115844501D01*
X98382092Y-115912622D01*
X98328436Y-115959115D01*
X98276094Y-115970501D01*
X98204934Y-115970501D01*
X98169182Y-115977612D01*
X98142874Y-115982844D01*
X98142872Y-115982845D01*
X98130699Y-115985266D01*
X98120379Y-115992161D01*
X98120378Y-115992162D01*
X98075048Y-116022451D01*
X98046516Y-116041516D01*
X97990266Y-116125699D01*
X97975500Y-116199933D01*
X97975500Y-117222407D01*
X97955498Y-117290528D01*
X97901842Y-117337021D01*
X97831568Y-117347125D01*
X97766988Y-117317631D01*
X97754052Y-117304660D01*
X97728453Y-117274951D01*
X97613196Y-117200244D01*
X97481603Y-117160890D01*
X97472627Y-117160835D01*
X97472626Y-117160835D01*
X97415080Y-117160484D01*
X97344255Y-117160051D01*
X97212192Y-117197795D01*
X97204605Y-117202582D01*
X97204603Y-117202583D01*
X97191536Y-117210828D01*
X97096031Y-117271087D01*
X97005109Y-117374036D01*
X97001295Y-117382159D01*
X97001294Y-117382161D01*
X96977055Y-117433789D01*
X96946736Y-117498366D01*
X96945356Y-117507232D01*
X96926986Y-117625209D01*
X96926986Y-117625213D01*
X96925605Y-117634082D01*
X95277906Y-117634082D01*
X95277906Y-113638013D01*
X95297908Y-113569892D01*
X95314811Y-113548918D01*
X96146531Y-112717198D01*
X96208843Y-112683172D01*
X96237934Y-112680314D01*
X96250898Y-112680552D01*
X96250902Y-112680552D01*
X96259876Y-112680716D01*
X96268539Y-112678354D01*
X96268541Y-112678354D01*
X96383727Y-112646951D01*
X96392391Y-112644589D01*
X96509439Y-112572721D01*
X96522433Y-112558366D01*
X96595584Y-112477550D01*
X96595585Y-112477549D01*
X96601612Y-112470890D01*
X96622728Y-112427308D01*
X96657585Y-112355362D01*
X96657585Y-112355361D01*
X96661499Y-112347283D01*
X96684286Y-112211836D01*
X96684431Y-112200000D01*
X96683584Y-112194082D01*
X96666232Y-112072923D01*
X96666232Y-112072921D01*
X96664959Y-112064036D01*
X96608110Y-111939003D01*
X96518453Y-111834951D01*
X96403196Y-111760244D01*
X96271603Y-111720890D01*
X96262627Y-111720835D01*
X96262626Y-111720835D01*
X96205080Y-111720484D01*
X96134255Y-111720051D01*
X96002192Y-111757795D01*
X95994605Y-111762582D01*
X95994603Y-111762583D01*
X95932850Y-111801546D01*
X95886031Y-111831087D01*
X95795109Y-111934036D01*
X95791295Y-111942159D01*
X95791294Y-111942161D01*
X95781601Y-111962806D01*
X95736736Y-112058366D01*
X95717712Y-112180551D01*
X95717029Y-112184937D01*
X95686785Y-112249169D01*
X95681624Y-112254647D01*
X94732150Y-113204121D01*
X94724047Y-113211547D01*
X94694935Y-113235975D01*
X94675938Y-113268879D01*
X94670033Y-113278148D01*
X94655490Y-113298918D01*
X94648232Y-113309283D01*
X94645379Y-113319929D01*
X94643858Y-113323191D01*
X94642626Y-113326576D01*
X94637116Y-113336120D01*
X94635202Y-113346973D01*
X94635202Y-113346974D01*
X94630517Y-113373544D01*
X94628138Y-113384273D01*
X94621156Y-113410329D01*
X94621156Y-113410334D01*
X94618303Y-113420980D01*
X94620604Y-113447283D01*
X94621614Y-113458823D01*
X94622094Y-113469805D01*
X94622094Y-116059548D01*
X94602092Y-116127669D01*
X94548436Y-116174162D01*
X94478162Y-116184266D01*
X94413582Y-116154772D01*
X94391680Y-116124399D01*
X94389734Y-116125699D01*
X94340377Y-116051832D01*
X94333484Y-116041516D01*
X94249301Y-115985266D01*
X94175067Y-115970500D01*
X94103906Y-115970500D01*
X94035785Y-115950498D01*
X93989292Y-115896842D01*
X93977906Y-115844500D01*
X93977906Y-114369805D01*
X93978386Y-114358823D01*
X93980040Y-114339917D01*
X93981697Y-114320980D01*
X93978844Y-114310334D01*
X93978844Y-114310329D01*
X93971862Y-114284273D01*
X93969483Y-114273544D01*
X93964798Y-114246974D01*
X93964798Y-114246973D01*
X93962884Y-114236120D01*
X93957373Y-114226574D01*
X93956145Y-114223201D01*
X93954623Y-114219936D01*
X93951768Y-114209283D01*
X93929960Y-114178137D01*
X93924069Y-114168891D01*
X93905065Y-114135975D01*
X93875953Y-114111547D01*
X93867862Y-114104132D01*
X93445877Y-113682147D01*
X93438452Y-113674045D01*
X93421109Y-113653377D01*
X93414025Y-113644935D01*
X93381116Y-113625935D01*
X93371852Y-113620033D01*
X93349746Y-113604554D01*
X93349745Y-113604554D01*
X93340717Y-113598232D01*
X93330071Y-113595379D01*
X93326809Y-113593858D01*
X93323424Y-113592626D01*
X93313880Y-113587116D01*
X93303027Y-113585202D01*
X93303026Y-113585202D01*
X93276456Y-113580517D01*
X93265727Y-113578138D01*
X93239671Y-113571156D01*
X93239666Y-113571156D01*
X93229020Y-113568303D01*
X93218036Y-113569264D01*
X93218035Y-113569264D01*
X93191177Y-113571614D01*
X93180195Y-113572094D01*
X93106330Y-113572094D01*
X93038209Y-113552092D01*
X93024073Y-113541473D01*
X93018453Y-113534951D01*
X92903196Y-113460244D01*
X92771603Y-113420890D01*
X92762627Y-113420835D01*
X92762626Y-113420835D01*
X92705080Y-113420484D01*
X92634255Y-113420051D01*
X92502192Y-113457795D01*
X92494605Y-113462582D01*
X92494603Y-113462583D01*
X92483157Y-113469805D01*
X92386031Y-113531087D01*
X92380088Y-113537816D01*
X92336548Y-113587116D01*
X92295109Y-113634036D01*
X92291295Y-113642159D01*
X92291294Y-113642161D01*
X92274349Y-113678253D01*
X92236736Y-113758366D01*
X92233328Y-113780254D01*
X92216986Y-113885209D01*
X92216986Y-113885213D01*
X92215605Y-113894082D01*
X92216769Y-113902984D01*
X92216769Y-113902987D01*
X92224509Y-113962177D01*
X92233414Y-114030273D01*
X92288732Y-114155992D01*
X92294510Y-114162865D01*
X92294510Y-114162866D01*
X92365210Y-114246974D01*
X92377111Y-114261132D01*
X92423724Y-114292160D01*
X92480278Y-114329805D01*
X92491447Y-114337240D01*
X92622549Y-114378199D01*
X92759876Y-114380716D01*
X92769109Y-114378199D01*
X92883727Y-114346951D01*
X92892391Y-114344589D01*
X92912463Y-114332265D01*
X92986397Y-114286870D01*
X93054914Y-114268272D01*
X93122609Y-114289669D01*
X93141419Y-114305149D01*
X93285190Y-114448920D01*
X93319215Y-114511232D01*
X93322094Y-114538015D01*
X93322094Y-115844501D01*
X93302092Y-115912622D01*
X93248436Y-115959115D01*
X93196094Y-115970501D01*
X93124934Y-115970501D01*
X93089182Y-115977612D01*
X93062874Y-115982844D01*
X93062872Y-115982845D01*
X93050699Y-115985266D01*
X93040379Y-115992161D01*
X93040378Y-115992162D01*
X92995048Y-116022451D01*
X92966516Y-116041516D01*
X92910266Y-116125699D01*
X92895500Y-116199933D01*
X92895500Y-117319175D01*
X92875498Y-117387296D01*
X92821842Y-117433789D01*
X92751568Y-117443893D01*
X92686988Y-117414399D01*
X92663351Y-117387060D01*
X92661825Y-117384674D01*
X92658110Y-117376503D01*
X92568453Y-117272451D01*
X92453196Y-117197744D01*
X92321603Y-117158390D01*
X92312627Y-117158335D01*
X92312626Y-117158335D01*
X92255080Y-117157984D01*
X92184255Y-117157551D01*
X92052192Y-117195295D01*
X92044602Y-117200084D01*
X92041948Y-117201271D01*
X91971598Y-117210828D01*
X91907248Y-117180834D01*
X91869330Y-117120811D01*
X91864499Y-117086254D01*
X91864499Y-116199934D01*
X91857388Y-116164182D01*
X91852156Y-116137874D01*
X91852155Y-116137872D01*
X91849734Y-116125699D01*
X91793484Y-116041516D01*
X91709301Y-115985266D01*
X91635067Y-115970500D01*
X91563906Y-115970500D01*
X91495785Y-115950498D01*
X91449292Y-115896842D01*
X91437906Y-115844500D01*
X91437906Y-114329805D01*
X91438386Y-114318823D01*
X91439582Y-114305150D01*
X91441697Y-114280980D01*
X91438844Y-114270334D01*
X91438844Y-114270329D01*
X91431862Y-114244273D01*
X91429483Y-114233544D01*
X91424798Y-114206974D01*
X91424798Y-114206973D01*
X91422884Y-114196120D01*
X91417374Y-114186576D01*
X91416142Y-114183191D01*
X91414621Y-114179929D01*
X91411768Y-114169283D01*
X91389967Y-114138147D01*
X91384062Y-114128879D01*
X91379082Y-114120253D01*
X91365065Y-114095975D01*
X91335953Y-114071547D01*
X91327850Y-114064121D01*
X91117573Y-113853844D01*
X91083547Y-113791532D01*
X91081941Y-113782612D01*
X91066232Y-113672923D01*
X91066232Y-113672921D01*
X91064959Y-113664036D01*
X91008110Y-113539003D01*
X90918453Y-113434951D01*
X90803196Y-113360244D01*
X90671603Y-113320890D01*
X90662627Y-113320835D01*
X90662626Y-113320835D01*
X90605080Y-113320484D01*
X90534255Y-113320051D01*
X90402192Y-113357795D01*
X90394605Y-113362582D01*
X90394603Y-113362583D01*
X90377231Y-113373544D01*
X90286031Y-113431087D01*
X90280088Y-113437816D01*
X90258214Y-113462584D01*
X90195109Y-113534036D01*
X90191295Y-113542159D01*
X90191294Y-113542161D01*
X90166749Y-113594440D01*
X90136736Y-113658366D01*
X90131570Y-113691548D01*
X90116986Y-113785209D01*
X90116986Y-113785213D01*
X90115605Y-113794082D01*
X84254000Y-113794082D01*
X84254000Y-113294082D01*
X86878105Y-113294082D01*
X86879269Y-113302984D01*
X86879269Y-113302987D01*
X86881823Y-113322518D01*
X86895914Y-113430273D01*
X86951232Y-113555992D01*
X86957010Y-113562865D01*
X86957010Y-113562866D01*
X87020581Y-113638493D01*
X87039611Y-113661132D01*
X87153947Y-113737240D01*
X87235971Y-113762866D01*
X87268162Y-113772923D01*
X87285049Y-113778199D01*
X87422376Y-113780716D01*
X87431609Y-113778199D01*
X87488634Y-113762652D01*
X87554891Y-113744589D01*
X87671939Y-113672721D01*
X87684933Y-113658366D01*
X87758084Y-113577550D01*
X87758085Y-113577549D01*
X87764112Y-113570890D01*
X87774758Y-113548918D01*
X87820085Y-113455362D01*
X87820085Y-113455361D01*
X87823999Y-113447283D01*
X87846786Y-113311836D01*
X87846931Y-113300000D01*
X87846084Y-113294082D01*
X87828732Y-113172923D01*
X87828732Y-113172921D01*
X87827459Y-113164036D01*
X87770610Y-113039003D01*
X87680953Y-112934951D01*
X87565696Y-112860244D01*
X87434103Y-112820890D01*
X87425127Y-112820835D01*
X87425126Y-112820835D01*
X87367580Y-112820484D01*
X87296755Y-112820051D01*
X87164692Y-112857795D01*
X87157105Y-112862582D01*
X87157103Y-112862583D01*
X87095350Y-112901546D01*
X87048531Y-112931087D01*
X87042588Y-112937816D01*
X87013378Y-112970890D01*
X86957609Y-113034036D01*
X86953795Y-113042159D01*
X86953794Y-113042161D01*
X86928060Y-113096974D01*
X86899236Y-113158366D01*
X86895819Y-113180314D01*
X86879486Y-113285209D01*
X86879486Y-113285213D01*
X86878105Y-113294082D01*
X84254000Y-113294082D01*
X84254000Y-111694082D01*
X86878105Y-111694082D01*
X86879269Y-111702984D01*
X86879269Y-111702987D01*
X86882926Y-111730950D01*
X86895914Y-111830273D01*
X86951232Y-111955992D01*
X86957010Y-111962865D01*
X86957010Y-111962866D01*
X87030458Y-112050243D01*
X87039611Y-112061132D01*
X87153947Y-112137240D01*
X87285049Y-112178199D01*
X87422376Y-112180716D01*
X87431609Y-112178199D01*
X87546227Y-112146951D01*
X87554891Y-112144589D01*
X87671939Y-112072721D01*
X87684933Y-112058366D01*
X87758084Y-111977550D01*
X87758085Y-111977549D01*
X87764112Y-111970890D01*
X87778570Y-111941050D01*
X87820085Y-111855362D01*
X87820085Y-111855361D01*
X87823999Y-111847283D01*
X87846786Y-111711836D01*
X87846931Y-111700000D01*
X87846084Y-111694082D01*
X87828732Y-111572923D01*
X87828732Y-111572921D01*
X87827459Y-111564036D01*
X87817123Y-111541302D01*
X87813701Y-111533776D01*
X87770610Y-111439003D01*
X87680953Y-111334951D01*
X87565696Y-111260244D01*
X87434103Y-111220890D01*
X87425127Y-111220835D01*
X87425126Y-111220835D01*
X87367580Y-111220484D01*
X87296755Y-111220051D01*
X87164692Y-111257795D01*
X87157105Y-111262582D01*
X87157103Y-111262583D01*
X87095350Y-111301546D01*
X87048531Y-111331087D01*
X87042588Y-111337816D01*
X87021996Y-111361132D01*
X86957609Y-111434036D01*
X86899236Y-111558366D01*
X86896418Y-111576468D01*
X86879486Y-111685209D01*
X86879486Y-111685213D01*
X86878105Y-111694082D01*
X84254000Y-111694082D01*
X84254000Y-103294082D01*
X86878105Y-103294082D01*
X86879269Y-103302984D01*
X86879269Y-103302987D01*
X86881054Y-103316633D01*
X86895914Y-103430273D01*
X86951232Y-103555992D01*
X87039611Y-103661132D01*
X87047088Y-103666109D01*
X87136880Y-103725879D01*
X87153947Y-103737240D01*
X87285049Y-103778199D01*
X87422376Y-103780716D01*
X87431609Y-103778199D01*
X87546227Y-103746951D01*
X87554891Y-103744589D01*
X87671939Y-103672721D01*
X87731820Y-103606566D01*
X87758084Y-103577550D01*
X87758085Y-103577549D01*
X87764112Y-103570890D01*
X87771106Y-103556456D01*
X87820085Y-103455362D01*
X87820085Y-103455361D01*
X87823999Y-103447283D01*
X87846786Y-103311836D01*
X87846931Y-103300000D01*
X87846084Y-103294082D01*
X87828732Y-103172923D01*
X87828732Y-103172921D01*
X87827459Y-103164036D01*
X87770610Y-103039003D01*
X87680953Y-102934951D01*
X87565696Y-102860244D01*
X87434103Y-102820890D01*
X87425127Y-102820835D01*
X87425126Y-102820835D01*
X87367580Y-102820484D01*
X87296755Y-102820051D01*
X87164692Y-102857795D01*
X87157105Y-102862582D01*
X87157103Y-102862583D01*
X87102107Y-102897283D01*
X87048531Y-102931087D01*
X86957609Y-103034036D01*
X86899236Y-103158366D01*
X86892795Y-103199734D01*
X86879486Y-103285209D01*
X86879486Y-103285213D01*
X86878105Y-103294082D01*
X84254000Y-103294082D01*
X84254000Y-98744082D01*
X86878105Y-98744082D01*
X86879269Y-98752984D01*
X86879269Y-98752987D01*
X86881054Y-98766633D01*
X86895914Y-98880273D01*
X86951232Y-99005992D01*
X86957010Y-99012865D01*
X86957010Y-99012866D01*
X87033831Y-99104256D01*
X87039611Y-99111132D01*
X87047088Y-99116109D01*
X87123104Y-99166709D01*
X87153947Y-99187240D01*
X87285049Y-99228199D01*
X87422376Y-99230716D01*
X87431609Y-99228199D01*
X87546227Y-99196951D01*
X87554891Y-99194589D01*
X87671939Y-99122721D01*
X87697053Y-99094976D01*
X87758084Y-99027550D01*
X87758085Y-99027549D01*
X87764112Y-99020890D01*
X87823999Y-98897283D01*
X87846786Y-98761836D01*
X87846931Y-98750000D01*
X87846084Y-98744082D01*
X87828732Y-98622923D01*
X87828732Y-98622921D01*
X87827459Y-98614036D01*
X87770610Y-98489003D01*
X87680953Y-98384951D01*
X87565696Y-98310244D01*
X87434103Y-98270890D01*
X87425127Y-98270835D01*
X87425126Y-98270835D01*
X87367580Y-98270484D01*
X87296755Y-98270051D01*
X87164692Y-98307795D01*
X87157105Y-98312582D01*
X87157103Y-98312583D01*
X87095350Y-98351546D01*
X87048531Y-98381087D01*
X86957609Y-98484036D01*
X86899236Y-98608366D01*
X86889527Y-98670724D01*
X86879486Y-98735209D01*
X86879486Y-98735213D01*
X86878105Y-98744082D01*
X84254000Y-98744082D01*
X84254000Y-94694082D01*
X85515605Y-94694082D01*
X85516769Y-94702984D01*
X85516769Y-94702987D01*
X85524509Y-94762177D01*
X85533414Y-94830273D01*
X85588732Y-94955992D01*
X85594510Y-94962865D01*
X85594510Y-94962866D01*
X85626508Y-95000932D01*
X85677111Y-95061132D01*
X85791447Y-95137240D01*
X85922549Y-95178199D01*
X86059876Y-95180716D01*
X86069109Y-95178199D01*
X86183727Y-95146951D01*
X86192391Y-95144589D01*
X86286397Y-95086869D01*
X86354913Y-95068271D01*
X86422609Y-95089668D01*
X86441420Y-95105149D01*
X91335189Y-99998918D01*
X91369215Y-100061230D01*
X91372094Y-100088013D01*
X91372094Y-107849193D01*
X91352092Y-107917314D01*
X91340535Y-107932601D01*
X91295109Y-107984036D01*
X91236736Y-108108366D01*
X91230313Y-108149620D01*
X91216986Y-108235209D01*
X91216986Y-108235213D01*
X91215605Y-108244082D01*
X91216769Y-108252984D01*
X91216769Y-108252987D01*
X91218554Y-108266633D01*
X91233414Y-108380273D01*
X91288732Y-108505992D01*
X91294510Y-108512865D01*
X91294510Y-108512866D01*
X91352368Y-108581697D01*
X91377111Y-108611132D01*
X91491447Y-108687240D01*
X91622549Y-108728199D01*
X91759876Y-108730716D01*
X91769109Y-108728199D01*
X91883727Y-108696951D01*
X91892391Y-108694589D01*
X92009439Y-108622721D01*
X92015462Y-108616066D01*
X92022370Y-108610332D01*
X92024004Y-108612300D01*
X92073028Y-108582271D01*
X92105905Y-108577906D01*
X95040195Y-108577906D01*
X95051177Y-108578386D01*
X95078035Y-108580736D01*
X95078036Y-108580736D01*
X95089020Y-108581697D01*
X95099666Y-108578844D01*
X95099671Y-108578844D01*
X95125727Y-108571862D01*
X95136456Y-108569483D01*
X95163026Y-108564798D01*
X95163027Y-108564798D01*
X95173880Y-108562884D01*
X95183424Y-108557374D01*
X95186809Y-108556142D01*
X95190071Y-108554621D01*
X95200717Y-108551768D01*
X95231853Y-108529967D01*
X95241116Y-108524065D01*
X95274025Y-108505065D01*
X95298453Y-108475953D01*
X95305879Y-108467850D01*
X95442324Y-108331405D01*
X95504636Y-108297379D01*
X95531419Y-108294500D01*
X97554024Y-108294499D01*
X97800066Y-108294499D01*
X97835818Y-108287388D01*
X97862126Y-108282156D01*
X97862128Y-108282155D01*
X97874301Y-108279734D01*
X97884621Y-108272839D01*
X97884622Y-108272838D01*
X97948168Y-108230377D01*
X97958484Y-108223484D01*
X98014734Y-108139301D01*
X98029500Y-108065067D01*
X98029499Y-107014934D01*
X98014734Y-106940699D01*
X97958484Y-106856516D01*
X97874301Y-106800266D01*
X97800067Y-106785500D01*
X96525207Y-106785500D01*
X95249934Y-106785501D01*
X95214182Y-106792612D01*
X95187874Y-106797844D01*
X95187872Y-106797845D01*
X95175699Y-106800266D01*
X95165379Y-106807161D01*
X95165378Y-106807162D01*
X95104985Y-106847516D01*
X95091516Y-106856516D01*
X95035266Y-106940699D01*
X95020500Y-107014933D01*
X95020500Y-107021120D01*
X95020501Y-107773580D01*
X95000499Y-107841701D01*
X94983596Y-107862675D01*
X94961082Y-107885189D01*
X94898770Y-107919215D01*
X94871987Y-107922094D01*
X92153906Y-107922094D01*
X92085785Y-107902092D01*
X92039292Y-107848436D01*
X92027906Y-107796094D01*
X92027906Y-99919820D01*
X92028385Y-99908839D01*
X92030737Y-99881957D01*
X92030737Y-99881956D01*
X92031697Y-99870981D01*
X92028845Y-99860339D01*
X92028845Y-99860334D01*
X92021862Y-99834275D01*
X92019482Y-99823541D01*
X92014798Y-99796977D01*
X92012884Y-99786120D01*
X92007372Y-99776573D01*
X92006140Y-99773187D01*
X92004621Y-99769929D01*
X92001768Y-99759283D01*
X91979967Y-99728147D01*
X91974062Y-99718879D01*
X91960576Y-99695521D01*
X91955065Y-99685975D01*
X91925953Y-99661547D01*
X91917850Y-99654121D01*
X86745879Y-94482150D01*
X86738452Y-94474046D01*
X86721111Y-94453380D01*
X86714025Y-94444935D01*
X86681116Y-94425935D01*
X86671852Y-94420033D01*
X86649746Y-94404554D01*
X86649745Y-94404554D01*
X86640717Y-94398232D01*
X86630071Y-94395379D01*
X86626809Y-94393858D01*
X86623424Y-94392626D01*
X86613880Y-94387116D01*
X86603027Y-94385202D01*
X86603026Y-94385202D01*
X86576456Y-94380517D01*
X86565727Y-94378138D01*
X86539671Y-94371156D01*
X86539666Y-94371156D01*
X86529020Y-94368303D01*
X86518036Y-94369264D01*
X86518035Y-94369264D01*
X86491177Y-94371614D01*
X86480195Y-94372094D01*
X86406330Y-94372094D01*
X86338209Y-94352092D01*
X86324073Y-94341473D01*
X86318453Y-94334951D01*
X86203196Y-94260244D01*
X86071603Y-94220890D01*
X86062627Y-94220835D01*
X86062626Y-94220835D01*
X86005080Y-94220484D01*
X85934255Y-94220051D01*
X85802192Y-94257795D01*
X85794605Y-94262582D01*
X85794603Y-94262583D01*
X85775749Y-94274479D01*
X85686031Y-94331087D01*
X85680088Y-94337816D01*
X85649815Y-94372094D01*
X85595109Y-94434036D01*
X85591295Y-94442159D01*
X85591294Y-94442161D01*
X85563136Y-94502136D01*
X85536736Y-94558366D01*
X85531079Y-94594700D01*
X85516986Y-94685209D01*
X85516986Y-94685213D01*
X85515605Y-94694082D01*
X84254000Y-94694082D01*
X84254000Y-91249933D01*
X87815500Y-91249933D01*
X87815501Y-93800066D01*
X87820022Y-93822796D01*
X87827668Y-93861237D01*
X87830266Y-93874301D01*
X87886516Y-93958484D01*
X87970699Y-94014734D01*
X88044933Y-94029500D01*
X88122992Y-94029500D01*
X88191113Y-94049502D01*
X88237606Y-94103158D01*
X88244700Y-94122895D01*
X88248139Y-94135732D01*
X88250517Y-94146456D01*
X88257116Y-94183880D01*
X88262626Y-94193424D01*
X88263858Y-94196809D01*
X88265379Y-94200071D01*
X88268232Y-94210717D01*
X88274554Y-94219745D01*
X88274554Y-94219746D01*
X88290033Y-94241852D01*
X88295935Y-94251116D01*
X88314935Y-94284025D01*
X88337533Y-94302987D01*
X88344046Y-94308452D01*
X88352150Y-94315879D01*
X90883099Y-96846828D01*
X90917125Y-96909140D01*
X90918940Y-96919586D01*
X90933414Y-97030273D01*
X90943837Y-97053960D01*
X90983810Y-97144805D01*
X90988732Y-97155992D01*
X90994510Y-97162865D01*
X90994510Y-97162866D01*
X91054109Y-97233768D01*
X91077111Y-97261132D01*
X91191447Y-97337240D01*
X91322549Y-97378199D01*
X91459876Y-97380716D01*
X91469109Y-97378199D01*
X91583727Y-97346951D01*
X91592391Y-97344589D01*
X91696465Y-97280687D01*
X91701024Y-97277888D01*
X91769542Y-97259290D01*
X91837237Y-97280687D01*
X91882282Y-97334517D01*
X91913732Y-97405992D01*
X92002111Y-97511132D01*
X92116447Y-97587240D01*
X92202216Y-97614036D01*
X92230662Y-97622923D01*
X92247549Y-97628199D01*
X92384876Y-97630716D01*
X92394109Y-97628199D01*
X92508727Y-97596951D01*
X92517391Y-97594589D01*
X92634439Y-97522721D01*
X92651153Y-97504256D01*
X92720584Y-97427550D01*
X92720585Y-97427549D01*
X92726612Y-97420890D01*
X92744025Y-97384951D01*
X92782585Y-97305362D01*
X92782585Y-97305361D01*
X92786499Y-97297283D01*
X92809286Y-97161836D01*
X92809431Y-97150000D01*
X92803403Y-97107911D01*
X92813545Y-97037644D01*
X92860067Y-96984014D01*
X92928198Y-96964049D01*
X92996308Y-96984088D01*
X93017225Y-97000954D01*
X93623099Y-97606828D01*
X93657125Y-97669140D01*
X93658940Y-97679586D01*
X93673414Y-97790273D01*
X93728732Y-97915992D01*
X93817111Y-98021132D01*
X93824588Y-98026109D01*
X93875913Y-98060274D01*
X93921536Y-98114671D01*
X93932094Y-98165161D01*
X93932094Y-103460195D01*
X93931614Y-103471177D01*
X93928303Y-103509020D01*
X93931156Y-103519666D01*
X93931156Y-103519671D01*
X93938138Y-103545727D01*
X93940517Y-103556456D01*
X93944237Y-103577550D01*
X93947116Y-103593880D01*
X93952626Y-103603424D01*
X93953858Y-103606809D01*
X93955379Y-103610071D01*
X93958232Y-103620717D01*
X93964554Y-103629745D01*
X93964554Y-103629746D01*
X93980033Y-103651852D01*
X93985935Y-103661116D01*
X94004935Y-103694025D01*
X94013380Y-103701111D01*
X94034046Y-103718452D01*
X94042150Y-103725879D01*
X94983595Y-104667324D01*
X95017621Y-104729636D01*
X95020500Y-104756419D01*
X95020501Y-105137816D01*
X95020501Y-105525066D01*
X95035266Y-105599301D01*
X95042161Y-105609620D01*
X95042162Y-105609622D01*
X95082516Y-105670015D01*
X95091516Y-105683484D01*
X95175699Y-105739734D01*
X95249933Y-105754500D01*
X96524793Y-105754500D01*
X97800066Y-105754499D01*
X97835818Y-105747388D01*
X97862126Y-105742156D01*
X97862128Y-105742155D01*
X97874301Y-105739734D01*
X97884621Y-105732839D01*
X97884622Y-105732838D01*
X97948168Y-105690377D01*
X97958484Y-105683484D01*
X98014734Y-105599301D01*
X98029500Y-105525067D01*
X98029499Y-104474934D01*
X98014734Y-104400699D01*
X97958484Y-104316516D01*
X97874301Y-104260266D01*
X97800067Y-104245500D01*
X97555156Y-104245500D01*
X95541420Y-104245501D01*
X95473299Y-104225499D01*
X95452325Y-104208596D01*
X94624811Y-103381082D01*
X94590785Y-103318770D01*
X94587906Y-103291987D01*
X94587906Y-102025826D01*
X94607908Y-101957705D01*
X94661564Y-101911212D01*
X94731838Y-101901108D01*
X94796418Y-101930602D01*
X94802995Y-101936724D01*
X94957149Y-102090879D01*
X94983596Y-102117326D01*
X95017621Y-102179638D01*
X95020500Y-102206421D01*
X95020501Y-102985066D01*
X95035266Y-103059301D01*
X95091516Y-103143484D01*
X95175699Y-103199734D01*
X95249933Y-103214500D01*
X96524793Y-103214500D01*
X97800066Y-103214499D01*
X97835818Y-103207388D01*
X97862126Y-103202156D01*
X97862128Y-103202155D01*
X97874301Y-103199734D01*
X97884621Y-103192839D01*
X97884622Y-103192838D01*
X97948168Y-103150377D01*
X97958484Y-103143484D01*
X98014734Y-103059301D01*
X98029500Y-102985067D01*
X98029499Y-101934934D01*
X98014734Y-101860699D01*
X97958484Y-101776516D01*
X97874301Y-101720266D01*
X97800067Y-101705500D01*
X97556216Y-101705500D01*
X95551420Y-101705501D01*
X95483299Y-101685499D01*
X95462325Y-101668596D01*
X95044811Y-101251082D01*
X95010785Y-101188770D01*
X95007906Y-101161987D01*
X95007906Y-100776184D01*
X95027908Y-100708063D01*
X95081564Y-100661570D01*
X95151838Y-100651466D01*
X95171327Y-100656812D01*
X95175699Y-100659734D01*
X95249933Y-100674500D01*
X95492720Y-100674500D01*
X97488579Y-100674499D01*
X97556700Y-100694501D01*
X97577675Y-100711404D01*
X97843100Y-100976830D01*
X97877125Y-101039142D01*
X97878940Y-101049587D01*
X97893414Y-101160273D01*
X97948732Y-101285992D01*
X98037111Y-101391132D01*
X98151447Y-101467240D01*
X98282549Y-101508199D01*
X98419876Y-101510716D01*
X98429109Y-101508199D01*
X98543727Y-101476951D01*
X98552391Y-101474589D01*
X98669439Y-101402721D01*
X98761612Y-101300890D01*
X98821499Y-101177283D01*
X98844286Y-101041836D01*
X98844431Y-101030000D01*
X98843584Y-101024082D01*
X98826232Y-100902923D01*
X98826232Y-100902921D01*
X98824959Y-100894036D01*
X98768110Y-100769003D01*
X98678453Y-100664951D01*
X98563196Y-100590244D01*
X98431603Y-100550890D01*
X98422627Y-100550835D01*
X98422626Y-100550835D01*
X98395822Y-100550671D01*
X98327825Y-100530252D01*
X98307498Y-100513768D01*
X98066405Y-100272675D01*
X98032379Y-100210363D01*
X98029500Y-100183580D01*
X98029499Y-99401123D01*
X98029499Y-99394934D01*
X98014734Y-99320699D01*
X97958484Y-99236516D01*
X97874301Y-99180266D01*
X97800067Y-99165500D01*
X96525207Y-99165500D01*
X95249934Y-99165501D01*
X95175699Y-99180266D01*
X95174539Y-99181041D01*
X95111533Y-99187815D01*
X95048046Y-99156035D01*
X95011819Y-99094976D01*
X95007906Y-99063817D01*
X95007906Y-98255554D01*
X95027908Y-98187433D01*
X95067977Y-98148179D01*
X95101791Y-98127417D01*
X95109439Y-98122721D01*
X95116726Y-98114671D01*
X95195584Y-98027550D01*
X95195585Y-98027549D01*
X95201612Y-98020890D01*
X95261499Y-97897283D01*
X95284286Y-97761836D01*
X95284431Y-97750000D01*
X95266988Y-97628199D01*
X95266232Y-97622923D01*
X95266232Y-97622921D01*
X95264959Y-97614036D01*
X95208110Y-97489003D01*
X95118453Y-97384951D01*
X95003196Y-97310244D01*
X94871603Y-97270890D01*
X94862627Y-97270835D01*
X94862626Y-97270835D01*
X94835821Y-97270671D01*
X94767824Y-97250252D01*
X94747497Y-97233768D01*
X94107811Y-96594082D01*
X95315605Y-96594082D01*
X95316769Y-96602984D01*
X95316769Y-96602987D01*
X95322351Y-96645671D01*
X95333414Y-96730273D01*
X95388732Y-96855992D01*
X95394510Y-96862865D01*
X95394510Y-96862866D01*
X95470400Y-96953148D01*
X95477111Y-96961132D01*
X95511890Y-96984283D01*
X95580981Y-97030273D01*
X95591447Y-97037240D01*
X95722549Y-97078199D01*
X95859876Y-97080716D01*
X95869109Y-97078199D01*
X95983727Y-97046951D01*
X95992391Y-97044589D01*
X96109439Y-96972721D01*
X96156688Y-96920521D01*
X96195584Y-96877550D01*
X96195585Y-96877549D01*
X96201612Y-96870890D01*
X96251851Y-96767198D01*
X96257585Y-96755362D01*
X96257585Y-96755361D01*
X96261499Y-96747283D01*
X96282455Y-96622721D01*
X96284157Y-96612604D01*
X96319316Y-96544413D01*
X96407850Y-96455879D01*
X96415954Y-96448452D01*
X96436620Y-96431111D01*
X96445065Y-96424025D01*
X96450576Y-96414480D01*
X96450579Y-96414476D01*
X96464066Y-96391115D01*
X96469972Y-96381844D01*
X96485444Y-96359748D01*
X96491768Y-96350717D01*
X96494623Y-96340063D01*
X96496145Y-96336799D01*
X96497373Y-96333426D01*
X96502884Y-96323880D01*
X96509483Y-96286456D01*
X96511862Y-96275727D01*
X96518844Y-96249671D01*
X96518844Y-96249666D01*
X96521697Y-96239020D01*
X96518386Y-96201177D01*
X96517906Y-96190195D01*
X96517906Y-94155499D01*
X96537908Y-94087378D01*
X96591564Y-94040885D01*
X96643906Y-94029499D01*
X96715066Y-94029499D01*
X96750818Y-94022388D01*
X96777126Y-94017156D01*
X96777128Y-94017155D01*
X96789301Y-94014734D01*
X96799621Y-94007839D01*
X96799622Y-94007838D01*
X96863168Y-93965377D01*
X96873484Y-93958484D01*
X96929734Y-93874301D01*
X96944500Y-93800067D01*
X96944499Y-91249934D01*
X96929734Y-91175699D01*
X96873484Y-91091516D01*
X96789301Y-91035266D01*
X96715067Y-91020500D01*
X96643906Y-91020500D01*
X96575785Y-91000498D01*
X96529292Y-90946842D01*
X96517906Y-90894500D01*
X96517906Y-90209805D01*
X96518386Y-90198823D01*
X96520736Y-90171962D01*
X96521697Y-90160980D01*
X96518844Y-90150334D01*
X96518844Y-90150329D01*
X96511862Y-90124273D01*
X96509483Y-90113544D01*
X96504798Y-90086974D01*
X96504798Y-90086973D01*
X96502884Y-90076120D01*
X96497374Y-90066576D01*
X96496142Y-90063191D01*
X96494621Y-90059929D01*
X96491768Y-90049283D01*
X96469967Y-90018147D01*
X96464062Y-90008879D01*
X96454056Y-89991548D01*
X96445065Y-89975975D01*
X96425422Y-89959493D01*
X96386096Y-89900385D01*
X96381686Y-89880834D01*
X96366232Y-89772923D01*
X96366232Y-89772921D01*
X96364959Y-89764036D01*
X96308110Y-89639003D01*
X96218453Y-89534951D01*
X96103196Y-89460244D01*
X95971603Y-89420890D01*
X95962627Y-89420835D01*
X95962626Y-89420835D01*
X95905080Y-89420484D01*
X95834255Y-89420051D01*
X95702192Y-89457795D01*
X95694605Y-89462582D01*
X95694603Y-89462583D01*
X95632850Y-89501546D01*
X95586031Y-89531087D01*
X95495109Y-89634036D01*
X95436736Y-89758366D01*
X95427027Y-89820724D01*
X95416986Y-89885209D01*
X95416986Y-89885213D01*
X95415605Y-89894082D01*
X95416769Y-89902984D01*
X95416769Y-89902987D01*
X95422658Y-89948017D01*
X95433414Y-90030273D01*
X95488732Y-90155992D01*
X95494510Y-90162865D01*
X95494510Y-90162866D01*
X95558358Y-90238823D01*
X95577111Y-90261132D01*
X95691447Y-90337240D01*
X95700014Y-90339916D01*
X95700015Y-90339917D01*
X95773669Y-90362928D01*
X95832725Y-90402334D01*
X95861102Y-90467413D01*
X95862094Y-90483195D01*
X95862094Y-90894501D01*
X95842092Y-90962622D01*
X95788436Y-91009115D01*
X95736094Y-91020501D01*
X95664934Y-91020501D01*
X95629182Y-91027612D01*
X95602874Y-91032844D01*
X95602872Y-91032845D01*
X95590699Y-91035266D01*
X95580379Y-91042161D01*
X95580378Y-91042162D01*
X95578361Y-91043510D01*
X95506516Y-91091516D01*
X95450266Y-91175699D01*
X95435500Y-91249933D01*
X95435501Y-93800066D01*
X95440022Y-93822796D01*
X95447668Y-93861237D01*
X95450266Y-93874301D01*
X95506516Y-93958484D01*
X95590699Y-94014734D01*
X95664933Y-94029500D01*
X95736094Y-94029500D01*
X95804215Y-94049502D01*
X95850708Y-94103158D01*
X95862094Y-94155500D01*
X95862094Y-95994060D01*
X95842092Y-96062181D01*
X95788436Y-96108674D01*
X95751802Y-96116517D01*
X95752127Y-96118887D01*
X95743230Y-96120106D01*
X95734255Y-96120051D01*
X95602192Y-96157795D01*
X95486031Y-96231087D01*
X95480088Y-96237816D01*
X95404079Y-96323880D01*
X95395109Y-96334036D01*
X95391295Y-96342159D01*
X95391294Y-96342161D01*
X95363136Y-96402136D01*
X95336736Y-96458366D01*
X95335356Y-96467232D01*
X95316986Y-96585209D01*
X95316986Y-96585213D01*
X95315605Y-96594082D01*
X94107811Y-96594082D01*
X92914811Y-95401082D01*
X92880785Y-95338770D01*
X92877906Y-95311987D01*
X92877906Y-87994082D01*
X95428105Y-87994082D01*
X95429269Y-88002984D01*
X95429269Y-88002987D01*
X95436788Y-88060480D01*
X95445914Y-88130273D01*
X95501232Y-88255992D01*
X95507010Y-88262865D01*
X95507010Y-88262866D01*
X95571191Y-88339219D01*
X95589611Y-88361132D01*
X95703947Y-88437240D01*
X95835049Y-88478199D01*
X95972376Y-88480716D01*
X95981609Y-88478199D01*
X96096227Y-88446951D01*
X96104891Y-88444589D01*
X96221939Y-88372721D01*
X96227962Y-88366066D01*
X96234870Y-88360332D01*
X96236668Y-88362497D01*
X96288573Y-88334154D01*
X96359388Y-88339219D01*
X96404451Y-88368180D01*
X98365189Y-90328918D01*
X98399215Y-90391230D01*
X98402094Y-90418013D01*
X98402094Y-90894501D01*
X98382092Y-90962622D01*
X98328436Y-91009115D01*
X98276094Y-91020501D01*
X98204934Y-91020501D01*
X98169182Y-91027612D01*
X98142874Y-91032844D01*
X98142872Y-91032845D01*
X98130699Y-91035266D01*
X98120379Y-91042161D01*
X98120378Y-91042162D01*
X98118361Y-91043510D01*
X98046516Y-91091516D01*
X97990266Y-91175699D01*
X97975500Y-91249933D01*
X97975500Y-91894218D01*
X97955498Y-91962339D01*
X97901842Y-92008832D01*
X97848730Y-92020216D01*
X97821755Y-92020051D01*
X97689692Y-92057795D01*
X97682105Y-92062582D01*
X97682103Y-92062583D01*
X97627042Y-92097324D01*
X97573531Y-92131087D01*
X97482609Y-92234036D01*
X97424236Y-92358366D01*
X97422856Y-92367232D01*
X97404486Y-92485209D01*
X97404486Y-92485213D01*
X97403105Y-92494082D01*
X97420914Y-92630273D01*
X97476232Y-92755992D01*
X97564611Y-92861132D01*
X97678947Y-92937240D01*
X97775130Y-92967290D01*
X97793562Y-92973048D01*
X97810049Y-92978199D01*
X97851810Y-92978964D01*
X97919552Y-93000210D01*
X97965054Y-93054709D01*
X97975501Y-93104943D01*
X97975501Y-93800066D01*
X97980022Y-93822796D01*
X97987668Y-93861237D01*
X97990266Y-93874301D01*
X98046516Y-93958484D01*
X98130699Y-94014734D01*
X98204933Y-94029500D01*
X98276094Y-94029500D01*
X98344215Y-94049502D01*
X98390708Y-94103158D01*
X98402094Y-94155500D01*
X98402094Y-95281987D01*
X98382092Y-95350108D01*
X98365189Y-95371082D01*
X98152947Y-95583324D01*
X98090635Y-95617350D01*
X98063083Y-95620227D01*
X98050778Y-95620152D01*
X98034255Y-95620051D01*
X97902192Y-95657795D01*
X97786031Y-95731087D01*
X97780088Y-95737816D01*
X97714056Y-95812583D01*
X97695109Y-95834036D01*
X97691295Y-95842159D01*
X97691294Y-95842161D01*
X97671204Y-95884951D01*
X97636736Y-95958366D01*
X97630693Y-95997177D01*
X97616986Y-96085209D01*
X97616986Y-96085213D01*
X97615605Y-96094082D01*
X97616769Y-96102984D01*
X97616769Y-96102987D01*
X97619001Y-96120051D01*
X97633414Y-96230273D01*
X97688732Y-96355992D01*
X97694510Y-96362865D01*
X97694510Y-96362866D01*
X97737893Y-96414476D01*
X97777111Y-96461132D01*
X97891447Y-96537240D01*
X98022549Y-96578199D01*
X98159876Y-96580716D01*
X98169109Y-96578199D01*
X98283727Y-96546951D01*
X98292391Y-96544589D01*
X98409439Y-96472721D01*
X98424684Y-96455879D01*
X98495584Y-96377550D01*
X98495585Y-96377549D01*
X98501612Y-96370890D01*
X98507011Y-96359748D01*
X98557585Y-96255362D01*
X98557585Y-96255361D01*
X98561499Y-96247283D01*
X98583378Y-96117232D01*
X98584157Y-96112604D01*
X98619316Y-96044413D01*
X98947850Y-95715879D01*
X98955954Y-95708452D01*
X98985065Y-95684025D01*
X99004065Y-95651116D01*
X99009967Y-95641852D01*
X99025446Y-95619746D01*
X99025446Y-95619745D01*
X99031768Y-95610717D01*
X99034621Y-95600071D01*
X99036140Y-95596813D01*
X99037372Y-95593427D01*
X99042884Y-95583880D01*
X99049483Y-95546456D01*
X99051862Y-95535725D01*
X99058845Y-95509666D01*
X99058845Y-95509661D01*
X99061697Y-95499019D01*
X99058385Y-95461161D01*
X99057906Y-95450180D01*
X99057906Y-94856582D01*
X110615605Y-94856582D01*
X110616769Y-94865484D01*
X110616769Y-94865487D01*
X110618554Y-94879133D01*
X110633414Y-94992773D01*
X110688732Y-95118492D01*
X110694510Y-95125365D01*
X110694510Y-95125366D01*
X110740898Y-95180551D01*
X110777111Y-95223632D01*
X110891447Y-95299740D01*
X111022549Y-95340699D01*
X111159876Y-95343216D01*
X111169109Y-95340699D01*
X111283727Y-95309451D01*
X111292391Y-95307089D01*
X111409439Y-95235221D01*
X111458924Y-95180551D01*
X111495584Y-95140050D01*
X111495585Y-95140049D01*
X111501612Y-95133390D01*
X111524152Y-95086869D01*
X111557585Y-95017862D01*
X111557585Y-95017861D01*
X111561499Y-95009783D01*
X111584286Y-94874336D01*
X111584431Y-94862500D01*
X111583584Y-94856582D01*
X111566232Y-94735423D01*
X111566232Y-94735421D01*
X111564959Y-94726536D01*
X111508110Y-94601503D01*
X111418453Y-94497451D01*
X111303196Y-94422744D01*
X111171603Y-94383390D01*
X111162627Y-94383335D01*
X111162626Y-94383335D01*
X111105080Y-94382984D01*
X111034255Y-94382551D01*
X110902192Y-94420295D01*
X110894605Y-94425082D01*
X110894603Y-94425083D01*
X110873350Y-94438493D01*
X110786031Y-94493587D01*
X110780088Y-94500316D01*
X110720990Y-94567232D01*
X110695109Y-94596536D01*
X110636736Y-94720866D01*
X110630095Y-94763519D01*
X110616986Y-94847709D01*
X110616986Y-94847713D01*
X110615605Y-94856582D01*
X99057906Y-94856582D01*
X99057906Y-94155499D01*
X99077908Y-94087378D01*
X99131564Y-94040885D01*
X99183906Y-94029499D01*
X99255066Y-94029499D01*
X99290818Y-94022388D01*
X99317126Y-94017156D01*
X99317128Y-94017155D01*
X99329301Y-94014734D01*
X99339621Y-94007839D01*
X99339622Y-94007838D01*
X99403168Y-93965377D01*
X99413484Y-93958484D01*
X99469734Y-93874301D01*
X99484500Y-93800067D01*
X99484499Y-91249934D01*
X99469734Y-91175699D01*
X99413484Y-91091516D01*
X99329301Y-91035266D01*
X99255067Y-91020500D01*
X99183906Y-91020500D01*
X99115785Y-91000498D01*
X99069292Y-90946842D01*
X99057906Y-90894500D01*
X99057906Y-90249805D01*
X99058386Y-90238823D01*
X99060736Y-90211962D01*
X99061697Y-90200980D01*
X99058844Y-90190334D01*
X99058844Y-90190329D01*
X99051862Y-90164273D01*
X99049483Y-90153544D01*
X99044798Y-90126974D01*
X99044798Y-90126973D01*
X99042884Y-90116120D01*
X99037373Y-90106574D01*
X99036145Y-90103201D01*
X99034623Y-90099937D01*
X99031768Y-90089283D01*
X99009972Y-90058156D01*
X99004066Y-90048885D01*
X98990579Y-90025524D01*
X98990576Y-90025520D01*
X98985065Y-90015975D01*
X98955953Y-89991547D01*
X98947850Y-89984121D01*
X97932811Y-88969082D01*
X101150605Y-88969082D01*
X101151769Y-88977984D01*
X101151769Y-88977987D01*
X101153554Y-88991633D01*
X101168414Y-89105273D01*
X101223732Y-89230992D01*
X101312111Y-89336132D01*
X101426447Y-89412240D01*
X101557549Y-89453199D01*
X101694876Y-89455716D01*
X101704109Y-89453199D01*
X101818727Y-89421951D01*
X101827391Y-89419589D01*
X101944439Y-89347721D01*
X101974678Y-89314314D01*
X102030584Y-89252550D01*
X102030585Y-89252549D01*
X102036612Y-89245890D01*
X102042240Y-89234275D01*
X102092585Y-89130362D01*
X102092585Y-89130361D01*
X102096499Y-89122283D01*
X102119286Y-88986836D01*
X102119431Y-88975000D01*
X102118584Y-88969082D01*
X102101232Y-88847923D01*
X102101232Y-88847921D01*
X102099959Y-88839036D01*
X102043110Y-88714003D01*
X101953453Y-88609951D01*
X101838196Y-88535244D01*
X101706603Y-88495890D01*
X101697627Y-88495835D01*
X101697626Y-88495835D01*
X101640080Y-88495484D01*
X101569255Y-88495051D01*
X101437192Y-88532795D01*
X101429605Y-88537582D01*
X101429603Y-88537583D01*
X101367850Y-88576546D01*
X101321031Y-88606087D01*
X101230109Y-88709036D01*
X101171736Y-88833366D01*
X101162027Y-88895724D01*
X101151986Y-88960209D01*
X101151986Y-88960213D01*
X101150605Y-88969082D01*
X97932811Y-88969082D01*
X96745879Y-87782150D01*
X96738452Y-87774046D01*
X96721111Y-87753380D01*
X96714025Y-87744935D01*
X96681116Y-87725935D01*
X96671852Y-87720033D01*
X96649746Y-87704554D01*
X96649745Y-87704554D01*
X96640717Y-87698232D01*
X96630071Y-87695379D01*
X96626809Y-87693858D01*
X96623424Y-87692626D01*
X96613880Y-87687116D01*
X96603027Y-87685202D01*
X96603026Y-87685202D01*
X96576456Y-87680517D01*
X96565727Y-87678138D01*
X96539671Y-87671156D01*
X96539666Y-87671156D01*
X96529020Y-87668303D01*
X96518036Y-87669264D01*
X96518035Y-87669264D01*
X96491177Y-87671614D01*
X96480195Y-87672094D01*
X96318830Y-87672094D01*
X96250709Y-87652092D01*
X96236573Y-87641473D01*
X96230953Y-87634951D01*
X96115696Y-87560244D01*
X95984103Y-87520890D01*
X95975127Y-87520835D01*
X95975126Y-87520835D01*
X95917580Y-87520484D01*
X95846755Y-87520051D01*
X95714692Y-87557795D01*
X95707105Y-87562582D01*
X95707103Y-87562583D01*
X95660507Y-87591983D01*
X95598531Y-87631087D01*
X95592588Y-87637816D01*
X95562315Y-87672094D01*
X95507609Y-87734036D01*
X95503795Y-87742159D01*
X95503794Y-87742161D01*
X95498419Y-87753609D01*
X95449236Y-87858366D01*
X95447344Y-87870517D01*
X95429486Y-87985209D01*
X95429486Y-87985213D01*
X95428105Y-87994082D01*
X92877906Y-87994082D01*
X92877906Y-86094082D01*
X93515605Y-86094082D01*
X93516769Y-86102984D01*
X93516769Y-86102987D01*
X93518554Y-86116633D01*
X93533414Y-86230273D01*
X93588732Y-86355992D01*
X93677111Y-86461132D01*
X93791447Y-86537240D01*
X93922549Y-86578199D01*
X94059876Y-86580716D01*
X94068540Y-86578354D01*
X94174088Y-86549579D01*
X94245071Y-86550959D01*
X94304040Y-86590496D01*
X94332272Y-86655638D01*
X94331729Y-86690524D01*
X94315605Y-86794082D01*
X94316769Y-86802984D01*
X94316769Y-86802987D01*
X94318554Y-86816633D01*
X94333414Y-86930273D01*
X94361073Y-86993133D01*
X94380370Y-87036987D01*
X94388732Y-87055992D01*
X94394510Y-87062865D01*
X94394510Y-87062866D01*
X94448002Y-87126503D01*
X94477111Y-87161132D01*
X94591447Y-87237240D01*
X94722549Y-87278199D01*
X94859876Y-87280716D01*
X94869109Y-87278199D01*
X94983727Y-87246951D01*
X94992391Y-87244589D01*
X95109439Y-87172721D01*
X95151655Y-87126082D01*
X95195584Y-87077550D01*
X95195585Y-87077549D01*
X95201612Y-87070890D01*
X95223693Y-87025316D01*
X95257585Y-86955362D01*
X95257585Y-86955361D01*
X95261499Y-86947283D01*
X95284286Y-86811836D01*
X95284431Y-86800000D01*
X95283584Y-86794082D01*
X95266232Y-86672923D01*
X95266232Y-86672921D01*
X95264959Y-86664036D01*
X95208110Y-86539003D01*
X95118453Y-86434951D01*
X95003196Y-86360244D01*
X94871603Y-86320890D01*
X94862627Y-86320835D01*
X94862626Y-86320835D01*
X94805080Y-86320484D01*
X94734255Y-86320051D01*
X94626870Y-86350742D01*
X94555876Y-86350230D01*
X94496429Y-86311416D01*
X94467402Y-86246624D01*
X94467992Y-86208689D01*
X94483479Y-86116633D01*
X94484286Y-86111836D01*
X94484431Y-86100000D01*
X94483584Y-86094082D01*
X94466232Y-85972923D01*
X94466232Y-85972921D01*
X94464959Y-85964036D01*
X94408110Y-85839003D01*
X94318453Y-85734951D01*
X94203196Y-85660244D01*
X94071603Y-85620890D01*
X94062627Y-85620835D01*
X94062626Y-85620835D01*
X94005080Y-85620484D01*
X93934255Y-85620051D01*
X93802192Y-85657795D01*
X93794605Y-85662582D01*
X93794603Y-85662583D01*
X93732850Y-85701546D01*
X93686031Y-85731087D01*
X93595109Y-85834036D01*
X93536736Y-85958366D01*
X93527027Y-86020724D01*
X93516986Y-86085209D01*
X93516986Y-86085213D01*
X93515605Y-86094082D01*
X92877906Y-86094082D01*
X92877906Y-84019082D01*
X99880605Y-84019082D01*
X99881769Y-84027984D01*
X99881769Y-84027987D01*
X99887808Y-84074169D01*
X99898414Y-84155273D01*
X99953732Y-84280992D01*
X100042111Y-84386132D01*
X100156447Y-84462240D01*
X100287549Y-84503199D01*
X100330351Y-84503983D01*
X100398094Y-84525229D01*
X100417138Y-84540867D01*
X100485189Y-84608918D01*
X100519215Y-84671230D01*
X100522094Y-84698013D01*
X100522094Y-85280195D01*
X100521614Y-85291177D01*
X100518303Y-85329020D01*
X100521156Y-85339666D01*
X100521156Y-85339671D01*
X100528138Y-85365727D01*
X100530517Y-85376456D01*
X100537116Y-85413880D01*
X100542626Y-85423424D01*
X100543858Y-85426809D01*
X100545379Y-85430071D01*
X100548232Y-85440717D01*
X100554554Y-85449745D01*
X100554554Y-85449746D01*
X100570033Y-85471852D01*
X100575935Y-85481116D01*
X100594935Y-85514025D01*
X100603380Y-85521111D01*
X100624046Y-85538452D01*
X100632150Y-85545879D01*
X104560189Y-89473918D01*
X104594215Y-89536230D01*
X104597094Y-89563013D01*
X104597094Y-90927101D01*
X104577092Y-90995222D01*
X104523436Y-91041715D01*
X104453162Y-91051819D01*
X104422875Y-91043510D01*
X104419621Y-91042162D01*
X104409301Y-91035266D01*
X104397127Y-91032844D01*
X104397126Y-91032844D01*
X104341135Y-91021707D01*
X104335067Y-91020500D01*
X103810085Y-91020500D01*
X103284934Y-91020501D01*
X103249182Y-91027612D01*
X103222874Y-91032844D01*
X103222872Y-91032845D01*
X103210699Y-91035266D01*
X103200379Y-91042161D01*
X103200378Y-91042162D01*
X103198361Y-91043510D01*
X103126516Y-91091516D01*
X103070266Y-91175699D01*
X103055500Y-91249933D01*
X103055500Y-91844630D01*
X103035498Y-91912751D01*
X102981842Y-91959244D01*
X102928730Y-91970628D01*
X102896310Y-91970430D01*
X102834255Y-91970051D01*
X102702192Y-92007795D01*
X102694605Y-92012582D01*
X102694603Y-92012583D01*
X102678857Y-92022518D01*
X102586031Y-92081087D01*
X102495109Y-92184036D01*
X102491295Y-92192159D01*
X102491294Y-92192161D01*
X102474793Y-92227308D01*
X102436736Y-92308366D01*
X102435356Y-92317232D01*
X102416986Y-92435209D01*
X102416986Y-92435213D01*
X102415605Y-92444082D01*
X102433414Y-92580273D01*
X102488732Y-92705992D01*
X102494510Y-92712865D01*
X102494510Y-92712866D01*
X102530761Y-92755992D01*
X102577111Y-92811132D01*
X102691447Y-92887240D01*
X102822549Y-92928199D01*
X102831521Y-92928363D01*
X102831524Y-92928364D01*
X102931810Y-92930202D01*
X102999553Y-92951449D01*
X103045055Y-93005948D01*
X103055501Y-93056181D01*
X103055501Y-93800066D01*
X103060022Y-93822796D01*
X103067668Y-93861237D01*
X103070266Y-93874301D01*
X103126516Y-93958484D01*
X103210699Y-94014734D01*
X103284933Y-94029500D01*
X103809915Y-94029500D01*
X104335066Y-94029499D01*
X104370818Y-94022388D01*
X104397126Y-94017156D01*
X104397128Y-94017155D01*
X104409301Y-94014734D01*
X104419621Y-94007839D01*
X104419622Y-94007838D01*
X104483168Y-93965377D01*
X104493484Y-93958484D01*
X104549734Y-93874301D01*
X104564500Y-93800067D01*
X104564499Y-92286419D01*
X104584501Y-92218299D01*
X104601404Y-92197325D01*
X104990905Y-91807824D01*
X105053217Y-91773798D01*
X105124032Y-91778863D01*
X105169095Y-91807824D01*
X105558595Y-92197324D01*
X105592621Y-92259636D01*
X105595500Y-92286419D01*
X105595501Y-93800066D01*
X105600022Y-93822796D01*
X105607668Y-93861237D01*
X105610266Y-93874301D01*
X105666516Y-93958484D01*
X105750699Y-94014734D01*
X105824933Y-94029500D01*
X106349915Y-94029500D01*
X106875066Y-94029499D01*
X106910818Y-94022388D01*
X106937126Y-94017156D01*
X106937128Y-94017155D01*
X106949301Y-94014734D01*
X106959621Y-94007839D01*
X106959622Y-94007838D01*
X107023168Y-93965377D01*
X107033484Y-93958484D01*
X107089734Y-93874301D01*
X107104500Y-93800067D01*
X107104499Y-91249934D01*
X107104499Y-91249933D01*
X108135500Y-91249933D01*
X108135501Y-93800066D01*
X108140022Y-93822796D01*
X108147668Y-93861237D01*
X108150266Y-93874301D01*
X108206516Y-93958484D01*
X108290699Y-94014734D01*
X108364933Y-94029500D01*
X108889915Y-94029500D01*
X109415066Y-94029499D01*
X109450818Y-94022388D01*
X109477126Y-94017156D01*
X109477128Y-94017155D01*
X109489301Y-94014734D01*
X109499621Y-94007839D01*
X109499622Y-94007838D01*
X109563168Y-93965377D01*
X109573484Y-93958484D01*
X109629734Y-93874301D01*
X109644500Y-93800067D01*
X109644499Y-92286419D01*
X109664501Y-92218299D01*
X109681404Y-92197325D01*
X110120905Y-91757824D01*
X110183217Y-91723798D01*
X110254032Y-91728863D01*
X110299095Y-91757824D01*
X110638595Y-92097324D01*
X110672621Y-92159636D01*
X110675500Y-92186419D01*
X110675501Y-93000210D01*
X110675501Y-93800066D01*
X110680022Y-93822796D01*
X110687668Y-93861237D01*
X110690266Y-93874301D01*
X110746516Y-93958484D01*
X110830699Y-94014734D01*
X110904933Y-94029500D01*
X111429915Y-94029500D01*
X111955066Y-94029499D01*
X111990818Y-94022388D01*
X112017126Y-94017156D01*
X112017128Y-94017155D01*
X112029301Y-94014734D01*
X112039621Y-94007839D01*
X112039622Y-94007838D01*
X112103168Y-93965377D01*
X112113484Y-93958484D01*
X112169734Y-93874301D01*
X112184500Y-93800067D01*
X112184499Y-91249934D01*
X112169734Y-91175699D01*
X112113484Y-91091516D01*
X112029301Y-91035266D01*
X111955067Y-91020500D01*
X111430085Y-91020500D01*
X110904934Y-91020501D01*
X110830699Y-91035266D01*
X110829930Y-91031399D01*
X110781531Y-91036601D01*
X110718045Y-91004820D01*
X110681819Y-90943761D01*
X110677906Y-90912604D01*
X110677906Y-88969082D01*
X111150605Y-88969082D01*
X111151769Y-88977984D01*
X111151769Y-88977987D01*
X111153554Y-88991633D01*
X111168414Y-89105273D01*
X111223732Y-89230992D01*
X111312111Y-89336132D01*
X111426447Y-89412240D01*
X111557549Y-89453199D01*
X111694876Y-89455716D01*
X111704109Y-89453199D01*
X111818727Y-89421951D01*
X111827391Y-89419589D01*
X111944439Y-89347721D01*
X111974678Y-89314314D01*
X112030584Y-89252550D01*
X112030585Y-89252549D01*
X112036612Y-89245890D01*
X112042240Y-89234275D01*
X112092585Y-89130362D01*
X112092585Y-89130361D01*
X112096499Y-89122283D01*
X112119286Y-88986836D01*
X112119431Y-88975000D01*
X112118584Y-88969082D01*
X112101232Y-88847923D01*
X112101232Y-88847921D01*
X112099959Y-88839036D01*
X112043110Y-88714003D01*
X111953453Y-88609951D01*
X111838196Y-88535244D01*
X111706603Y-88495890D01*
X111697627Y-88495835D01*
X111697626Y-88495835D01*
X111640080Y-88495484D01*
X111569255Y-88495051D01*
X111437192Y-88532795D01*
X111429605Y-88537582D01*
X111429603Y-88537583D01*
X111367850Y-88576546D01*
X111321031Y-88606087D01*
X111230109Y-88709036D01*
X111171736Y-88833366D01*
X111162027Y-88895724D01*
X111151986Y-88960209D01*
X111151986Y-88960213D01*
X111150605Y-88969082D01*
X110677906Y-88969082D01*
X110677906Y-88338013D01*
X110697908Y-88269892D01*
X110714811Y-88248918D01*
X111367850Y-87595879D01*
X111375954Y-87588452D01*
X111396620Y-87571111D01*
X111405065Y-87564025D01*
X111424065Y-87531116D01*
X111429967Y-87521852D01*
X111445446Y-87499746D01*
X111445446Y-87499745D01*
X111451768Y-87490717D01*
X111454621Y-87480071D01*
X111456142Y-87476809D01*
X111457374Y-87473424D01*
X111462884Y-87463880D01*
X111469483Y-87426456D01*
X111471862Y-87415727D01*
X111478844Y-87389671D01*
X111478844Y-87389666D01*
X111481010Y-87381582D01*
X114215605Y-87381582D01*
X114216769Y-87390484D01*
X114216769Y-87390487D01*
X114221473Y-87426456D01*
X114233414Y-87517773D01*
X114256883Y-87571111D01*
X114284353Y-87633539D01*
X114288732Y-87643492D01*
X114294510Y-87650365D01*
X114294510Y-87650366D01*
X114340060Y-87704554D01*
X114377111Y-87748632D01*
X114491447Y-87824740D01*
X114575878Y-87851118D01*
X114602013Y-87859283D01*
X114622549Y-87865699D01*
X114759876Y-87868216D01*
X114769109Y-87865699D01*
X114883727Y-87834451D01*
X114892391Y-87832089D01*
X115009439Y-87760221D01*
X115033141Y-87734036D01*
X115095584Y-87665050D01*
X115095585Y-87665049D01*
X115101612Y-87658390D01*
X115113653Y-87633539D01*
X115157585Y-87542862D01*
X115157585Y-87542861D01*
X115161499Y-87534783D01*
X115184286Y-87399336D01*
X115184431Y-87387500D01*
X115183584Y-87381582D01*
X115166232Y-87260423D01*
X115166232Y-87260421D01*
X115164959Y-87251536D01*
X115108110Y-87126503D01*
X115018453Y-87022451D01*
X114903196Y-86947744D01*
X114771603Y-86908390D01*
X114762627Y-86908335D01*
X114762626Y-86908335D01*
X114705080Y-86907984D01*
X114634255Y-86907551D01*
X114502192Y-86945295D01*
X114494605Y-86950082D01*
X114494603Y-86950083D01*
X114432850Y-86989046D01*
X114386031Y-87018587D01*
X114380088Y-87025316D01*
X114352996Y-87055992D01*
X114295109Y-87121536D01*
X114236736Y-87245866D01*
X114232119Y-87275522D01*
X114216986Y-87372709D01*
X114216986Y-87372713D01*
X114215605Y-87381582D01*
X111481010Y-87381582D01*
X111481697Y-87379020D01*
X111478386Y-87341177D01*
X111477906Y-87330195D01*
X111477906Y-84698013D01*
X111497908Y-84629892D01*
X111514811Y-84608918D01*
X111581531Y-84542198D01*
X111643843Y-84508172D01*
X111672934Y-84505314D01*
X111685898Y-84505552D01*
X111685902Y-84505552D01*
X111694876Y-84505716D01*
X111703539Y-84503354D01*
X111703541Y-84503354D01*
X111818727Y-84471951D01*
X111827391Y-84469589D01*
X111944439Y-84397721D01*
X111970895Y-84368493D01*
X112030584Y-84302550D01*
X112030585Y-84302549D01*
X112036612Y-84295890D01*
X112096499Y-84172283D01*
X112119286Y-84036836D01*
X112119431Y-84025000D01*
X112118584Y-84019082D01*
X112101232Y-83897923D01*
X112101232Y-83897921D01*
X112099959Y-83889036D01*
X112043110Y-83764003D01*
X111953453Y-83659951D01*
X111838196Y-83585244D01*
X111706603Y-83545890D01*
X111697627Y-83545835D01*
X111697626Y-83545835D01*
X111640080Y-83545484D01*
X111569255Y-83545051D01*
X111437192Y-83582795D01*
X111429605Y-83587582D01*
X111429603Y-83587583D01*
X111375092Y-83621977D01*
X111321031Y-83656087D01*
X111230109Y-83759036D01*
X111226295Y-83767159D01*
X111226294Y-83767161D01*
X111213165Y-83795125D01*
X111171736Y-83883366D01*
X111164386Y-83930573D01*
X111152029Y-84009937D01*
X111121785Y-84074169D01*
X111116624Y-84079647D01*
X111089095Y-84107176D01*
X111026783Y-84141202D01*
X110955968Y-84136137D01*
X110910905Y-84107176D01*
X110882573Y-84078844D01*
X110848547Y-84016532D01*
X110846941Y-84007612D01*
X110831232Y-83897923D01*
X110831232Y-83897921D01*
X110829959Y-83889036D01*
X110773110Y-83764003D01*
X110683453Y-83659951D01*
X110568196Y-83585244D01*
X110436603Y-83545890D01*
X110427627Y-83545835D01*
X110427626Y-83545835D01*
X110370080Y-83545484D01*
X110299255Y-83545051D01*
X110167192Y-83582795D01*
X110159605Y-83587582D01*
X110159603Y-83587583D01*
X110105092Y-83621977D01*
X110051031Y-83656087D01*
X109960109Y-83759036D01*
X109956295Y-83767159D01*
X109956294Y-83767161D01*
X109943165Y-83795125D01*
X109901736Y-83883366D01*
X109894386Y-83930573D01*
X109881986Y-84010209D01*
X109881986Y-84010213D01*
X109880605Y-84019082D01*
X109881769Y-84027984D01*
X109881769Y-84027987D01*
X109887808Y-84074169D01*
X109898414Y-84155273D01*
X109953732Y-84280992D01*
X110042111Y-84386132D01*
X110156447Y-84462240D01*
X110287549Y-84503199D01*
X110330351Y-84503983D01*
X110398094Y-84525229D01*
X110417138Y-84540867D01*
X110485189Y-84608918D01*
X110519215Y-84671230D01*
X110522094Y-84698013D01*
X110522094Y-87036987D01*
X110502092Y-87105108D01*
X110485189Y-87126082D01*
X109857150Y-87754121D01*
X109849047Y-87761547D01*
X109819935Y-87785975D01*
X109814424Y-87795521D01*
X109800938Y-87818879D01*
X109795033Y-87828147D01*
X109773232Y-87859283D01*
X109770379Y-87869929D01*
X109768858Y-87873191D01*
X109767626Y-87876576D01*
X109762116Y-87886120D01*
X109760202Y-87896973D01*
X109760202Y-87896974D01*
X109755517Y-87923544D01*
X109753138Y-87934273D01*
X109746156Y-87960329D01*
X109746156Y-87960334D01*
X109743303Y-87970980D01*
X109744264Y-87981962D01*
X109746614Y-88008823D01*
X109747094Y-88019805D01*
X109747094Y-90971789D01*
X109727092Y-91039910D01*
X109673436Y-91086403D01*
X109603162Y-91096507D01*
X109551094Y-91076555D01*
X109489301Y-91035266D01*
X109415067Y-91020500D01*
X108890085Y-91020500D01*
X108364934Y-91020501D01*
X108329182Y-91027612D01*
X108302874Y-91032844D01*
X108302872Y-91032845D01*
X108290699Y-91035266D01*
X108280379Y-91042161D01*
X108280378Y-91042162D01*
X108278361Y-91043510D01*
X108206516Y-91091516D01*
X108150266Y-91175699D01*
X108135500Y-91249933D01*
X107104499Y-91249933D01*
X107089734Y-91175699D01*
X107033484Y-91091516D01*
X106949301Y-91035266D01*
X106875067Y-91020500D01*
X106350085Y-91020500D01*
X105824934Y-91020501D01*
X105789182Y-91027612D01*
X105762874Y-91032844D01*
X105762872Y-91032845D01*
X105750699Y-91035266D01*
X105740379Y-91042162D01*
X105728913Y-91046911D01*
X105727377Y-91043203D01*
X105681169Y-91057678D01*
X105612700Y-91038902D01*
X105565251Y-90986091D01*
X105552906Y-90931698D01*
X105552906Y-89319820D01*
X105553385Y-89308839D01*
X105555737Y-89281957D01*
X105555737Y-89281956D01*
X105556697Y-89270981D01*
X105553845Y-89260339D01*
X105553845Y-89260334D01*
X105546862Y-89234275D01*
X105544482Y-89223541D01*
X105537884Y-89186120D01*
X105532372Y-89176573D01*
X105531140Y-89173187D01*
X105529621Y-89169929D01*
X105526768Y-89159283D01*
X105504967Y-89128147D01*
X105499062Y-89118879D01*
X105480065Y-89085975D01*
X105450953Y-89061547D01*
X105442850Y-89054121D01*
X104449209Y-88060480D01*
X104415183Y-87998168D01*
X104420248Y-87927353D01*
X104462795Y-87870517D01*
X104529315Y-87845706D01*
X104575878Y-87851118D01*
X104602013Y-87859283D01*
X104622549Y-87865699D01*
X104759876Y-87868216D01*
X104769109Y-87865699D01*
X104883727Y-87834451D01*
X104892391Y-87832089D01*
X105009439Y-87760221D01*
X105033141Y-87734036D01*
X105095584Y-87665050D01*
X105095585Y-87665049D01*
X105101612Y-87658390D01*
X105113653Y-87633539D01*
X105157585Y-87542862D01*
X105157585Y-87542861D01*
X105161499Y-87534783D01*
X105184286Y-87399336D01*
X105184431Y-87387500D01*
X105183584Y-87381582D01*
X105166232Y-87260423D01*
X105166232Y-87260421D01*
X105164959Y-87251536D01*
X105108110Y-87126503D01*
X105018453Y-87022451D01*
X104903196Y-86947744D01*
X104771603Y-86908390D01*
X104762627Y-86908335D01*
X104762626Y-86908335D01*
X104705080Y-86907984D01*
X104634255Y-86907551D01*
X104502192Y-86945295D01*
X104494605Y-86950082D01*
X104494603Y-86950083D01*
X104432850Y-86989046D01*
X104386031Y-87018587D01*
X104380088Y-87025316D01*
X104352996Y-87055992D01*
X104295109Y-87121536D01*
X104236736Y-87245866D01*
X104232119Y-87275522D01*
X104216986Y-87372709D01*
X104216986Y-87372713D01*
X104215605Y-87381582D01*
X104216769Y-87390484D01*
X104216769Y-87390487D01*
X104232250Y-87508873D01*
X104232699Y-87512303D01*
X104233414Y-87517773D01*
X104232624Y-87517876D01*
X104231774Y-87581554D01*
X104192596Y-87640762D01*
X104127627Y-87669390D01*
X104057495Y-87658348D01*
X104022268Y-87633539D01*
X102482811Y-86094082D01*
X103615605Y-86094082D01*
X103616769Y-86102984D01*
X103616769Y-86102987D01*
X103618554Y-86116633D01*
X103633414Y-86230273D01*
X103688732Y-86355992D01*
X103777111Y-86461132D01*
X103891447Y-86537240D01*
X104022549Y-86578199D01*
X104159876Y-86580716D01*
X104169109Y-86578199D01*
X104269026Y-86550959D01*
X104292391Y-86544589D01*
X104409439Y-86472721D01*
X104443627Y-86434951D01*
X104495584Y-86377550D01*
X104495585Y-86377549D01*
X104501612Y-86370890D01*
X104507957Y-86357795D01*
X104557585Y-86255362D01*
X104557585Y-86255361D01*
X104561499Y-86247283D01*
X104584286Y-86111836D01*
X104584431Y-86100000D01*
X104583584Y-86094082D01*
X104566232Y-85972923D01*
X104566232Y-85972921D01*
X104564959Y-85964036D01*
X104508110Y-85839003D01*
X104418453Y-85734951D01*
X104303196Y-85660244D01*
X104171603Y-85620890D01*
X104162627Y-85620835D01*
X104162626Y-85620835D01*
X104105080Y-85620484D01*
X104034255Y-85620051D01*
X103902192Y-85657795D01*
X103894605Y-85662582D01*
X103894603Y-85662583D01*
X103832850Y-85701546D01*
X103786031Y-85731087D01*
X103695109Y-85834036D01*
X103636736Y-85958366D01*
X103627027Y-86020724D01*
X103616986Y-86085209D01*
X103616986Y-86085213D01*
X103615605Y-86094082D01*
X102482811Y-86094082D01*
X101489811Y-85101082D01*
X101455785Y-85038770D01*
X101452906Y-85011987D01*
X101452906Y-84723013D01*
X101472908Y-84654892D01*
X101489811Y-84633918D01*
X101581531Y-84542198D01*
X101643843Y-84508172D01*
X101672934Y-84505314D01*
X101685898Y-84505552D01*
X101685902Y-84505552D01*
X101694876Y-84505716D01*
X101703539Y-84503354D01*
X101703541Y-84503354D01*
X101818727Y-84471951D01*
X101827391Y-84469589D01*
X101944439Y-84397721D01*
X101970895Y-84368493D01*
X102030584Y-84302550D01*
X102030585Y-84302549D01*
X102036612Y-84295890D01*
X102096499Y-84172283D01*
X102119286Y-84036836D01*
X102119431Y-84025000D01*
X102118584Y-84019082D01*
X102101232Y-83897923D01*
X102101232Y-83897921D01*
X102099959Y-83889036D01*
X102043110Y-83764003D01*
X101953453Y-83659951D01*
X101838196Y-83585244D01*
X101706603Y-83545890D01*
X101697627Y-83545835D01*
X101697626Y-83545835D01*
X101640080Y-83545484D01*
X101569255Y-83545051D01*
X101437192Y-83582795D01*
X101429605Y-83587582D01*
X101429603Y-83587583D01*
X101375092Y-83621977D01*
X101321031Y-83656087D01*
X101230109Y-83759036D01*
X101226295Y-83767159D01*
X101226294Y-83767161D01*
X101213165Y-83795125D01*
X101171736Y-83883366D01*
X101164386Y-83930573D01*
X101152029Y-84009937D01*
X101121785Y-84074169D01*
X101116624Y-84079647D01*
X101089095Y-84107176D01*
X101026783Y-84141202D01*
X100955968Y-84136137D01*
X100910905Y-84107176D01*
X100882573Y-84078844D01*
X100848547Y-84016532D01*
X100846941Y-84007612D01*
X100831232Y-83897923D01*
X100831232Y-83897921D01*
X100829959Y-83889036D01*
X100773110Y-83764003D01*
X100683453Y-83659951D01*
X100568196Y-83585244D01*
X100436603Y-83545890D01*
X100427627Y-83545835D01*
X100427626Y-83545835D01*
X100370080Y-83545484D01*
X100299255Y-83545051D01*
X100167192Y-83582795D01*
X100159605Y-83587582D01*
X100159603Y-83587583D01*
X100105092Y-83621977D01*
X100051031Y-83656087D01*
X99960109Y-83759036D01*
X99956295Y-83767159D01*
X99956294Y-83767161D01*
X99943165Y-83795125D01*
X99901736Y-83883366D01*
X99894386Y-83930573D01*
X99881986Y-84010209D01*
X99881986Y-84010213D01*
X99880605Y-84019082D01*
X92877906Y-84019082D01*
X92877906Y-83744808D01*
X92878385Y-83733827D01*
X92880736Y-83706956D01*
X92880736Y-83706955D01*
X92881696Y-83695980D01*
X92871860Y-83659269D01*
X92869485Y-83648556D01*
X92864799Y-83621977D01*
X92864798Y-83621974D01*
X92862884Y-83611120D01*
X92857370Y-83601570D01*
X92856137Y-83598182D01*
X92854619Y-83594927D01*
X92851767Y-83584283D01*
X92829971Y-83553155D01*
X92824067Y-83543887D01*
X92810576Y-83520520D01*
X92805065Y-83510975D01*
X92775953Y-83486547D01*
X92767850Y-83479121D01*
X92030879Y-82742150D01*
X92023452Y-82734046D01*
X92006111Y-82713380D01*
X91999025Y-82704935D01*
X91966116Y-82685935D01*
X91956852Y-82680033D01*
X91934746Y-82664554D01*
X91934745Y-82664554D01*
X91925717Y-82658232D01*
X91915071Y-82655379D01*
X91911809Y-82653858D01*
X91908424Y-82652626D01*
X91898880Y-82647116D01*
X91888027Y-82645202D01*
X91888026Y-82645202D01*
X91861456Y-82640517D01*
X91850727Y-82638138D01*
X91824671Y-82631156D01*
X91824666Y-82631156D01*
X91814020Y-82628303D01*
X91803036Y-82629264D01*
X91803035Y-82629264D01*
X91776177Y-82631614D01*
X91765195Y-82632094D01*
X91356330Y-82632094D01*
X91288209Y-82612092D01*
X91274073Y-82601473D01*
X91268453Y-82594951D01*
X91153196Y-82520244D01*
X91021603Y-82480890D01*
X91012627Y-82480835D01*
X91012626Y-82480835D01*
X90955080Y-82480484D01*
X90884255Y-82480051D01*
X90752192Y-82517795D01*
X90744605Y-82522582D01*
X90744603Y-82522583D01*
X90682850Y-82561546D01*
X90636031Y-82591087D01*
X90630088Y-82597816D01*
X90599815Y-82632094D01*
X90545109Y-82694036D01*
X90486736Y-82818366D01*
X90485356Y-82827232D01*
X90466986Y-82945209D01*
X90466986Y-82945213D01*
X90465605Y-82954082D01*
X90483414Y-83090273D01*
X90538732Y-83215992D01*
X90627111Y-83321132D01*
X90741447Y-83397240D01*
X90872549Y-83438199D01*
X91009876Y-83440716D01*
X91019109Y-83438199D01*
X91133727Y-83406951D01*
X91142391Y-83404589D01*
X91259439Y-83332721D01*
X91265462Y-83326066D01*
X91272370Y-83320332D01*
X91274004Y-83322300D01*
X91323028Y-83292271D01*
X91355905Y-83287906D01*
X91596987Y-83287906D01*
X91665108Y-83307908D01*
X91686082Y-83324811D01*
X92088555Y-83727284D01*
X92122581Y-83789596D01*
X92117516Y-83860411D01*
X92074969Y-83917247D01*
X92008449Y-83942058D01*
X91950081Y-83931288D01*
X91945717Y-83928232D01*
X91935071Y-83925379D01*
X91931809Y-83923858D01*
X91928424Y-83922626D01*
X91918880Y-83917116D01*
X91908027Y-83915202D01*
X91908026Y-83915202D01*
X91881456Y-83910517D01*
X91870727Y-83908138D01*
X91844671Y-83901156D01*
X91844666Y-83901156D01*
X91834020Y-83898303D01*
X91823036Y-83899264D01*
X91823035Y-83899264D01*
X91796177Y-83901614D01*
X91785195Y-83902094D01*
X91356330Y-83902094D01*
X91288209Y-83882092D01*
X91274073Y-83871473D01*
X91268453Y-83864951D01*
X91153196Y-83790244D01*
X91021603Y-83750890D01*
X91012627Y-83750835D01*
X91012626Y-83750835D01*
X90955080Y-83750484D01*
X90884255Y-83750051D01*
X90752192Y-83787795D01*
X90744605Y-83792582D01*
X90744603Y-83792583D01*
X90682850Y-83831546D01*
X90636031Y-83861087D01*
X90630088Y-83867816D01*
X90599815Y-83902094D01*
X90545109Y-83964036D01*
X90486736Y-84088366D01*
X90477705Y-84146368D01*
X90466986Y-84215209D01*
X90466986Y-84215213D01*
X90465605Y-84224082D01*
X90483414Y-84360273D01*
X90538732Y-84485992D01*
X90627111Y-84591132D01*
X90634588Y-84596109D01*
X90709273Y-84645823D01*
X90741447Y-84667240D01*
X90872549Y-84708199D01*
X91009876Y-84710716D01*
X91019109Y-84708199D01*
X91133727Y-84676951D01*
X91142391Y-84674589D01*
X91259439Y-84602721D01*
X91265462Y-84596066D01*
X91272370Y-84590332D01*
X91274004Y-84592300D01*
X91323028Y-84562271D01*
X91355905Y-84557906D01*
X91616987Y-84557906D01*
X91685108Y-84577908D01*
X91706082Y-84594811D01*
X91835189Y-84723918D01*
X91869215Y-84786230D01*
X91872094Y-84813013D01*
X91872094Y-90916745D01*
X91852092Y-90984866D01*
X91798436Y-91031359D01*
X91728162Y-91041463D01*
X91711897Y-91037001D01*
X91709301Y-91035266D01*
X91697132Y-91032845D01*
X91697131Y-91032845D01*
X91641135Y-91021707D01*
X91635067Y-91020500D01*
X91110085Y-91020500D01*
X90584934Y-91020501D01*
X90549182Y-91027612D01*
X90522874Y-91032844D01*
X90522872Y-91032845D01*
X90510699Y-91035266D01*
X90500379Y-91042161D01*
X90500378Y-91042162D01*
X90498361Y-91043510D01*
X90426516Y-91091516D01*
X90370266Y-91175699D01*
X90355500Y-91249933D01*
X90355500Y-91256120D01*
X90355501Y-93754675D01*
X90335499Y-93822796D01*
X90296737Y-93861237D01*
X90186031Y-93931087D01*
X90095109Y-94034036D01*
X90091295Y-94042159D01*
X90091294Y-94042161D01*
X90084942Y-94055691D01*
X90036736Y-94158366D01*
X90030295Y-94199736D01*
X90016986Y-94285209D01*
X90016986Y-94285213D01*
X90015605Y-94294082D01*
X90016769Y-94302984D01*
X90016769Y-94302987D01*
X90020444Y-94331087D01*
X90033414Y-94430273D01*
X90088732Y-94555992D01*
X90094510Y-94562865D01*
X90094510Y-94562866D01*
X90126988Y-94601503D01*
X90177111Y-94661132D01*
X90184588Y-94666109D01*
X90275367Y-94726536D01*
X90291447Y-94737240D01*
X90422549Y-94778199D01*
X90559876Y-94780716D01*
X90622955Y-94763519D01*
X90693937Y-94764900D01*
X90752905Y-94804438D01*
X90781137Y-94869580D01*
X90782094Y-94885083D01*
X90782094Y-95514175D01*
X90762092Y-95582296D01*
X90708436Y-95628789D01*
X90638162Y-95638893D01*
X90573582Y-95609399D01*
X90566999Y-95603270D01*
X89163465Y-94199736D01*
X89129439Y-94137424D01*
X89134504Y-94066609D01*
X89182556Y-94005877D01*
X89253484Y-93958484D01*
X89309734Y-93874301D01*
X89324500Y-93800067D01*
X89324499Y-91249934D01*
X89309734Y-91175699D01*
X89253484Y-91091516D01*
X89169301Y-91035266D01*
X89095067Y-91020500D01*
X88570085Y-91020500D01*
X88044934Y-91020501D01*
X88009182Y-91027612D01*
X87982874Y-91032844D01*
X87982872Y-91032845D01*
X87970699Y-91035266D01*
X87960379Y-91042161D01*
X87960378Y-91042162D01*
X87958361Y-91043510D01*
X87886516Y-91091516D01*
X87830266Y-91175699D01*
X87815500Y-91249933D01*
X84254000Y-91249933D01*
X84254000Y-90494082D01*
X85515605Y-90494082D01*
X85516769Y-90502984D01*
X85516769Y-90502987D01*
X85518554Y-90516633D01*
X85533414Y-90630273D01*
X85588732Y-90755992D01*
X85677111Y-90861132D01*
X85791447Y-90937240D01*
X85922549Y-90978199D01*
X86059876Y-90980716D01*
X86069109Y-90978199D01*
X86183727Y-90946951D01*
X86192391Y-90944589D01*
X86309439Y-90872721D01*
X86401612Y-90770890D01*
X86461499Y-90647283D01*
X86484286Y-90511836D01*
X86484431Y-90500000D01*
X86483584Y-90494082D01*
X86466232Y-90372923D01*
X86466232Y-90372921D01*
X86464959Y-90364036D01*
X86408110Y-90239003D01*
X86318453Y-90134951D01*
X86203196Y-90060244D01*
X86071603Y-90020890D01*
X86062627Y-90020835D01*
X86062626Y-90020835D01*
X86005080Y-90020484D01*
X85934255Y-90020051D01*
X85802192Y-90057795D01*
X85794605Y-90062582D01*
X85794603Y-90062583D01*
X85755946Y-90086974D01*
X85686031Y-90131087D01*
X85680088Y-90137816D01*
X85656722Y-90164273D01*
X85595109Y-90234036D01*
X85591295Y-90242159D01*
X85591294Y-90242161D01*
X85582387Y-90261132D01*
X85536736Y-90358366D01*
X85533648Y-90378199D01*
X85516986Y-90485209D01*
X85516986Y-90485213D01*
X85515605Y-90494082D01*
X84254000Y-90494082D01*
X84254000Y-81294082D01*
X87015605Y-81294082D01*
X87016769Y-81302984D01*
X87016769Y-81302987D01*
X87018554Y-81316633D01*
X87033414Y-81430273D01*
X87088732Y-81555992D01*
X87177111Y-81661132D01*
X87291447Y-81737240D01*
X87422549Y-81778199D01*
X87559876Y-81780716D01*
X87569109Y-81778199D01*
X87683727Y-81746951D01*
X87692391Y-81744589D01*
X87809439Y-81672721D01*
X87901612Y-81570890D01*
X87961499Y-81447283D01*
X87984286Y-81311836D01*
X87984431Y-81300000D01*
X87983584Y-81294082D01*
X87966232Y-81172923D01*
X87966232Y-81172921D01*
X87964959Y-81164036D01*
X87908110Y-81039003D01*
X87818453Y-80934951D01*
X87703196Y-80860244D01*
X87571603Y-80820890D01*
X87562627Y-80820835D01*
X87562626Y-80820835D01*
X87505080Y-80820484D01*
X87434255Y-80820051D01*
X87302192Y-80857795D01*
X87294605Y-80862582D01*
X87294603Y-80862583D01*
X87232850Y-80901546D01*
X87186031Y-80931087D01*
X87180088Y-80937816D01*
X87113825Y-81012844D01*
X87095109Y-81034036D01*
X87036736Y-81158366D01*
X87027027Y-81220724D01*
X87016986Y-81285209D01*
X87016986Y-81285213D01*
X87015605Y-81294082D01*
X84254000Y-81294082D01*
X84254000Y-81037425D01*
X84256421Y-81012844D01*
X84256555Y-81012170D01*
X84258976Y-81000000D01*
X84256555Y-80987828D01*
X84256555Y-80980246D01*
X84257162Y-80967896D01*
X84267118Y-80866812D01*
X84271935Y-80842592D01*
X84307187Y-80726383D01*
X84316631Y-80703582D01*
X84373876Y-80596483D01*
X84387594Y-80575953D01*
X84464626Y-80482091D01*
X84482091Y-80464626D01*
X84575953Y-80387594D01*
X84596483Y-80373876D01*
X84703582Y-80316631D01*
X84726383Y-80307187D01*
X84842592Y-80271935D01*
X84866812Y-80267118D01*
X84967896Y-80257162D01*
X84980246Y-80256555D01*
X84987828Y-80256555D01*
X85000000Y-80258976D01*
X85012847Y-80256421D01*
X85037425Y-80254000D01*
X114962575Y-80254000D01*
X114987153Y-80256421D01*
G37*
%TD.AperFunction*%
%TD*%
M02*
