%TF.GenerationSoftware,KiCad,Pcbnew,(6.0.1-0)*%
%TF.CreationDate,2022-02-09T14:27:10+08:00*%
%TF.ProjectId,usb_can,7573625f-6361-46e2-9e6b-696361645f70,rev?*%
%TF.SameCoordinates,Original*%
%TF.FileFunction,Copper,L2,Inr*%
%TF.FilePolarity,Positive*%
%FSLAX46Y46*%
G04 Gerber Fmt 4.6, Leading zero omitted, Abs format (unit mm)*
G04 Created by KiCad (PCBNEW (6.0.1-0)) date 2022-02-09 14:27:10*
%MOMM*%
%LPD*%
G01*
G04 APERTURE LIST*
%TA.AperFunction,ComponentPad*%
%ADD10O,1.100000X1.800000*%
%TD*%
%TA.AperFunction,ViaPad*%
%ADD11C,0.450000*%
%TD*%
G04 APERTURE END LIST*
D10*
%TO.N,GND*%
%TO.C,J1*%
X103900000Y-124400000D03*
X111100000Y-127870000D03*
X103900000Y-127870000D03*
X111100000Y-124400000D03*
%TD*%
D11*
%TO.N,Net-(J1-Pad4)*%
X108150000Y-126700000D03*
X98150000Y-123912500D03*
%TO.N,GND*%
X102500000Y-110000000D03*
X105000000Y-105000000D03*
X88000000Y-109000000D03*
X91900000Y-114400000D03*
X102500000Y-105000000D03*
X105000000Y-98500000D03*
X97500000Y-98500000D03*
X102500000Y-102500000D03*
X107500000Y-98500000D03*
X91100000Y-110800000D03*
X107500000Y-105000000D03*
X92500000Y-105000000D03*
X86000000Y-107500000D03*
X102500000Y-107500000D03*
X100000000Y-98500000D03*
X94000000Y-105000000D03*
X94000000Y-110000000D03*
X105000000Y-107500000D03*
X100000000Y-105000000D03*
X100000000Y-102500000D03*
X107500000Y-107500000D03*
X108900000Y-97000000D03*
X92500000Y-107500000D03*
X88000000Y-106000000D03*
X108900000Y-103600000D03*
X107500000Y-102500000D03*
X92500000Y-110000000D03*
X99200000Y-95700000D03*
X100000000Y-107500000D03*
X97500000Y-116900000D03*
X105000000Y-110000000D03*
X103600000Y-96000000D03*
X90900000Y-104000000D03*
X94000000Y-107500000D03*
X109000000Y-109100000D03*
X107500000Y-110000000D03*
X105000000Y-102500000D03*
X102500000Y-98500000D03*
X100000000Y-110000000D03*
X102525000Y-116900000D03*
X92500000Y-102500000D03*
%TO.N,+3V3*%
X101635000Y-88975000D03*
X111635000Y-88975000D03*
X102520000Y-117640000D03*
X86000000Y-90500000D03*
X87500000Y-121000000D03*
X89500000Y-121000000D03*
X94800000Y-86800000D03*
X87500000Y-123000000D03*
X87362500Y-113300000D03*
X97410000Y-117640000D03*
X87500000Y-81300000D03*
X89500000Y-122000000D03*
X87362500Y-111700000D03*
X97887500Y-92500000D03*
X87500000Y-125000000D03*
X102900000Y-92450000D03*
X88500000Y-125000000D03*
X90500000Y-121000000D03*
X90500000Y-122000000D03*
X90500000Y-124000000D03*
X87362500Y-98750000D03*
X89500000Y-125000000D03*
X89500000Y-123000000D03*
X94000000Y-86100000D03*
X112637500Y-102750000D03*
X87362500Y-103300000D03*
X104700000Y-87387500D03*
X104100000Y-86100000D03*
X90500000Y-123000000D03*
X92250000Y-117637500D03*
X89500000Y-124000000D03*
X114700000Y-87387500D03*
X112637500Y-108250000D03*
X87500000Y-124000000D03*
X90500000Y-94300000D03*
X88500000Y-121000000D03*
X98360000Y-101030000D03*
X88500000Y-123000000D03*
X110250000Y-116387500D03*
X111100000Y-94862500D03*
X87500000Y-122000000D03*
X88500000Y-124000000D03*
X88500000Y-122000000D03*
%TO.N,SWDIO*%
X90950000Y-82960000D03*
X94800000Y-97750000D03*
%TO.N,SWCLK*%
X90950000Y-84230000D03*
X94140000Y-97660000D03*
%TO.N,SPI1_NSS*%
X107225000Y-96250000D03*
%TO.N,USART1_TX*%
X91400000Y-96900000D03*
%TO.N,SPI1_SCK*%
X98300000Y-113500000D03*
%TO.N,USART1_RX*%
X92325000Y-97150000D03*
%TO.N,SPI1_MOSI*%
X103300000Y-114300000D03*
%TO.N,SPI1_MISO*%
X100900000Y-113900000D03*
%TO.N,CAN1_H*%
X110365000Y-84025000D03*
%TO.N,CAN2_H*%
X100365000Y-84025000D03*
%TO.N,CAN1_L*%
X111635000Y-84025000D03*
%TO.N,CAN2_L*%
X101635000Y-84025000D03*
%TO.N,USB_OTG_HS_VBUS*%
X96400000Y-122087500D03*
X96200000Y-112200000D03*
%TO.N,USB_OTG_HS_ID*%
X100600000Y-112700000D03*
X98150000Y-122087500D03*
%TO.N,NRST*%
X91700000Y-108250000D03*
X86000000Y-94700000D03*
%TO.N,USART2_TX*%
X90600000Y-113800000D03*
%TO.N,USART2_RX*%
X92700000Y-113900000D03*
%TO.N,I2C1_SDA*%
X95912500Y-88000000D03*
X98100000Y-96100000D03*
%TO.N,I2C1_SCL*%
X95900000Y-89900000D03*
X95800000Y-96600000D03*
%TO.N,/VBUS*%
X95200000Y-127000000D03*
X96400000Y-123912500D03*
%TO.N,Net-(TP1-Pad1)*%
X108400000Y-105500000D03*
%TO.N,Net-(TP2-Pad1)*%
X108400000Y-111000000D03*
%TD*%
%TA.AperFunction,Conductor*%
%TO.N,GND*%
G36*
X114987153Y-80256421D02*
G01*
X115000000Y-80258976D01*
X115012172Y-80256555D01*
X115019754Y-80256555D01*
X115032104Y-80257162D01*
X115133188Y-80267118D01*
X115157408Y-80271935D01*
X115273617Y-80307187D01*
X115296418Y-80316631D01*
X115403517Y-80373876D01*
X115424047Y-80387594D01*
X115517909Y-80464626D01*
X115535374Y-80482091D01*
X115612406Y-80575953D01*
X115626124Y-80596483D01*
X115683369Y-80703582D01*
X115692813Y-80726383D01*
X115728065Y-80842592D01*
X115732882Y-80866812D01*
X115742838Y-80967896D01*
X115743445Y-80980246D01*
X115743445Y-80987828D01*
X115741024Y-81000000D01*
X115743445Y-81012170D01*
X115743579Y-81012844D01*
X115746000Y-81037425D01*
X115746000Y-128962575D01*
X115743579Y-128987153D01*
X115741024Y-129000000D01*
X115743445Y-129012172D01*
X115743445Y-129019754D01*
X115742838Y-129032104D01*
X115732882Y-129133188D01*
X115728065Y-129157408D01*
X115692813Y-129273617D01*
X115683369Y-129296418D01*
X115626124Y-129403517D01*
X115612406Y-129424047D01*
X115535374Y-129517909D01*
X115517909Y-129535374D01*
X115424047Y-129612406D01*
X115403517Y-129626124D01*
X115296418Y-129683369D01*
X115273617Y-129692813D01*
X115157408Y-129728065D01*
X115133188Y-129732882D01*
X115032104Y-129742838D01*
X115019754Y-129743445D01*
X115012172Y-129743445D01*
X115000000Y-129741024D01*
X114987153Y-129743579D01*
X114962575Y-129746000D01*
X85037425Y-129746000D01*
X85012847Y-129743579D01*
X85000000Y-129741024D01*
X84987828Y-129743445D01*
X84980246Y-129743445D01*
X84967896Y-129742838D01*
X84866812Y-129732882D01*
X84842592Y-129728065D01*
X84726383Y-129692813D01*
X84703582Y-129683369D01*
X84596483Y-129626124D01*
X84575953Y-129612406D01*
X84482091Y-129535374D01*
X84464626Y-129517909D01*
X84387594Y-129424047D01*
X84373876Y-129403517D01*
X84316631Y-129296418D01*
X84307187Y-129273617D01*
X84271935Y-129157408D01*
X84267118Y-129133188D01*
X84257162Y-129032104D01*
X84256555Y-129019754D01*
X84256555Y-129012172D01*
X84258976Y-129000000D01*
X84256421Y-128987153D01*
X84254000Y-128962575D01*
X84254000Y-128261828D01*
X103096000Y-128261828D01*
X103096393Y-128268852D01*
X103110234Y-128392253D01*
X103113336Y-128405906D01*
X103168021Y-128562938D01*
X103174074Y-128575571D01*
X103262191Y-128716589D01*
X103270888Y-128727561D01*
X103388060Y-128845555D01*
X103398971Y-128854327D01*
X103539366Y-128943425D01*
X103551962Y-128949568D01*
X103708609Y-129005348D01*
X103722235Y-129008544D01*
X103755011Y-129012452D01*
X103769418Y-129010025D01*
X103773000Y-128997257D01*
X103773000Y-128997010D01*
X104027000Y-128997010D01*
X104031197Y-129011302D01*
X104043798Y-129013360D01*
X104066735Y-129010949D01*
X104080406Y-129007944D01*
X104237825Y-128954354D01*
X104250491Y-128948393D01*
X104392124Y-128861260D01*
X104403158Y-128852640D01*
X104521961Y-128736299D01*
X104530818Y-128725440D01*
X104620889Y-128585676D01*
X104627121Y-128573123D01*
X104683991Y-128416873D01*
X104687284Y-128403258D01*
X104703503Y-128274870D01*
X104704000Y-128266980D01*
X104704000Y-128261828D01*
X110296000Y-128261828D01*
X110296393Y-128268852D01*
X110310234Y-128392253D01*
X110313336Y-128405906D01*
X110368021Y-128562938D01*
X110374074Y-128575571D01*
X110462191Y-128716589D01*
X110470888Y-128727561D01*
X110588060Y-128845555D01*
X110598971Y-128854327D01*
X110739366Y-128943425D01*
X110751962Y-128949568D01*
X110908609Y-129005348D01*
X110922235Y-129008544D01*
X110955011Y-129012452D01*
X110969418Y-129010025D01*
X110973000Y-128997257D01*
X110973000Y-128997010D01*
X111227000Y-128997010D01*
X111231197Y-129011302D01*
X111243798Y-129013360D01*
X111266735Y-129010949D01*
X111280406Y-129007944D01*
X111437825Y-128954354D01*
X111450491Y-128948393D01*
X111592124Y-128861260D01*
X111603158Y-128852640D01*
X111721961Y-128736299D01*
X111730818Y-128725440D01*
X111820889Y-128585676D01*
X111827121Y-128573123D01*
X111883991Y-128416873D01*
X111887284Y-128403258D01*
X111903503Y-128274870D01*
X111904000Y-128266980D01*
X111904000Y-128015115D01*
X111899525Y-127999876D01*
X111898135Y-127998671D01*
X111890452Y-127997000D01*
X111245115Y-127997000D01*
X111229876Y-128001475D01*
X111228671Y-128002865D01*
X111227000Y-128010548D01*
X111227000Y-128997010D01*
X110973000Y-128997010D01*
X110973000Y-128015115D01*
X110968525Y-127999876D01*
X110967135Y-127998671D01*
X110959452Y-127997000D01*
X110314115Y-127997000D01*
X110298876Y-128001475D01*
X110297671Y-128002865D01*
X110296000Y-128010548D01*
X110296000Y-128261828D01*
X104704000Y-128261828D01*
X104704000Y-128015115D01*
X104699525Y-127999876D01*
X104698135Y-127998671D01*
X104690452Y-127997000D01*
X104045115Y-127997000D01*
X104029876Y-128001475D01*
X104028671Y-128002865D01*
X104027000Y-128010548D01*
X104027000Y-128997010D01*
X103773000Y-128997010D01*
X103773000Y-128015115D01*
X103768525Y-127999876D01*
X103767135Y-127998671D01*
X103759452Y-127997000D01*
X103114115Y-127997000D01*
X103098876Y-128001475D01*
X103097671Y-128002865D01*
X103096000Y-128010548D01*
X103096000Y-128261828D01*
X84254000Y-128261828D01*
X84254000Y-127724885D01*
X103096000Y-127724885D01*
X103100475Y-127740124D01*
X103101865Y-127741329D01*
X103109548Y-127743000D01*
X103754885Y-127743000D01*
X103770124Y-127738525D01*
X103771329Y-127737135D01*
X103773000Y-127729452D01*
X103773000Y-127724885D01*
X104027000Y-127724885D01*
X104031475Y-127740124D01*
X104032865Y-127741329D01*
X104040548Y-127743000D01*
X104685885Y-127743000D01*
X104701124Y-127738525D01*
X104702329Y-127737135D01*
X104704000Y-127729452D01*
X104704000Y-127724885D01*
X110296000Y-127724885D01*
X110300475Y-127740124D01*
X110301865Y-127741329D01*
X110309548Y-127743000D01*
X110954885Y-127743000D01*
X110970124Y-127738525D01*
X110971329Y-127737135D01*
X110973000Y-127729452D01*
X110973000Y-127724885D01*
X111227000Y-127724885D01*
X111231475Y-127740124D01*
X111232865Y-127741329D01*
X111240548Y-127743000D01*
X111885885Y-127743000D01*
X111901124Y-127738525D01*
X111902329Y-127737135D01*
X111904000Y-127729452D01*
X111904000Y-127478172D01*
X111903607Y-127471148D01*
X111889766Y-127347747D01*
X111886664Y-127334094D01*
X111831979Y-127177062D01*
X111825926Y-127164429D01*
X111737809Y-127023411D01*
X111729112Y-127012439D01*
X111611940Y-126894445D01*
X111601029Y-126885673D01*
X111460634Y-126796575D01*
X111448038Y-126790432D01*
X111291391Y-126734652D01*
X111277765Y-126731456D01*
X111244989Y-126727548D01*
X111230582Y-126729975D01*
X111227000Y-126742743D01*
X111227000Y-127724885D01*
X110973000Y-127724885D01*
X110973000Y-126742990D01*
X110968803Y-126728698D01*
X110956202Y-126726640D01*
X110933265Y-126729051D01*
X110919594Y-126732056D01*
X110762175Y-126785646D01*
X110749509Y-126791607D01*
X110607876Y-126878740D01*
X110596842Y-126887360D01*
X110478039Y-127003701D01*
X110469182Y-127014560D01*
X110379111Y-127154324D01*
X110372879Y-127166877D01*
X110316009Y-127323127D01*
X110312716Y-127336742D01*
X110296497Y-127465130D01*
X110296000Y-127473020D01*
X110296000Y-127724885D01*
X104704000Y-127724885D01*
X104704000Y-127478172D01*
X104703607Y-127471148D01*
X104689766Y-127347747D01*
X104686664Y-127334094D01*
X104631979Y-127177062D01*
X104625926Y-127164429D01*
X104537809Y-127023411D01*
X104529112Y-127012439D01*
X104411940Y-126894445D01*
X104401029Y-126885673D01*
X104260634Y-126796575D01*
X104248038Y-126790432D01*
X104091391Y-126734652D01*
X104077765Y-126731456D01*
X104044989Y-126727548D01*
X104030582Y-126729975D01*
X104027000Y-126742743D01*
X104027000Y-127724885D01*
X103773000Y-127724885D01*
X103773000Y-126742990D01*
X103768803Y-126728698D01*
X103756202Y-126726640D01*
X103733265Y-126729051D01*
X103719594Y-126732056D01*
X103562175Y-126785646D01*
X103549509Y-126791607D01*
X103407876Y-126878740D01*
X103396842Y-126887360D01*
X103278039Y-127003701D01*
X103269182Y-127014560D01*
X103179111Y-127154324D01*
X103172879Y-127166877D01*
X103116009Y-127323127D01*
X103112716Y-127336742D01*
X103096497Y-127465130D01*
X103096000Y-127473020D01*
X103096000Y-127724885D01*
X84254000Y-127724885D01*
X84254000Y-126994082D01*
X94715605Y-126994082D01*
X94716769Y-127002984D01*
X94716769Y-127002987D01*
X94718554Y-127016633D01*
X94733414Y-127130273D01*
X94788732Y-127255992D01*
X94794510Y-127262865D01*
X94794510Y-127262866D01*
X94854383Y-127334094D01*
X94877111Y-127361132D01*
X94991447Y-127437240D01*
X95122549Y-127478199D01*
X95259876Y-127480716D01*
X95269109Y-127478199D01*
X95383727Y-127446951D01*
X95392391Y-127444589D01*
X95509439Y-127372721D01*
X95526153Y-127354256D01*
X95595584Y-127277550D01*
X95595585Y-127277549D01*
X95601612Y-127270890D01*
X95646446Y-127178354D01*
X95657585Y-127155362D01*
X95657585Y-127155361D01*
X95661499Y-127147283D01*
X95684286Y-127011836D01*
X95684431Y-127000000D01*
X95683584Y-126994082D01*
X95666232Y-126872923D01*
X95666232Y-126872921D01*
X95664959Y-126864036D01*
X95608110Y-126739003D01*
X95569404Y-126694082D01*
X107665605Y-126694082D01*
X107666769Y-126702984D01*
X107666769Y-126702987D01*
X107670910Y-126734652D01*
X107683414Y-126830273D01*
X107738732Y-126955992D01*
X107744510Y-126962865D01*
X107744510Y-126962866D01*
X107786180Y-127012439D01*
X107827111Y-127061132D01*
X107834588Y-127066109D01*
X107930981Y-127130273D01*
X107941447Y-127137240D01*
X108072549Y-127178199D01*
X108209876Y-127180716D01*
X108219109Y-127178199D01*
X108333727Y-127146951D01*
X108342391Y-127144589D01*
X108459439Y-127072721D01*
X108476153Y-127054256D01*
X108545584Y-126977550D01*
X108545585Y-126977549D01*
X108551612Y-126970890D01*
X108588650Y-126894445D01*
X108607585Y-126855362D01*
X108607585Y-126855361D01*
X108611499Y-126847283D01*
X108634286Y-126711836D01*
X108634431Y-126700000D01*
X108633584Y-126694082D01*
X108616232Y-126572923D01*
X108616232Y-126572921D01*
X108614959Y-126564036D01*
X108558110Y-126439003D01*
X108468453Y-126334951D01*
X108353196Y-126260244D01*
X108221603Y-126220890D01*
X108212627Y-126220835D01*
X108212626Y-126220835D01*
X108155080Y-126220484D01*
X108084255Y-126220051D01*
X107952192Y-126257795D01*
X107944605Y-126262582D01*
X107944603Y-126262583D01*
X107882850Y-126301546D01*
X107836031Y-126331087D01*
X107745109Y-126434036D01*
X107686736Y-126558366D01*
X107677027Y-126620724D01*
X107666986Y-126685209D01*
X107666986Y-126685213D01*
X107665605Y-126694082D01*
X95569404Y-126694082D01*
X95518453Y-126634951D01*
X95403196Y-126560244D01*
X95271603Y-126520890D01*
X95262627Y-126520835D01*
X95262626Y-126520835D01*
X95205080Y-126520484D01*
X95134255Y-126520051D01*
X95002192Y-126557795D01*
X94994605Y-126562582D01*
X94994603Y-126562583D01*
X94932850Y-126601546D01*
X94886031Y-126631087D01*
X94795109Y-126734036D01*
X94736736Y-126858366D01*
X94727027Y-126920724D01*
X94716986Y-126985209D01*
X94716986Y-126985213D01*
X94715605Y-126994082D01*
X84254000Y-126994082D01*
X84254000Y-125753560D01*
X104966577Y-125753560D01*
X104995252Y-125895772D01*
X104999152Y-125903426D01*
X105057214Y-126017381D01*
X105057216Y-126017384D01*
X105061114Y-126025034D01*
X105159311Y-126131822D01*
X105282608Y-126208270D01*
X105290855Y-126210666D01*
X105415584Y-126246903D01*
X105415587Y-126246904D01*
X105421922Y-126248744D01*
X105429152Y-126249275D01*
X105429911Y-126249331D01*
X105429919Y-126249331D01*
X105432216Y-126249500D01*
X105536340Y-126249500D01*
X105540585Y-126248918D01*
X105540592Y-126248918D01*
X105599014Y-126240915D01*
X105643732Y-126234789D01*
X105669905Y-126223463D01*
X105768993Y-126180584D01*
X105768996Y-126180582D01*
X105776874Y-126177173D01*
X105889618Y-126085875D01*
X105973656Y-125967622D01*
X106022798Y-125831124D01*
X106028494Y-125753560D01*
X108966577Y-125753560D01*
X108995252Y-125895772D01*
X108999152Y-125903426D01*
X109057214Y-126017381D01*
X109057216Y-126017384D01*
X109061114Y-126025034D01*
X109159311Y-126131822D01*
X109282608Y-126208270D01*
X109290855Y-126210666D01*
X109415584Y-126246903D01*
X109415587Y-126246904D01*
X109421922Y-126248744D01*
X109429152Y-126249275D01*
X109429911Y-126249331D01*
X109429919Y-126249331D01*
X109432216Y-126249500D01*
X109536340Y-126249500D01*
X109540585Y-126248918D01*
X109540592Y-126248918D01*
X109599014Y-126240915D01*
X109643732Y-126234789D01*
X109669905Y-126223463D01*
X109768993Y-126180584D01*
X109768996Y-126180582D01*
X109776874Y-126177173D01*
X109889618Y-126085875D01*
X109973656Y-125967622D01*
X110022798Y-125831124D01*
X110033423Y-125686440D01*
X110004748Y-125544228D01*
X109971204Y-125478393D01*
X109942786Y-125422619D01*
X109942784Y-125422616D01*
X109938886Y-125414966D01*
X109840689Y-125308178D01*
X109791292Y-125277550D01*
X109724692Y-125236256D01*
X109724691Y-125236255D01*
X109717392Y-125231730D01*
X109686558Y-125222772D01*
X109584416Y-125193097D01*
X109584413Y-125193096D01*
X109578078Y-125191256D01*
X109570848Y-125190725D01*
X109570089Y-125190669D01*
X109570081Y-125190669D01*
X109567784Y-125190500D01*
X109463660Y-125190500D01*
X109459415Y-125191082D01*
X109459408Y-125191082D01*
X109400986Y-125199085D01*
X109356268Y-125205211D01*
X109348384Y-125208623D01*
X109348383Y-125208623D01*
X109231007Y-125259416D01*
X109231004Y-125259418D01*
X109223126Y-125262827D01*
X109110382Y-125354125D01*
X109026344Y-125472378D01*
X108977202Y-125608876D01*
X108966577Y-125753560D01*
X106028494Y-125753560D01*
X106033423Y-125686440D01*
X106004748Y-125544228D01*
X105971204Y-125478393D01*
X105942786Y-125422619D01*
X105942784Y-125422616D01*
X105938886Y-125414966D01*
X105840689Y-125308178D01*
X105791292Y-125277550D01*
X105724692Y-125236256D01*
X105724691Y-125236255D01*
X105717392Y-125231730D01*
X105686558Y-125222772D01*
X105584416Y-125193097D01*
X105584413Y-125193096D01*
X105578078Y-125191256D01*
X105570848Y-125190725D01*
X105570089Y-125190669D01*
X105570081Y-125190669D01*
X105567784Y-125190500D01*
X105463660Y-125190500D01*
X105459415Y-125191082D01*
X105459408Y-125191082D01*
X105400986Y-125199085D01*
X105356268Y-125205211D01*
X105348384Y-125208623D01*
X105348383Y-125208623D01*
X105231007Y-125259416D01*
X105231004Y-125259418D01*
X105223126Y-125262827D01*
X105110382Y-125354125D01*
X105026344Y-125472378D01*
X104977202Y-125608876D01*
X104966577Y-125753560D01*
X84254000Y-125753560D01*
X84254000Y-124994082D01*
X87015605Y-124994082D01*
X87016769Y-125002984D01*
X87016769Y-125002987D01*
X87018554Y-125016633D01*
X87033414Y-125130273D01*
X87059915Y-125190500D01*
X87084595Y-125246589D01*
X87088732Y-125255992D01*
X87094510Y-125262865D01*
X87094510Y-125262866D01*
X87166677Y-125348719D01*
X87177111Y-125361132D01*
X87291447Y-125437240D01*
X87422549Y-125478199D01*
X87559876Y-125480716D01*
X87569109Y-125478199D01*
X87683727Y-125446951D01*
X87692391Y-125444589D01*
X87790537Y-125384327D01*
X87801791Y-125377417D01*
X87809439Y-125372721D01*
X87897092Y-125275884D01*
X87897094Y-125275882D01*
X87901612Y-125270890D01*
X87902333Y-125271542D01*
X87950898Y-125231313D01*
X88021379Y-125222772D01*
X88085289Y-125253692D01*
X88097131Y-125265984D01*
X88177111Y-125361132D01*
X88291447Y-125437240D01*
X88422549Y-125478199D01*
X88559876Y-125480716D01*
X88569109Y-125478199D01*
X88683727Y-125446951D01*
X88692391Y-125444589D01*
X88790537Y-125384327D01*
X88801791Y-125377417D01*
X88809439Y-125372721D01*
X88897092Y-125275884D01*
X88897094Y-125275882D01*
X88901612Y-125270890D01*
X88902333Y-125271542D01*
X88950898Y-125231313D01*
X89021379Y-125222772D01*
X89085289Y-125253692D01*
X89097131Y-125265984D01*
X89177111Y-125361132D01*
X89291447Y-125437240D01*
X89422549Y-125478199D01*
X89559876Y-125480716D01*
X89569109Y-125478199D01*
X89683727Y-125446951D01*
X89692391Y-125444589D01*
X89790537Y-125384327D01*
X89801791Y-125377417D01*
X89809439Y-125372721D01*
X89867861Y-125308178D01*
X89895584Y-125277550D01*
X89895586Y-125277547D01*
X89901612Y-125270890D01*
X89909098Y-125255440D01*
X89957585Y-125155362D01*
X89957585Y-125155361D01*
X89961499Y-125147283D01*
X89984286Y-125011836D01*
X89984431Y-125000000D01*
X89983584Y-124994082D01*
X89966232Y-124872923D01*
X89966232Y-124872921D01*
X89964959Y-124864036D01*
X89932128Y-124791828D01*
X103096000Y-124791828D01*
X103096393Y-124798852D01*
X103110234Y-124922253D01*
X103113336Y-124935906D01*
X103168021Y-125092938D01*
X103174074Y-125105571D01*
X103262191Y-125246589D01*
X103270888Y-125257561D01*
X103388060Y-125375555D01*
X103398971Y-125384327D01*
X103539366Y-125473425D01*
X103551962Y-125479568D01*
X103708609Y-125535348D01*
X103722235Y-125538544D01*
X103755011Y-125542452D01*
X103769418Y-125540025D01*
X103773000Y-125527257D01*
X103773000Y-125527010D01*
X104027000Y-125527010D01*
X104031197Y-125541302D01*
X104043798Y-125543360D01*
X104066735Y-125540949D01*
X104080406Y-125537944D01*
X104237825Y-125484354D01*
X104250491Y-125478393D01*
X104392124Y-125391260D01*
X104403158Y-125382640D01*
X104521961Y-125266299D01*
X104530818Y-125255440D01*
X104620889Y-125115676D01*
X104627121Y-125103123D01*
X104683991Y-124946873D01*
X104687284Y-124933258D01*
X104703503Y-124804870D01*
X104704000Y-124796980D01*
X104704000Y-124791828D01*
X110296000Y-124791828D01*
X110296393Y-124798852D01*
X110310234Y-124922253D01*
X110313336Y-124935906D01*
X110368021Y-125092938D01*
X110374074Y-125105571D01*
X110462191Y-125246589D01*
X110470888Y-125257561D01*
X110588060Y-125375555D01*
X110598971Y-125384327D01*
X110739366Y-125473425D01*
X110751962Y-125479568D01*
X110908609Y-125535348D01*
X110922235Y-125538544D01*
X110955011Y-125542452D01*
X110969418Y-125540025D01*
X110973000Y-125527257D01*
X110973000Y-125527010D01*
X111227000Y-125527010D01*
X111231197Y-125541302D01*
X111243798Y-125543360D01*
X111266735Y-125540949D01*
X111280406Y-125537944D01*
X111437825Y-125484354D01*
X111450491Y-125478393D01*
X111592124Y-125391260D01*
X111603158Y-125382640D01*
X111721961Y-125266299D01*
X111730818Y-125255440D01*
X111820889Y-125115676D01*
X111827121Y-125103123D01*
X111883991Y-124946873D01*
X111887284Y-124933258D01*
X111903503Y-124804870D01*
X111904000Y-124796980D01*
X111904000Y-124545115D01*
X111899525Y-124529876D01*
X111898135Y-124528671D01*
X111890452Y-124527000D01*
X111245115Y-124527000D01*
X111229876Y-124531475D01*
X111228671Y-124532865D01*
X111227000Y-124540548D01*
X111227000Y-125527010D01*
X110973000Y-125527010D01*
X110973000Y-124545115D01*
X110968525Y-124529876D01*
X110967135Y-124528671D01*
X110959452Y-124527000D01*
X110314115Y-124527000D01*
X110298876Y-124531475D01*
X110297671Y-124532865D01*
X110296000Y-124540548D01*
X110296000Y-124791828D01*
X104704000Y-124791828D01*
X104704000Y-124545115D01*
X104699525Y-124529876D01*
X104698135Y-124528671D01*
X104690452Y-124527000D01*
X104045115Y-124527000D01*
X104029876Y-124531475D01*
X104028671Y-124532865D01*
X104027000Y-124540548D01*
X104027000Y-125527010D01*
X103773000Y-125527010D01*
X103773000Y-124545115D01*
X103768525Y-124529876D01*
X103767135Y-124528671D01*
X103759452Y-124527000D01*
X103114115Y-124527000D01*
X103098876Y-124531475D01*
X103097671Y-124532865D01*
X103096000Y-124540548D01*
X103096000Y-124791828D01*
X89932128Y-124791828D01*
X89908110Y-124739003D01*
X89818453Y-124634951D01*
X89773882Y-124606061D01*
X89727598Y-124552224D01*
X89717768Y-124481912D01*
X89747513Y-124417446D01*
X89776487Y-124392954D01*
X89801788Y-124377419D01*
X89801789Y-124377418D01*
X89809439Y-124372721D01*
X89821451Y-124359451D01*
X89841846Y-124336918D01*
X89897092Y-124275884D01*
X89897094Y-124275882D01*
X89901612Y-124270890D01*
X89902333Y-124271542D01*
X89950898Y-124231313D01*
X90021379Y-124222772D01*
X90085289Y-124253692D01*
X90097131Y-124265984D01*
X90177111Y-124361132D01*
X90291447Y-124437240D01*
X90422549Y-124478199D01*
X90559876Y-124480716D01*
X90569109Y-124478199D01*
X90626133Y-124462653D01*
X90692391Y-124444589D01*
X90776060Y-124393216D01*
X90801791Y-124377417D01*
X90809439Y-124372721D01*
X90819929Y-124361132D01*
X90895584Y-124277550D01*
X90895586Y-124277547D01*
X90901612Y-124270890D01*
X90909367Y-124254885D01*
X90957585Y-124155362D01*
X90957585Y-124155361D01*
X90961499Y-124147283D01*
X90984286Y-124011836D01*
X90984431Y-124000000D01*
X90983584Y-123994082D01*
X90971053Y-123906582D01*
X95915605Y-123906582D01*
X95916769Y-123915484D01*
X95916769Y-123915487D01*
X95918554Y-123929133D01*
X95933414Y-124042773D01*
X95988732Y-124168492D01*
X95994510Y-124175365D01*
X95994510Y-124175366D01*
X96068011Y-124262806D01*
X96077111Y-124273632D01*
X96191447Y-124349740D01*
X96322549Y-124390699D01*
X96459876Y-124393216D01*
X96469109Y-124390699D01*
X96583727Y-124359451D01*
X96592391Y-124357089D01*
X96709439Y-124285221D01*
X96715463Y-124278566D01*
X96795584Y-124190050D01*
X96795585Y-124190049D01*
X96801612Y-124183390D01*
X96815192Y-124155362D01*
X96857585Y-124067862D01*
X96857585Y-124067861D01*
X96861499Y-124059783D01*
X96884286Y-123924336D01*
X96884431Y-123912500D01*
X96883584Y-123906582D01*
X97665605Y-123906582D01*
X97666769Y-123915484D01*
X97666769Y-123915487D01*
X97668554Y-123929133D01*
X97683414Y-124042773D01*
X97738732Y-124168492D01*
X97744510Y-124175365D01*
X97744510Y-124175366D01*
X97818011Y-124262806D01*
X97827111Y-124273632D01*
X97941447Y-124349740D01*
X98072549Y-124390699D01*
X98209876Y-124393216D01*
X98219109Y-124390699D01*
X98333727Y-124359451D01*
X98342391Y-124357089D01*
X98459439Y-124285221D01*
X98465463Y-124278566D01*
X98486898Y-124254885D01*
X103096000Y-124254885D01*
X103100475Y-124270124D01*
X103101865Y-124271329D01*
X103109548Y-124273000D01*
X103754885Y-124273000D01*
X103770124Y-124268525D01*
X103771329Y-124267135D01*
X103773000Y-124259452D01*
X103773000Y-124254885D01*
X104027000Y-124254885D01*
X104031475Y-124270124D01*
X104032865Y-124271329D01*
X104040548Y-124273000D01*
X104685885Y-124273000D01*
X104701124Y-124268525D01*
X104702329Y-124267135D01*
X104704000Y-124259452D01*
X104704000Y-124254885D01*
X110296000Y-124254885D01*
X110300475Y-124270124D01*
X110301865Y-124271329D01*
X110309548Y-124273000D01*
X110954885Y-124273000D01*
X110970124Y-124268525D01*
X110971329Y-124267135D01*
X110973000Y-124259452D01*
X110973000Y-124254885D01*
X111227000Y-124254885D01*
X111231475Y-124270124D01*
X111232865Y-124271329D01*
X111240548Y-124273000D01*
X111885885Y-124273000D01*
X111901124Y-124268525D01*
X111902329Y-124267135D01*
X111904000Y-124259452D01*
X111904000Y-124008172D01*
X111903607Y-124001148D01*
X111889766Y-123877747D01*
X111886664Y-123864094D01*
X111831979Y-123707062D01*
X111825926Y-123694429D01*
X111737809Y-123553411D01*
X111729112Y-123542439D01*
X111611940Y-123424445D01*
X111601029Y-123415673D01*
X111460634Y-123326575D01*
X111448038Y-123320432D01*
X111291391Y-123264652D01*
X111277765Y-123261456D01*
X111244989Y-123257548D01*
X111230582Y-123259975D01*
X111227000Y-123272743D01*
X111227000Y-124254885D01*
X110973000Y-124254885D01*
X110973000Y-123272990D01*
X110968803Y-123258698D01*
X110956202Y-123256640D01*
X110933265Y-123259051D01*
X110919594Y-123262056D01*
X110762175Y-123315646D01*
X110749509Y-123321607D01*
X110607876Y-123408740D01*
X110596842Y-123417360D01*
X110478039Y-123533701D01*
X110469182Y-123544560D01*
X110379111Y-123684324D01*
X110372879Y-123696877D01*
X110316009Y-123853127D01*
X110312716Y-123866742D01*
X110296497Y-123995130D01*
X110296000Y-124003020D01*
X110296000Y-124254885D01*
X104704000Y-124254885D01*
X104704000Y-124008172D01*
X104703607Y-124001148D01*
X104689766Y-123877747D01*
X104686664Y-123864094D01*
X104631979Y-123707062D01*
X104625926Y-123694429D01*
X104537809Y-123553411D01*
X104529112Y-123542439D01*
X104411940Y-123424445D01*
X104401029Y-123415673D01*
X104260634Y-123326575D01*
X104248038Y-123320432D01*
X104091391Y-123264652D01*
X104077765Y-123261456D01*
X104044989Y-123257548D01*
X104030582Y-123259975D01*
X104027000Y-123272743D01*
X104027000Y-124254885D01*
X103773000Y-124254885D01*
X103773000Y-123272990D01*
X103768803Y-123258698D01*
X103756202Y-123256640D01*
X103733265Y-123259051D01*
X103719594Y-123262056D01*
X103562175Y-123315646D01*
X103549509Y-123321607D01*
X103407876Y-123408740D01*
X103396842Y-123417360D01*
X103278039Y-123533701D01*
X103269182Y-123544560D01*
X103179111Y-123684324D01*
X103172879Y-123696877D01*
X103116009Y-123853127D01*
X103112716Y-123866742D01*
X103096497Y-123995130D01*
X103096000Y-124003020D01*
X103096000Y-124254885D01*
X98486898Y-124254885D01*
X98545584Y-124190050D01*
X98545585Y-124190049D01*
X98551612Y-124183390D01*
X98565192Y-124155362D01*
X98607585Y-124067862D01*
X98607585Y-124067861D01*
X98611499Y-124059783D01*
X98634286Y-123924336D01*
X98634431Y-123912500D01*
X98633584Y-123906582D01*
X98616232Y-123785423D01*
X98616232Y-123785421D01*
X98614959Y-123776536D01*
X98558110Y-123651503D01*
X98468453Y-123547451D01*
X98353196Y-123472744D01*
X98221603Y-123433390D01*
X98212627Y-123433335D01*
X98212626Y-123433335D01*
X98155080Y-123432984D01*
X98084255Y-123432551D01*
X97952192Y-123470295D01*
X97944605Y-123475082D01*
X97944603Y-123475083D01*
X97933780Y-123481912D01*
X97836031Y-123543587D01*
X97830088Y-123550316D01*
X97780606Y-123606343D01*
X97745109Y-123646536D01*
X97741295Y-123654659D01*
X97741294Y-123654661D01*
X97722623Y-123694429D01*
X97686736Y-123770866D01*
X97677027Y-123833224D01*
X97666986Y-123897709D01*
X97666986Y-123897713D01*
X97665605Y-123906582D01*
X96883584Y-123906582D01*
X96866232Y-123785423D01*
X96866232Y-123785421D01*
X96864959Y-123776536D01*
X96808110Y-123651503D01*
X96718453Y-123547451D01*
X96603196Y-123472744D01*
X96471603Y-123433390D01*
X96462627Y-123433335D01*
X96462626Y-123433335D01*
X96405080Y-123432984D01*
X96334255Y-123432551D01*
X96202192Y-123470295D01*
X96194605Y-123475082D01*
X96194603Y-123475083D01*
X96183780Y-123481912D01*
X96086031Y-123543587D01*
X96080088Y-123550316D01*
X96030606Y-123606343D01*
X95995109Y-123646536D01*
X95991295Y-123654659D01*
X95991294Y-123654661D01*
X95972623Y-123694429D01*
X95936736Y-123770866D01*
X95927027Y-123833224D01*
X95916986Y-123897709D01*
X95916986Y-123897713D01*
X95915605Y-123906582D01*
X90971053Y-123906582D01*
X90966232Y-123872923D01*
X90966232Y-123872921D01*
X90964959Y-123864036D01*
X90908110Y-123739003D01*
X90818453Y-123634951D01*
X90773882Y-123606061D01*
X90727598Y-123552224D01*
X90717768Y-123481912D01*
X90747513Y-123417446D01*
X90776487Y-123392954D01*
X90801788Y-123377419D01*
X90801789Y-123377418D01*
X90809439Y-123372721D01*
X90826153Y-123354256D01*
X90895584Y-123277550D01*
X90895586Y-123277547D01*
X90901612Y-123270890D01*
X90906901Y-123259975D01*
X90957585Y-123155362D01*
X90957585Y-123155361D01*
X90961499Y-123147283D01*
X90984286Y-123011836D01*
X90984431Y-123000000D01*
X90983584Y-122994082D01*
X90966232Y-122872923D01*
X90966232Y-122872921D01*
X90964959Y-122864036D01*
X90908110Y-122739003D01*
X90818453Y-122634951D01*
X90773882Y-122606061D01*
X90727598Y-122552224D01*
X90717768Y-122481912D01*
X90747513Y-122417446D01*
X90776487Y-122392954D01*
X90801788Y-122377419D01*
X90801789Y-122377418D01*
X90809439Y-122372721D01*
X90815463Y-122366066D01*
X90895584Y-122277550D01*
X90895586Y-122277547D01*
X90901612Y-122270890D01*
X90909945Y-122253692D01*
X90957585Y-122155362D01*
X90957585Y-122155361D01*
X90961499Y-122147283D01*
X90972552Y-122081582D01*
X95915605Y-122081582D01*
X95916769Y-122090484D01*
X95916769Y-122090487D01*
X95921972Y-122130273D01*
X95933414Y-122217773D01*
X95988732Y-122343492D01*
X95994510Y-122350365D01*
X95994510Y-122350366D01*
X96067535Y-122437240D01*
X96077111Y-122448632D01*
X96191447Y-122524740D01*
X96279418Y-122552224D01*
X96305089Y-122560244D01*
X96322549Y-122565699D01*
X96459876Y-122568216D01*
X96469109Y-122565699D01*
X96583727Y-122534451D01*
X96592391Y-122532089D01*
X96709439Y-122460221D01*
X96719929Y-122448632D01*
X96795584Y-122365050D01*
X96795585Y-122365049D01*
X96801612Y-122358390D01*
X96841238Y-122276603D01*
X96857585Y-122242862D01*
X96857585Y-122242861D01*
X96861499Y-122234783D01*
X96884286Y-122099336D01*
X96884431Y-122087500D01*
X96883584Y-122081582D01*
X97665605Y-122081582D01*
X97666769Y-122090484D01*
X97666769Y-122090487D01*
X97671972Y-122130273D01*
X97683414Y-122217773D01*
X97738732Y-122343492D01*
X97744510Y-122350365D01*
X97744510Y-122350366D01*
X97817535Y-122437240D01*
X97827111Y-122448632D01*
X97941447Y-122524740D01*
X98029418Y-122552224D01*
X98055089Y-122560244D01*
X98072549Y-122565699D01*
X98209876Y-122568216D01*
X98219109Y-122565699D01*
X98333727Y-122534451D01*
X98342391Y-122532089D01*
X98459439Y-122460221D01*
X98469929Y-122448632D01*
X98545584Y-122365050D01*
X98545585Y-122365049D01*
X98551612Y-122358390D01*
X98591238Y-122276603D01*
X98607585Y-122242862D01*
X98607585Y-122242861D01*
X98611499Y-122234783D01*
X98634286Y-122099336D01*
X98634431Y-122087500D01*
X98633584Y-122081582D01*
X98616232Y-121960423D01*
X98616232Y-121960421D01*
X98614959Y-121951536D01*
X98558110Y-121826503D01*
X98468453Y-121722451D01*
X98353196Y-121647744D01*
X98221603Y-121608390D01*
X98212627Y-121608335D01*
X98212626Y-121608335D01*
X98155080Y-121607984D01*
X98084255Y-121607551D01*
X97952192Y-121645295D01*
X97944605Y-121650082D01*
X97944603Y-121650083D01*
X97882850Y-121689046D01*
X97836031Y-121718587D01*
X97745109Y-121821536D01*
X97741295Y-121829659D01*
X97741294Y-121829661D01*
X97727817Y-121858366D01*
X97686736Y-121945866D01*
X97680610Y-121985209D01*
X97666986Y-122072709D01*
X97666986Y-122072713D01*
X97665605Y-122081582D01*
X96883584Y-122081582D01*
X96866232Y-121960423D01*
X96866232Y-121960421D01*
X96864959Y-121951536D01*
X96808110Y-121826503D01*
X96718453Y-121722451D01*
X96603196Y-121647744D01*
X96471603Y-121608390D01*
X96462627Y-121608335D01*
X96462626Y-121608335D01*
X96405080Y-121607984D01*
X96334255Y-121607551D01*
X96202192Y-121645295D01*
X96194605Y-121650082D01*
X96194603Y-121650083D01*
X96132850Y-121689046D01*
X96086031Y-121718587D01*
X95995109Y-121821536D01*
X95991295Y-121829659D01*
X95991294Y-121829661D01*
X95977817Y-121858366D01*
X95936736Y-121945866D01*
X95930610Y-121985209D01*
X95916986Y-122072709D01*
X95916986Y-122072713D01*
X95915605Y-122081582D01*
X90972552Y-122081582D01*
X90984286Y-122011836D01*
X90984431Y-122000000D01*
X90983584Y-121994082D01*
X90966232Y-121872923D01*
X90966232Y-121872921D01*
X90964959Y-121864036D01*
X90908110Y-121739003D01*
X90818453Y-121634951D01*
X90777390Y-121608335D01*
X90773882Y-121606061D01*
X90727598Y-121552224D01*
X90717768Y-121481912D01*
X90747513Y-121417446D01*
X90776487Y-121392954D01*
X90801788Y-121377419D01*
X90801789Y-121377418D01*
X90809439Y-121372721D01*
X90901612Y-121270890D01*
X90909945Y-121253692D01*
X90957585Y-121155362D01*
X90957585Y-121155361D01*
X90961499Y-121147283D01*
X90984286Y-121011836D01*
X90984431Y-121000000D01*
X90983584Y-120994082D01*
X90966232Y-120872923D01*
X90966232Y-120872921D01*
X90964959Y-120864036D01*
X90908110Y-120739003D01*
X90818453Y-120634951D01*
X90703196Y-120560244D01*
X90571603Y-120520890D01*
X90562627Y-120520835D01*
X90562626Y-120520835D01*
X90505080Y-120520484D01*
X90434255Y-120520051D01*
X90302192Y-120557795D01*
X90294605Y-120562582D01*
X90294603Y-120562583D01*
X90232850Y-120601546D01*
X90186031Y-120631087D01*
X90095109Y-120734036D01*
X90092622Y-120731839D01*
X90050846Y-120767322D01*
X89980476Y-120776733D01*
X89916189Y-120746604D01*
X89904184Y-120734446D01*
X89824314Y-120641753D01*
X89818453Y-120634951D01*
X89703196Y-120560244D01*
X89571603Y-120520890D01*
X89562627Y-120520835D01*
X89562626Y-120520835D01*
X89505080Y-120520484D01*
X89434255Y-120520051D01*
X89302192Y-120557795D01*
X89294605Y-120562582D01*
X89294603Y-120562583D01*
X89232850Y-120601546D01*
X89186031Y-120631087D01*
X89095109Y-120734036D01*
X89092622Y-120731839D01*
X89050846Y-120767322D01*
X88980476Y-120776733D01*
X88916189Y-120746604D01*
X88904184Y-120734446D01*
X88824314Y-120641753D01*
X88818453Y-120634951D01*
X88703196Y-120560244D01*
X88571603Y-120520890D01*
X88562627Y-120520835D01*
X88562626Y-120520835D01*
X88505080Y-120520484D01*
X88434255Y-120520051D01*
X88302192Y-120557795D01*
X88294605Y-120562582D01*
X88294603Y-120562583D01*
X88232850Y-120601546D01*
X88186031Y-120631087D01*
X88095109Y-120734036D01*
X88092622Y-120731839D01*
X88050846Y-120767322D01*
X87980476Y-120776733D01*
X87916189Y-120746604D01*
X87904184Y-120734446D01*
X87824314Y-120641753D01*
X87818453Y-120634951D01*
X87703196Y-120560244D01*
X87571603Y-120520890D01*
X87562627Y-120520835D01*
X87562626Y-120520835D01*
X87505080Y-120520484D01*
X87434255Y-120520051D01*
X87302192Y-120557795D01*
X87294605Y-120562582D01*
X87294603Y-120562583D01*
X87232850Y-120601546D01*
X87186031Y-120631087D01*
X87095109Y-120734036D01*
X87036736Y-120858366D01*
X87027027Y-120920724D01*
X87016986Y-120985209D01*
X87016986Y-120985213D01*
X87015605Y-120994082D01*
X87016769Y-121002984D01*
X87016769Y-121002987D01*
X87018554Y-121016633D01*
X87033414Y-121130273D01*
X87088732Y-121255992D01*
X87177111Y-121361132D01*
X87227833Y-121394895D01*
X87273454Y-121449290D01*
X87282426Y-121519717D01*
X87251897Y-121583815D01*
X87225248Y-121606343D01*
X87186031Y-121631087D01*
X87180088Y-121637816D01*
X87173483Y-121645295D01*
X87095109Y-121734036D01*
X87036736Y-121858366D01*
X87027027Y-121920724D01*
X87016986Y-121985209D01*
X87016986Y-121985213D01*
X87015605Y-121994082D01*
X87016769Y-122002984D01*
X87016769Y-122002987D01*
X87018554Y-122016633D01*
X87033414Y-122130273D01*
X87088732Y-122255992D01*
X87177111Y-122361132D01*
X87227833Y-122394895D01*
X87273454Y-122449290D01*
X87282426Y-122519717D01*
X87251897Y-122583815D01*
X87225248Y-122606343D01*
X87186031Y-122631087D01*
X87095109Y-122734036D01*
X87036736Y-122858366D01*
X87027027Y-122920724D01*
X87016986Y-122985209D01*
X87016986Y-122985213D01*
X87015605Y-122994082D01*
X87016769Y-123002984D01*
X87016769Y-123002987D01*
X87018554Y-123016633D01*
X87033414Y-123130273D01*
X87088732Y-123255992D01*
X87094510Y-123262865D01*
X87094510Y-123262866D01*
X87103020Y-123272990D01*
X87177111Y-123361132D01*
X87227833Y-123394895D01*
X87273454Y-123449290D01*
X87282426Y-123519717D01*
X87251897Y-123583815D01*
X87225248Y-123606343D01*
X87186031Y-123631087D01*
X87095109Y-123734036D01*
X87091295Y-123742159D01*
X87091294Y-123742161D01*
X87077817Y-123770866D01*
X87036736Y-123858366D01*
X87030610Y-123897709D01*
X87016986Y-123985209D01*
X87016986Y-123985213D01*
X87015605Y-123994082D01*
X87016769Y-124002984D01*
X87016769Y-124002987D01*
X87021972Y-124042773D01*
X87033414Y-124130273D01*
X87088732Y-124255992D01*
X87094510Y-124262865D01*
X87094510Y-124262866D01*
X87103560Y-124273632D01*
X87177111Y-124361132D01*
X87227833Y-124394895D01*
X87273454Y-124449290D01*
X87282426Y-124519717D01*
X87251897Y-124583815D01*
X87225248Y-124606343D01*
X87186031Y-124631087D01*
X87095109Y-124734036D01*
X87036736Y-124858366D01*
X87027027Y-124920724D01*
X87016986Y-124985209D01*
X87016986Y-124985213D01*
X87015605Y-124994082D01*
X84254000Y-124994082D01*
X84254000Y-117631582D01*
X91765605Y-117631582D01*
X91766769Y-117640484D01*
X91766769Y-117640487D01*
X91774509Y-117699677D01*
X91783414Y-117767773D01*
X91838732Y-117893492D01*
X91844510Y-117900365D01*
X91844510Y-117900366D01*
X91851255Y-117908390D01*
X91927111Y-117998632D01*
X92041447Y-118074740D01*
X92172549Y-118115699D01*
X92309876Y-118118216D01*
X92319109Y-118115699D01*
X92433727Y-118084451D01*
X92442391Y-118082089D01*
X92559439Y-118010221D01*
X92651612Y-117908390D01*
X92661602Y-117887772D01*
X92707585Y-117792862D01*
X92707585Y-117792861D01*
X92711499Y-117784783D01*
X92734286Y-117649336D01*
X92734431Y-117637500D01*
X92733942Y-117634082D01*
X96925605Y-117634082D01*
X96926769Y-117642984D01*
X96926769Y-117642987D01*
X96928227Y-117654133D01*
X96943414Y-117770273D01*
X96998732Y-117895992D01*
X97004510Y-117902865D01*
X97004510Y-117902866D01*
X97011255Y-117910890D01*
X97087111Y-118001132D01*
X97201447Y-118077240D01*
X97332549Y-118118199D01*
X97469876Y-118120716D01*
X97479109Y-118118199D01*
X97593727Y-118086951D01*
X97602391Y-118084589D01*
X97719439Y-118012721D01*
X97811612Y-117910890D01*
X97820042Y-117893492D01*
X97867585Y-117795362D01*
X97867585Y-117795361D01*
X97871499Y-117787283D01*
X97894286Y-117651836D01*
X97894431Y-117640000D01*
X97893584Y-117634082D01*
X102035605Y-117634082D01*
X102036769Y-117642984D01*
X102036769Y-117642987D01*
X102038227Y-117654133D01*
X102053414Y-117770273D01*
X102108732Y-117895992D01*
X102114510Y-117902865D01*
X102114510Y-117902866D01*
X102121255Y-117910890D01*
X102197111Y-118001132D01*
X102311447Y-118077240D01*
X102442549Y-118118199D01*
X102579876Y-118120716D01*
X102589109Y-118118199D01*
X102703727Y-118086951D01*
X102712391Y-118084589D01*
X102829439Y-118012721D01*
X102921612Y-117910890D01*
X102930042Y-117893492D01*
X102977585Y-117795362D01*
X102977585Y-117795361D01*
X102981499Y-117787283D01*
X103004286Y-117651836D01*
X103004431Y-117640000D01*
X103003584Y-117634082D01*
X102986232Y-117512923D01*
X102986232Y-117512921D01*
X102984959Y-117504036D01*
X102928110Y-117379003D01*
X102838453Y-117274951D01*
X102723196Y-117200244D01*
X102591603Y-117160890D01*
X102582627Y-117160835D01*
X102582626Y-117160835D01*
X102525080Y-117160484D01*
X102454255Y-117160051D01*
X102322192Y-117197795D01*
X102314605Y-117202582D01*
X102314603Y-117202583D01*
X102252850Y-117241546D01*
X102206031Y-117271087D01*
X102115109Y-117374036D01*
X102056736Y-117498366D01*
X102047027Y-117560724D01*
X102036986Y-117625209D01*
X102036986Y-117625213D01*
X102035605Y-117634082D01*
X97893584Y-117634082D01*
X97876232Y-117512923D01*
X97876232Y-117512921D01*
X97874959Y-117504036D01*
X97818110Y-117379003D01*
X97728453Y-117274951D01*
X97613196Y-117200244D01*
X97481603Y-117160890D01*
X97472627Y-117160835D01*
X97472626Y-117160835D01*
X97415080Y-117160484D01*
X97344255Y-117160051D01*
X97212192Y-117197795D01*
X97204605Y-117202582D01*
X97204603Y-117202583D01*
X97142850Y-117241546D01*
X97096031Y-117271087D01*
X97005109Y-117374036D01*
X96946736Y-117498366D01*
X96937027Y-117560724D01*
X96926986Y-117625209D01*
X96926986Y-117625213D01*
X96925605Y-117634082D01*
X92733942Y-117634082D01*
X92733584Y-117631582D01*
X92716232Y-117510423D01*
X92716232Y-117510421D01*
X92714959Y-117501536D01*
X92658110Y-117376503D01*
X92568453Y-117272451D01*
X92453196Y-117197744D01*
X92321603Y-117158390D01*
X92312627Y-117158335D01*
X92312626Y-117158335D01*
X92255080Y-117157984D01*
X92184255Y-117157551D01*
X92052192Y-117195295D01*
X92044605Y-117200082D01*
X92044603Y-117200083D01*
X92036612Y-117205125D01*
X91936031Y-117268587D01*
X91845109Y-117371536D01*
X91841295Y-117379659D01*
X91841294Y-117379661D01*
X91813136Y-117439636D01*
X91786736Y-117495866D01*
X91777027Y-117558224D01*
X91766986Y-117622709D01*
X91766986Y-117622713D01*
X91765605Y-117631582D01*
X84254000Y-117631582D01*
X84254000Y-116381582D01*
X109765605Y-116381582D01*
X109766769Y-116390484D01*
X109766769Y-116390487D01*
X109768554Y-116404133D01*
X109783414Y-116517773D01*
X109838732Y-116643492D01*
X109927111Y-116748632D01*
X110041447Y-116824740D01*
X110172549Y-116865699D01*
X110309876Y-116868216D01*
X110319109Y-116865699D01*
X110433727Y-116834451D01*
X110442391Y-116832089D01*
X110559439Y-116760221D01*
X110651612Y-116658390D01*
X110711499Y-116534783D01*
X110734286Y-116399336D01*
X110734431Y-116387500D01*
X110733584Y-116381582D01*
X110716232Y-116260423D01*
X110716232Y-116260421D01*
X110714959Y-116251536D01*
X110658110Y-116126503D01*
X110568453Y-116022451D01*
X110453196Y-115947744D01*
X110321603Y-115908390D01*
X110312627Y-115908335D01*
X110312626Y-115908335D01*
X110255080Y-115907984D01*
X110184255Y-115907551D01*
X110052192Y-115945295D01*
X110044605Y-115950082D01*
X110044603Y-115950083D01*
X109982850Y-115989046D01*
X109936031Y-116018587D01*
X109845109Y-116121536D01*
X109786736Y-116245866D01*
X109777027Y-116308224D01*
X109766986Y-116372709D01*
X109766986Y-116372713D01*
X109765605Y-116381582D01*
X84254000Y-116381582D01*
X84254000Y-113794082D01*
X90115605Y-113794082D01*
X90116769Y-113802984D01*
X90116769Y-113802987D01*
X90119323Y-113822518D01*
X90133414Y-113930273D01*
X90188732Y-114055992D01*
X90277111Y-114161132D01*
X90391447Y-114237240D01*
X90522549Y-114278199D01*
X90659876Y-114280716D01*
X90669109Y-114278199D01*
X90783727Y-114246951D01*
X90792391Y-114244589D01*
X90909439Y-114172721D01*
X90917300Y-114164036D01*
X90995584Y-114077550D01*
X90995585Y-114077549D01*
X91001612Y-114070890D01*
X91009136Y-114055362D01*
X91057585Y-113955362D01*
X91057585Y-113955361D01*
X91061499Y-113947283D01*
X91070449Y-113894082D01*
X92215605Y-113894082D01*
X92216769Y-113902984D01*
X92216769Y-113902987D01*
X92222518Y-113946951D01*
X92233414Y-114030273D01*
X92288732Y-114155992D01*
X92294510Y-114162865D01*
X92294510Y-114162866D01*
X92306853Y-114177550D01*
X92377111Y-114261132D01*
X92491447Y-114337240D01*
X92622549Y-114378199D01*
X92759876Y-114380716D01*
X92769109Y-114378199D01*
X92883727Y-114346951D01*
X92892391Y-114344589D01*
X93009439Y-114272721D01*
X93039132Y-114239917D01*
X93095584Y-114177550D01*
X93095585Y-114177549D01*
X93101612Y-114170890D01*
X93111616Y-114150243D01*
X93157585Y-114055362D01*
X93157585Y-114055361D01*
X93161499Y-114047283D01*
X93184286Y-113911836D01*
X93184431Y-113900000D01*
X93183584Y-113894082D01*
X93166232Y-113772923D01*
X93166232Y-113772921D01*
X93164959Y-113764036D01*
X93108110Y-113639003D01*
X93018453Y-113534951D01*
X92955401Y-113494082D01*
X97815605Y-113494082D01*
X97816769Y-113502984D01*
X97816769Y-113502987D01*
X97820949Y-113534951D01*
X97833414Y-113630273D01*
X97844675Y-113655865D01*
X97883715Y-113744589D01*
X97888732Y-113755992D01*
X97894510Y-113762865D01*
X97894510Y-113762866D01*
X97939706Y-113816633D01*
X97977111Y-113861132D01*
X97984588Y-113866109D01*
X98080981Y-113930273D01*
X98091447Y-113937240D01*
X98222549Y-113978199D01*
X98359876Y-113980716D01*
X98369109Y-113978199D01*
X98483727Y-113946951D01*
X98492391Y-113944589D01*
X98574649Y-113894082D01*
X100415605Y-113894082D01*
X100416769Y-113902984D01*
X100416769Y-113902987D01*
X100422518Y-113946951D01*
X100433414Y-114030273D01*
X100488732Y-114155992D01*
X100494510Y-114162865D01*
X100494510Y-114162866D01*
X100506853Y-114177550D01*
X100577111Y-114261132D01*
X100691447Y-114337240D01*
X100822549Y-114378199D01*
X100959876Y-114380716D01*
X100969109Y-114378199D01*
X101083727Y-114346951D01*
X101092391Y-114344589D01*
X101174649Y-114294082D01*
X102815605Y-114294082D01*
X102816769Y-114302984D01*
X102816769Y-114302987D01*
X102822518Y-114346951D01*
X102833414Y-114430273D01*
X102888732Y-114555992D01*
X102977111Y-114661132D01*
X103091447Y-114737240D01*
X103222549Y-114778199D01*
X103359876Y-114780716D01*
X103369109Y-114778199D01*
X103483727Y-114746951D01*
X103492391Y-114744589D01*
X103609439Y-114672721D01*
X103701612Y-114570890D01*
X103761499Y-114447283D01*
X103784286Y-114311836D01*
X103784431Y-114300000D01*
X103783584Y-114294082D01*
X103766232Y-114172923D01*
X103766232Y-114172921D01*
X103764959Y-114164036D01*
X103708110Y-114039003D01*
X103618453Y-113934951D01*
X103503196Y-113860244D01*
X103371603Y-113820890D01*
X103362627Y-113820835D01*
X103362626Y-113820835D01*
X103305080Y-113820484D01*
X103234255Y-113820051D01*
X103102192Y-113857795D01*
X103094605Y-113862582D01*
X103094603Y-113862583D01*
X103071093Y-113877417D01*
X102986031Y-113931087D01*
X102980088Y-113937816D01*
X102976611Y-113941753D01*
X102895109Y-114034036D01*
X102891295Y-114042159D01*
X102891294Y-114042161D01*
X102881601Y-114062806D01*
X102836736Y-114158366D01*
X102833770Y-114177417D01*
X102816986Y-114285209D01*
X102816986Y-114285213D01*
X102815605Y-114294082D01*
X101174649Y-114294082D01*
X101209439Y-114272721D01*
X101239132Y-114239917D01*
X101295584Y-114177550D01*
X101295585Y-114177549D01*
X101301612Y-114170890D01*
X101311616Y-114150243D01*
X101357585Y-114055362D01*
X101357585Y-114055361D01*
X101361499Y-114047283D01*
X101384286Y-113911836D01*
X101384431Y-113900000D01*
X101383584Y-113894082D01*
X101366232Y-113772923D01*
X101366232Y-113772921D01*
X101364959Y-113764036D01*
X101308110Y-113639003D01*
X101218453Y-113534951D01*
X101103196Y-113460244D01*
X100971603Y-113420890D01*
X100962627Y-113420835D01*
X100962626Y-113420835D01*
X100905080Y-113420484D01*
X100834255Y-113420051D01*
X100702192Y-113457795D01*
X100694605Y-113462582D01*
X100694603Y-113462583D01*
X100658743Y-113485209D01*
X100586031Y-113531087D01*
X100580088Y-113537816D01*
X100550878Y-113570890D01*
X100495109Y-113634036D01*
X100491295Y-113642159D01*
X100491294Y-113642161D01*
X100463136Y-113702136D01*
X100436736Y-113758366D01*
X100430254Y-113800000D01*
X100416986Y-113885209D01*
X100416986Y-113885213D01*
X100415605Y-113894082D01*
X98574649Y-113894082D01*
X98609439Y-113872721D01*
X98616315Y-113865125D01*
X98695584Y-113777550D01*
X98695585Y-113777549D01*
X98701612Y-113770890D01*
X98711616Y-113750243D01*
X98757585Y-113655362D01*
X98757585Y-113655361D01*
X98761499Y-113647283D01*
X98784286Y-113511836D01*
X98784431Y-113500000D01*
X98783584Y-113494082D01*
X98766232Y-113372923D01*
X98766232Y-113372921D01*
X98764959Y-113364036D01*
X98708110Y-113239003D01*
X98618453Y-113134951D01*
X98503196Y-113060244D01*
X98371603Y-113020890D01*
X98362627Y-113020835D01*
X98362626Y-113020835D01*
X98305080Y-113020484D01*
X98234255Y-113020051D01*
X98102192Y-113057795D01*
X98094605Y-113062582D01*
X98094603Y-113062583D01*
X98071093Y-113077417D01*
X97986031Y-113131087D01*
X97980088Y-113137816D01*
X97976611Y-113141753D01*
X97895109Y-113234036D01*
X97836736Y-113358366D01*
X97827132Y-113420051D01*
X97816986Y-113485209D01*
X97816986Y-113485213D01*
X97815605Y-113494082D01*
X92955401Y-113494082D01*
X92903196Y-113460244D01*
X92771603Y-113420890D01*
X92762627Y-113420835D01*
X92762626Y-113420835D01*
X92705080Y-113420484D01*
X92634255Y-113420051D01*
X92502192Y-113457795D01*
X92494605Y-113462582D01*
X92494603Y-113462583D01*
X92458743Y-113485209D01*
X92386031Y-113531087D01*
X92380088Y-113537816D01*
X92350878Y-113570890D01*
X92295109Y-113634036D01*
X92291295Y-113642159D01*
X92291294Y-113642161D01*
X92263136Y-113702136D01*
X92236736Y-113758366D01*
X92230254Y-113800000D01*
X92216986Y-113885209D01*
X92216986Y-113885213D01*
X92215605Y-113894082D01*
X91070449Y-113894082D01*
X91084286Y-113811836D01*
X91084431Y-113800000D01*
X91083584Y-113794082D01*
X91066232Y-113672923D01*
X91066232Y-113672921D01*
X91064959Y-113664036D01*
X91008110Y-113539003D01*
X90918453Y-113434951D01*
X90803196Y-113360244D01*
X90671603Y-113320890D01*
X90662627Y-113320835D01*
X90662626Y-113320835D01*
X90605080Y-113320484D01*
X90534255Y-113320051D01*
X90402192Y-113357795D01*
X90394605Y-113362582D01*
X90394603Y-113362583D01*
X90332850Y-113401546D01*
X90286031Y-113431087D01*
X90280088Y-113437816D01*
X90255969Y-113465125D01*
X90195109Y-113534036D01*
X90191295Y-113542159D01*
X90191294Y-113542161D01*
X90181601Y-113562806D01*
X90136736Y-113658366D01*
X90133770Y-113677417D01*
X90116986Y-113785209D01*
X90116986Y-113785213D01*
X90115605Y-113794082D01*
X84254000Y-113794082D01*
X84254000Y-113294082D01*
X86878105Y-113294082D01*
X86879269Y-113302984D01*
X86879269Y-113302987D01*
X86881823Y-113322518D01*
X86895914Y-113430273D01*
X86907970Y-113457673D01*
X86933914Y-113516633D01*
X86951232Y-113555992D01*
X86957010Y-113562865D01*
X86957010Y-113562866D01*
X87020530Y-113638432D01*
X87039611Y-113661132D01*
X87153947Y-113737240D01*
X87235779Y-113762806D01*
X87268162Y-113772923D01*
X87285049Y-113778199D01*
X87422376Y-113780716D01*
X87431609Y-113778199D01*
X87488634Y-113762652D01*
X87554891Y-113744589D01*
X87671939Y-113672721D01*
X87684933Y-113658366D01*
X87758084Y-113577550D01*
X87758085Y-113577549D01*
X87764112Y-113570890D01*
X87780137Y-113537816D01*
X87820085Y-113455362D01*
X87820085Y-113455361D01*
X87823999Y-113447283D01*
X87846786Y-113311836D01*
X87846931Y-113300000D01*
X87846084Y-113294082D01*
X87828732Y-113172923D01*
X87828732Y-113172921D01*
X87827459Y-113164036D01*
X87770610Y-113039003D01*
X87680953Y-112934951D01*
X87565696Y-112860244D01*
X87434103Y-112820890D01*
X87425127Y-112820835D01*
X87425126Y-112820835D01*
X87367580Y-112820484D01*
X87296755Y-112820051D01*
X87164692Y-112857795D01*
X87157105Y-112862582D01*
X87157103Y-112862583D01*
X87095350Y-112901546D01*
X87048531Y-112931087D01*
X87042588Y-112937816D01*
X87013378Y-112970890D01*
X86957609Y-113034036D01*
X86953795Y-113042159D01*
X86953794Y-113042161D01*
X86925636Y-113102136D01*
X86899236Y-113158366D01*
X86895782Y-113180551D01*
X86879486Y-113285209D01*
X86879486Y-113285213D01*
X86878105Y-113294082D01*
X84254000Y-113294082D01*
X84254000Y-112694082D01*
X100115605Y-112694082D01*
X100116769Y-112702984D01*
X100116769Y-112702987D01*
X100118554Y-112716633D01*
X100133414Y-112830273D01*
X100188732Y-112955992D01*
X100194510Y-112962865D01*
X100194510Y-112962866D01*
X100258510Y-113039003D01*
X100277111Y-113061132D01*
X100391447Y-113137240D01*
X100477216Y-113164036D01*
X100505662Y-113172923D01*
X100522549Y-113178199D01*
X100659876Y-113180716D01*
X100669109Y-113178199D01*
X100726134Y-113162652D01*
X100792391Y-113144589D01*
X100909439Y-113072721D01*
X100916315Y-113065125D01*
X100995584Y-112977550D01*
X100995585Y-112977549D01*
X101001612Y-112970890D01*
X101017637Y-112937816D01*
X101057585Y-112855362D01*
X101057585Y-112855361D01*
X101061499Y-112847283D01*
X101084286Y-112711836D01*
X101084431Y-112700000D01*
X101083584Y-112694082D01*
X101066232Y-112572923D01*
X101066232Y-112572921D01*
X101064959Y-112564036D01*
X101008110Y-112439003D01*
X100918453Y-112334951D01*
X100803196Y-112260244D01*
X100671603Y-112220890D01*
X100662627Y-112220835D01*
X100662626Y-112220835D01*
X100605080Y-112220484D01*
X100534255Y-112220051D01*
X100402192Y-112257795D01*
X100394605Y-112262582D01*
X100394603Y-112262583D01*
X100332850Y-112301546D01*
X100286031Y-112331087D01*
X100195109Y-112434036D01*
X100191295Y-112442159D01*
X100191294Y-112442161D01*
X100181601Y-112462806D01*
X100136736Y-112558366D01*
X100133770Y-112577417D01*
X100116986Y-112685209D01*
X100116986Y-112685213D01*
X100115605Y-112694082D01*
X84254000Y-112694082D01*
X84254000Y-112194082D01*
X95715605Y-112194082D01*
X95716769Y-112202984D01*
X95716769Y-112202987D01*
X95719323Y-112222518D01*
X95733414Y-112330273D01*
X95788732Y-112455992D01*
X95877111Y-112561132D01*
X95991447Y-112637240D01*
X96122549Y-112678199D01*
X96259876Y-112680716D01*
X96269109Y-112678199D01*
X96383727Y-112646951D01*
X96392391Y-112644589D01*
X96509439Y-112572721D01*
X96522433Y-112558366D01*
X96595584Y-112477550D01*
X96595585Y-112477549D01*
X96601612Y-112470890D01*
X96622728Y-112427308D01*
X96657585Y-112355362D01*
X96657585Y-112355361D01*
X96661499Y-112347283D01*
X96684286Y-112211836D01*
X96684431Y-112200000D01*
X96683584Y-112194082D01*
X96666232Y-112072923D01*
X96666232Y-112072921D01*
X96664959Y-112064036D01*
X96608110Y-111939003D01*
X96518453Y-111834951D01*
X96403196Y-111760244D01*
X96271603Y-111720890D01*
X96262627Y-111720835D01*
X96262626Y-111720835D01*
X96205080Y-111720484D01*
X96134255Y-111720051D01*
X96002192Y-111757795D01*
X95994605Y-111762582D01*
X95994603Y-111762583D01*
X95932850Y-111801546D01*
X95886031Y-111831087D01*
X95795109Y-111934036D01*
X95791295Y-111942159D01*
X95791294Y-111942161D01*
X95781601Y-111962806D01*
X95736736Y-112058366D01*
X95733770Y-112077417D01*
X95716986Y-112185209D01*
X95716986Y-112185213D01*
X95715605Y-112194082D01*
X84254000Y-112194082D01*
X84254000Y-111694082D01*
X86878105Y-111694082D01*
X86879269Y-111702984D01*
X86879269Y-111702987D01*
X86881823Y-111722518D01*
X86895914Y-111830273D01*
X86951232Y-111955992D01*
X87039611Y-112061132D01*
X87153947Y-112137240D01*
X87285049Y-112178199D01*
X87422376Y-112180716D01*
X87431609Y-112178199D01*
X87546227Y-112146951D01*
X87554891Y-112144589D01*
X87671939Y-112072721D01*
X87684933Y-112058366D01*
X87758084Y-111977550D01*
X87758085Y-111977549D01*
X87764112Y-111970890D01*
X87785228Y-111927308D01*
X87820085Y-111855362D01*
X87820085Y-111855361D01*
X87823999Y-111847283D01*
X87846786Y-111711836D01*
X87846931Y-111700000D01*
X87846084Y-111694082D01*
X87828732Y-111572923D01*
X87828732Y-111572921D01*
X87827459Y-111564036D01*
X87770610Y-111439003D01*
X87680953Y-111334951D01*
X87565696Y-111260244D01*
X87434103Y-111220890D01*
X87425127Y-111220835D01*
X87425126Y-111220835D01*
X87367580Y-111220484D01*
X87296755Y-111220051D01*
X87164692Y-111257795D01*
X87157105Y-111262582D01*
X87157103Y-111262583D01*
X87133382Y-111277550D01*
X87048531Y-111331087D01*
X86957609Y-111434036D01*
X86899236Y-111558366D01*
X86889527Y-111620724D01*
X86879486Y-111685209D01*
X86879486Y-111685213D01*
X86878105Y-111694082D01*
X84254000Y-111694082D01*
X84254000Y-110994082D01*
X107915605Y-110994082D01*
X107916769Y-111002984D01*
X107916769Y-111002987D01*
X107918554Y-111016633D01*
X107933414Y-111130273D01*
X107988732Y-111255992D01*
X108077111Y-111361132D01*
X108191447Y-111437240D01*
X108322549Y-111478199D01*
X108459876Y-111480716D01*
X108469109Y-111478199D01*
X108583727Y-111446951D01*
X108592391Y-111444589D01*
X108709439Y-111372721D01*
X108737470Y-111341753D01*
X108795584Y-111277550D01*
X108795585Y-111277549D01*
X108801612Y-111270890D01*
X108807957Y-111257795D01*
X108857585Y-111155362D01*
X108857585Y-111155361D01*
X108861499Y-111147283D01*
X108884286Y-111011836D01*
X108884431Y-111000000D01*
X108883584Y-110994082D01*
X108866232Y-110872923D01*
X108866232Y-110872921D01*
X108864959Y-110864036D01*
X108808110Y-110739003D01*
X108718453Y-110634951D01*
X108603196Y-110560244D01*
X108471603Y-110520890D01*
X108462627Y-110520835D01*
X108462626Y-110520835D01*
X108405080Y-110520484D01*
X108334255Y-110520051D01*
X108202192Y-110557795D01*
X108194605Y-110562582D01*
X108194603Y-110562583D01*
X108132850Y-110601546D01*
X108086031Y-110631087D01*
X107995109Y-110734036D01*
X107936736Y-110858366D01*
X107927027Y-110920724D01*
X107916986Y-110985209D01*
X107916986Y-110985213D01*
X107915605Y-110994082D01*
X84254000Y-110994082D01*
X84254000Y-108244082D01*
X91215605Y-108244082D01*
X91216769Y-108252984D01*
X91216769Y-108252987D01*
X91218554Y-108266633D01*
X91233414Y-108380273D01*
X91288732Y-108505992D01*
X91377111Y-108611132D01*
X91491447Y-108687240D01*
X91622549Y-108728199D01*
X91759876Y-108730716D01*
X91769109Y-108728199D01*
X91883727Y-108696951D01*
X91892391Y-108694589D01*
X92009439Y-108622721D01*
X92101612Y-108520890D01*
X92161499Y-108397283D01*
X92184286Y-108261836D01*
X92184431Y-108250000D01*
X92183584Y-108244082D01*
X112153105Y-108244082D01*
X112154269Y-108252984D01*
X112154269Y-108252987D01*
X112156054Y-108266633D01*
X112170914Y-108380273D01*
X112226232Y-108505992D01*
X112314611Y-108611132D01*
X112428947Y-108687240D01*
X112560049Y-108728199D01*
X112697376Y-108730716D01*
X112706609Y-108728199D01*
X112821227Y-108696951D01*
X112829891Y-108694589D01*
X112946939Y-108622721D01*
X113039112Y-108520890D01*
X113098999Y-108397283D01*
X113121786Y-108261836D01*
X113121931Y-108250000D01*
X113121084Y-108244082D01*
X113103732Y-108122923D01*
X113103732Y-108122921D01*
X113102459Y-108114036D01*
X113045610Y-107989003D01*
X112955953Y-107884951D01*
X112840696Y-107810244D01*
X112709103Y-107770890D01*
X112700127Y-107770835D01*
X112700126Y-107770835D01*
X112642580Y-107770484D01*
X112571755Y-107770051D01*
X112439692Y-107807795D01*
X112432105Y-107812582D01*
X112432103Y-107812583D01*
X112370350Y-107851546D01*
X112323531Y-107881087D01*
X112232609Y-107984036D01*
X112174236Y-108108366D01*
X112164527Y-108170724D01*
X112154486Y-108235209D01*
X112154486Y-108235213D01*
X112153105Y-108244082D01*
X92183584Y-108244082D01*
X92166232Y-108122923D01*
X92166232Y-108122921D01*
X92164959Y-108114036D01*
X92108110Y-107989003D01*
X92018453Y-107884951D01*
X91903196Y-107810244D01*
X91771603Y-107770890D01*
X91762627Y-107770835D01*
X91762626Y-107770835D01*
X91705080Y-107770484D01*
X91634255Y-107770051D01*
X91502192Y-107807795D01*
X91494605Y-107812582D01*
X91494603Y-107812583D01*
X91432850Y-107851546D01*
X91386031Y-107881087D01*
X91295109Y-107984036D01*
X91236736Y-108108366D01*
X91227027Y-108170724D01*
X91216986Y-108235209D01*
X91216986Y-108235213D01*
X91215605Y-108244082D01*
X84254000Y-108244082D01*
X84254000Y-105494082D01*
X107915605Y-105494082D01*
X107916769Y-105502984D01*
X107916769Y-105502987D01*
X107918554Y-105516633D01*
X107933414Y-105630273D01*
X107988732Y-105755992D01*
X108077111Y-105861132D01*
X108191447Y-105937240D01*
X108322549Y-105978199D01*
X108459876Y-105980716D01*
X108469109Y-105978199D01*
X108583727Y-105946951D01*
X108592391Y-105944589D01*
X108709439Y-105872721D01*
X108801612Y-105770890D01*
X108861499Y-105647283D01*
X108884286Y-105511836D01*
X108884431Y-105500000D01*
X108883584Y-105494082D01*
X108866232Y-105372923D01*
X108866232Y-105372921D01*
X108864959Y-105364036D01*
X108808110Y-105239003D01*
X108718453Y-105134951D01*
X108603196Y-105060244D01*
X108471603Y-105020890D01*
X108462627Y-105020835D01*
X108462626Y-105020835D01*
X108405080Y-105020484D01*
X108334255Y-105020051D01*
X108202192Y-105057795D01*
X108194605Y-105062582D01*
X108194603Y-105062583D01*
X108132850Y-105101546D01*
X108086031Y-105131087D01*
X107995109Y-105234036D01*
X107936736Y-105358366D01*
X107927027Y-105420724D01*
X107916986Y-105485209D01*
X107916986Y-105485213D01*
X107915605Y-105494082D01*
X84254000Y-105494082D01*
X84254000Y-103294082D01*
X86878105Y-103294082D01*
X86879269Y-103302984D01*
X86879269Y-103302987D01*
X86881054Y-103316633D01*
X86895914Y-103430273D01*
X86951232Y-103555992D01*
X87039611Y-103661132D01*
X87153947Y-103737240D01*
X87285049Y-103778199D01*
X87422376Y-103780716D01*
X87431609Y-103778199D01*
X87546227Y-103746951D01*
X87554891Y-103744589D01*
X87671939Y-103672721D01*
X87764112Y-103570890D01*
X87823999Y-103447283D01*
X87846786Y-103311836D01*
X87846931Y-103300000D01*
X87846084Y-103294082D01*
X87828732Y-103172923D01*
X87828732Y-103172921D01*
X87827459Y-103164036D01*
X87770610Y-103039003D01*
X87680953Y-102934951D01*
X87565696Y-102860244D01*
X87434103Y-102820890D01*
X87425127Y-102820835D01*
X87425126Y-102820835D01*
X87367580Y-102820484D01*
X87296755Y-102820051D01*
X87164692Y-102857795D01*
X87157105Y-102862582D01*
X87157103Y-102862583D01*
X87102107Y-102897283D01*
X87048531Y-102931087D01*
X86957609Y-103034036D01*
X86899236Y-103158366D01*
X86889527Y-103220724D01*
X86879486Y-103285209D01*
X86879486Y-103285213D01*
X86878105Y-103294082D01*
X84254000Y-103294082D01*
X84254000Y-102744082D01*
X112153105Y-102744082D01*
X112154269Y-102752984D01*
X112154269Y-102752987D01*
X112156054Y-102766633D01*
X112170914Y-102880273D01*
X112226232Y-103005992D01*
X112232010Y-103012865D01*
X112232010Y-103012866D01*
X112256635Y-103042161D01*
X112314611Y-103111132D01*
X112428947Y-103187240D01*
X112560049Y-103228199D01*
X112697376Y-103230716D01*
X112706609Y-103228199D01*
X112821227Y-103196951D01*
X112829891Y-103194589D01*
X112946939Y-103122721D01*
X113015318Y-103047177D01*
X113033084Y-103027550D01*
X113033085Y-103027549D01*
X113039112Y-103020890D01*
X113077454Y-102941753D01*
X113095085Y-102905362D01*
X113095085Y-102905361D01*
X113098999Y-102897283D01*
X113121786Y-102761836D01*
X113121931Y-102750000D01*
X113121084Y-102744082D01*
X113103732Y-102622923D01*
X113103732Y-102622921D01*
X113102459Y-102614036D01*
X113045610Y-102489003D01*
X112955953Y-102384951D01*
X112840696Y-102310244D01*
X112709103Y-102270890D01*
X112700127Y-102270835D01*
X112700126Y-102270835D01*
X112642580Y-102270484D01*
X112571755Y-102270051D01*
X112439692Y-102307795D01*
X112432105Y-102312582D01*
X112432103Y-102312583D01*
X112370350Y-102351546D01*
X112323531Y-102381087D01*
X112232609Y-102484036D01*
X112174236Y-102608366D01*
X112164527Y-102670724D01*
X112154486Y-102735209D01*
X112154486Y-102735213D01*
X112153105Y-102744082D01*
X84254000Y-102744082D01*
X84254000Y-101024082D01*
X97875605Y-101024082D01*
X97876769Y-101032984D01*
X97876769Y-101032987D01*
X97878554Y-101046633D01*
X97893414Y-101160273D01*
X97948732Y-101285992D01*
X98037111Y-101391132D01*
X98151447Y-101467240D01*
X98282549Y-101508199D01*
X98419876Y-101510716D01*
X98429109Y-101508199D01*
X98543727Y-101476951D01*
X98552391Y-101474589D01*
X98669439Y-101402721D01*
X98761612Y-101300890D01*
X98821499Y-101177283D01*
X98844286Y-101041836D01*
X98844431Y-101030000D01*
X98843584Y-101024082D01*
X98826232Y-100902923D01*
X98826232Y-100902921D01*
X98824959Y-100894036D01*
X98768110Y-100769003D01*
X98678453Y-100664951D01*
X98563196Y-100590244D01*
X98431603Y-100550890D01*
X98422627Y-100550835D01*
X98422626Y-100550835D01*
X98365080Y-100550484D01*
X98294255Y-100550051D01*
X98162192Y-100587795D01*
X98154605Y-100592582D01*
X98154603Y-100592583D01*
X98092850Y-100631546D01*
X98046031Y-100661087D01*
X97955109Y-100764036D01*
X97896736Y-100888366D01*
X97887027Y-100950724D01*
X97876986Y-101015209D01*
X97876986Y-101015213D01*
X97875605Y-101024082D01*
X84254000Y-101024082D01*
X84254000Y-98744082D01*
X86878105Y-98744082D01*
X86879269Y-98752984D01*
X86879269Y-98752987D01*
X86881054Y-98766633D01*
X86895914Y-98880273D01*
X86951232Y-99005992D01*
X87039611Y-99111132D01*
X87153947Y-99187240D01*
X87285049Y-99228199D01*
X87422376Y-99230716D01*
X87431609Y-99228199D01*
X87546227Y-99196951D01*
X87554891Y-99194589D01*
X87671939Y-99122721D01*
X87764112Y-99020890D01*
X87823999Y-98897283D01*
X87846786Y-98761836D01*
X87846931Y-98750000D01*
X87846084Y-98744082D01*
X87828732Y-98622923D01*
X87828732Y-98622921D01*
X87827459Y-98614036D01*
X87770610Y-98489003D01*
X87680953Y-98384951D01*
X87565696Y-98310244D01*
X87434103Y-98270890D01*
X87425127Y-98270835D01*
X87425126Y-98270835D01*
X87367580Y-98270484D01*
X87296755Y-98270051D01*
X87164692Y-98307795D01*
X87157105Y-98312582D01*
X87157103Y-98312583D01*
X87095350Y-98351546D01*
X87048531Y-98381087D01*
X86957609Y-98484036D01*
X86899236Y-98608366D01*
X86889527Y-98670724D01*
X86879486Y-98735209D01*
X86879486Y-98735213D01*
X86878105Y-98744082D01*
X84254000Y-98744082D01*
X84254000Y-97654082D01*
X93655605Y-97654082D01*
X93673414Y-97790273D01*
X93728732Y-97915992D01*
X93817111Y-98021132D01*
X93931447Y-98097240D01*
X94062549Y-98138199D01*
X94199876Y-98140716D01*
X94209109Y-98138199D01*
X94323727Y-98106951D01*
X94332391Y-98104589D01*
X94340042Y-98099891D01*
X94348281Y-98096326D01*
X94349462Y-98099055D01*
X94403533Y-98084375D01*
X94471229Y-98105770D01*
X94475193Y-98108850D01*
X94477111Y-98111132D01*
X94484216Y-98115862D01*
X94484218Y-98115863D01*
X94583973Y-98182265D01*
X94591447Y-98187240D01*
X94722549Y-98228199D01*
X94859876Y-98230716D01*
X94869109Y-98228199D01*
X94983727Y-98196951D01*
X94992391Y-98194589D01*
X95109439Y-98122721D01*
X95119929Y-98111132D01*
X95195584Y-98027550D01*
X95195585Y-98027549D01*
X95201612Y-98020890D01*
X95261499Y-97897283D01*
X95284286Y-97761836D01*
X95284431Y-97750000D01*
X95271970Y-97662987D01*
X95266232Y-97622923D01*
X95266232Y-97622921D01*
X95264959Y-97614036D01*
X95208110Y-97489003D01*
X95118453Y-97384951D01*
X95003196Y-97310244D01*
X94871603Y-97270890D01*
X94862627Y-97270835D01*
X94862626Y-97270835D01*
X94805080Y-97270484D01*
X94734255Y-97270051D01*
X94697041Y-97280687D01*
X94610823Y-97305328D01*
X94610822Y-97305329D01*
X94602192Y-97307795D01*
X94594604Y-97312583D01*
X94590237Y-97314536D01*
X94519886Y-97324091D01*
X94459415Y-97296067D01*
X94458453Y-97294951D01*
X94343196Y-97220244D01*
X94211603Y-97180890D01*
X94202627Y-97180835D01*
X94202626Y-97180835D01*
X94145080Y-97180484D01*
X94074255Y-97180051D01*
X93942192Y-97217795D01*
X93934605Y-97222582D01*
X93934603Y-97222583D01*
X93884405Y-97254256D01*
X93826031Y-97291087D01*
X93820088Y-97297816D01*
X93778779Y-97344589D01*
X93735109Y-97394036D01*
X93731295Y-97402159D01*
X93731294Y-97402161D01*
X93726296Y-97412806D01*
X93676736Y-97518366D01*
X93675356Y-97527232D01*
X93656986Y-97645209D01*
X93656986Y-97645213D01*
X93655605Y-97654082D01*
X84254000Y-97654082D01*
X84254000Y-96894082D01*
X90915605Y-96894082D01*
X90916769Y-96902984D01*
X90916769Y-96902987D01*
X90923474Y-96954256D01*
X90933414Y-97030273D01*
X90988732Y-97155992D01*
X90994510Y-97162865D01*
X90994510Y-97162866D01*
X91042741Y-97220244D01*
X91077111Y-97261132D01*
X91191447Y-97337240D01*
X91322549Y-97378199D01*
X91459876Y-97380716D01*
X91469109Y-97378199D01*
X91583727Y-97346951D01*
X91592391Y-97344589D01*
X91679527Y-97291087D01*
X91701024Y-97277888D01*
X91769542Y-97259290D01*
X91837237Y-97280687D01*
X91882282Y-97334517D01*
X91913732Y-97405992D01*
X92002111Y-97511132D01*
X92116447Y-97587240D01*
X92202216Y-97614036D01*
X92230662Y-97622923D01*
X92247549Y-97628199D01*
X92384876Y-97630716D01*
X92394109Y-97628199D01*
X92508727Y-97596951D01*
X92517391Y-97594589D01*
X92634439Y-97522721D01*
X92651153Y-97504256D01*
X92720584Y-97427550D01*
X92720585Y-97427549D01*
X92726612Y-97420890D01*
X92742883Y-97387308D01*
X92782585Y-97305362D01*
X92782585Y-97305361D01*
X92786499Y-97297283D01*
X92809286Y-97161836D01*
X92809431Y-97150000D01*
X92808584Y-97144082D01*
X92791232Y-97022923D01*
X92791232Y-97022921D01*
X92789959Y-97014036D01*
X92733110Y-96889003D01*
X92643453Y-96784951D01*
X92528196Y-96710244D01*
X92396603Y-96670890D01*
X92387627Y-96670835D01*
X92387626Y-96670835D01*
X92330080Y-96670484D01*
X92259255Y-96670051D01*
X92127192Y-96707795D01*
X92119602Y-96712584D01*
X92025700Y-96771831D01*
X91957415Y-96791265D01*
X91889463Y-96770695D01*
X91843764Y-96717420D01*
X91839332Y-96707673D01*
X91808110Y-96639003D01*
X91769404Y-96594082D01*
X95315605Y-96594082D01*
X95316769Y-96602984D01*
X95316769Y-96602987D01*
X95321479Y-96639003D01*
X95333414Y-96730273D01*
X95388732Y-96855992D01*
X95394510Y-96862865D01*
X95394510Y-96862866D01*
X95471331Y-96954256D01*
X95477111Y-96961132D01*
X95484588Y-96966109D01*
X95580981Y-97030273D01*
X95591447Y-97037240D01*
X95722549Y-97078199D01*
X95859876Y-97080716D01*
X95869109Y-97078199D01*
X95983727Y-97046951D01*
X95992391Y-97044589D01*
X96109439Y-96972721D01*
X96126153Y-96954256D01*
X96195584Y-96877550D01*
X96195585Y-96877549D01*
X96201612Y-96870890D01*
X96239954Y-96791753D01*
X96257585Y-96755362D01*
X96257585Y-96755361D01*
X96261499Y-96747283D01*
X96284286Y-96611836D01*
X96284431Y-96600000D01*
X96283584Y-96594082D01*
X96266232Y-96472923D01*
X96266232Y-96472921D01*
X96264959Y-96464036D01*
X96208110Y-96339003D01*
X96118453Y-96234951D01*
X96003196Y-96160244D01*
X95871603Y-96120890D01*
X95862627Y-96120835D01*
X95862626Y-96120835D01*
X95805080Y-96120484D01*
X95734255Y-96120051D01*
X95602192Y-96157795D01*
X95594605Y-96162582D01*
X95594603Y-96162583D01*
X95532850Y-96201546D01*
X95486031Y-96231087D01*
X95480088Y-96237816D01*
X95464592Y-96255362D01*
X95395109Y-96334036D01*
X95391295Y-96342159D01*
X95391294Y-96342161D01*
X95363136Y-96402136D01*
X95336736Y-96458366D01*
X95329321Y-96505992D01*
X95316986Y-96585209D01*
X95316986Y-96585213D01*
X95315605Y-96594082D01*
X91769404Y-96594082D01*
X91718453Y-96534951D01*
X91603196Y-96460244D01*
X91471603Y-96420890D01*
X91462627Y-96420835D01*
X91462626Y-96420835D01*
X91405080Y-96420484D01*
X91334255Y-96420051D01*
X91202192Y-96457795D01*
X91194605Y-96462582D01*
X91194603Y-96462583D01*
X91171093Y-96477417D01*
X91086031Y-96531087D01*
X91080088Y-96537816D01*
X91076611Y-96541753D01*
X90995109Y-96634036D01*
X90936736Y-96758366D01*
X90932597Y-96784951D01*
X90916986Y-96885209D01*
X90916986Y-96885213D01*
X90915605Y-96894082D01*
X84254000Y-96894082D01*
X84254000Y-96094082D01*
X97615605Y-96094082D01*
X97616769Y-96102984D01*
X97616769Y-96102987D01*
X97619323Y-96122518D01*
X97633414Y-96230273D01*
X97688732Y-96355992D01*
X97694510Y-96362865D01*
X97694510Y-96362866D01*
X97742579Y-96420051D01*
X97777111Y-96461132D01*
X97891447Y-96537240D01*
X98022549Y-96578199D01*
X98159876Y-96580716D01*
X98169109Y-96578199D01*
X98283727Y-96546951D01*
X98292391Y-96544589D01*
X98409439Y-96472721D01*
X98417300Y-96464036D01*
X98495584Y-96377550D01*
X98495585Y-96377549D01*
X98501612Y-96370890D01*
X98522728Y-96327308D01*
X98557585Y-96255362D01*
X98557585Y-96255361D01*
X98561499Y-96247283D01*
X98562038Y-96244082D01*
X106740605Y-96244082D01*
X106741769Y-96252984D01*
X106741769Y-96252987D01*
X106743554Y-96266633D01*
X106758414Y-96380273D01*
X106813732Y-96505992D01*
X106819510Y-96512865D01*
X106819510Y-96512866D01*
X106895264Y-96602987D01*
X106902111Y-96611132D01*
X107016447Y-96687240D01*
X107147549Y-96728199D01*
X107284876Y-96730716D01*
X107294109Y-96728199D01*
X107408727Y-96696951D01*
X107417391Y-96694589D01*
X107534439Y-96622721D01*
X107544929Y-96611132D01*
X107620584Y-96527550D01*
X107620585Y-96527549D01*
X107626612Y-96520890D01*
X107647675Y-96477417D01*
X107682585Y-96405362D01*
X107682585Y-96405361D01*
X107686499Y-96397283D01*
X107709286Y-96261836D01*
X107709431Y-96250000D01*
X107708584Y-96244082D01*
X107691232Y-96122923D01*
X107691232Y-96122921D01*
X107689959Y-96114036D01*
X107680887Y-96094082D01*
X107636826Y-95997177D01*
X107633110Y-95989003D01*
X107543453Y-95884951D01*
X107428196Y-95810244D01*
X107296603Y-95770890D01*
X107287627Y-95770835D01*
X107287626Y-95770835D01*
X107230080Y-95770484D01*
X107159255Y-95770051D01*
X107027192Y-95807795D01*
X107019605Y-95812582D01*
X107019603Y-95812583D01*
X106988512Y-95832200D01*
X106911031Y-95881087D01*
X106905088Y-95887816D01*
X106834950Y-95967232D01*
X106820109Y-95984036D01*
X106761736Y-96108366D01*
X106754424Y-96155329D01*
X106741986Y-96235209D01*
X106741986Y-96235213D01*
X106740605Y-96244082D01*
X98562038Y-96244082D01*
X98584286Y-96111836D01*
X98584431Y-96100000D01*
X98583584Y-96094082D01*
X98566232Y-95972923D01*
X98566232Y-95972921D01*
X98564959Y-95964036D01*
X98508110Y-95839003D01*
X98418453Y-95734951D01*
X98303196Y-95660244D01*
X98171603Y-95620890D01*
X98162627Y-95620835D01*
X98162626Y-95620835D01*
X98105080Y-95620484D01*
X98034255Y-95620051D01*
X97902192Y-95657795D01*
X97894605Y-95662582D01*
X97894603Y-95662583D01*
X97832850Y-95701546D01*
X97786031Y-95731087D01*
X97780088Y-95737816D01*
X97714056Y-95812583D01*
X97695109Y-95834036D01*
X97691295Y-95842159D01*
X97691294Y-95842161D01*
X97671204Y-95884951D01*
X97636736Y-95958366D01*
X97633787Y-95977308D01*
X97616986Y-96085209D01*
X97616986Y-96085213D01*
X97615605Y-96094082D01*
X84254000Y-96094082D01*
X84254000Y-94694082D01*
X85515605Y-94694082D01*
X85516769Y-94702984D01*
X85516769Y-94702987D01*
X85522518Y-94746951D01*
X85533414Y-94830273D01*
X85588732Y-94955992D01*
X85594510Y-94962865D01*
X85594510Y-94962866D01*
X85626508Y-95000932D01*
X85677111Y-95061132D01*
X85791447Y-95137240D01*
X85922549Y-95178199D01*
X86059876Y-95180716D01*
X86069109Y-95178199D01*
X86183727Y-95146951D01*
X86192391Y-95144589D01*
X86309439Y-95072721D01*
X86374364Y-95000993D01*
X86395584Y-94977550D01*
X86395585Y-94977549D01*
X86401612Y-94970890D01*
X86451767Y-94867371D01*
X86456994Y-94856582D01*
X110615605Y-94856582D01*
X110616769Y-94865484D01*
X110616769Y-94865487D01*
X110618554Y-94879133D01*
X110633414Y-94992773D01*
X110688732Y-95118492D01*
X110694510Y-95125365D01*
X110694510Y-95125366D01*
X110740898Y-95180551D01*
X110777111Y-95223632D01*
X110891447Y-95299740D01*
X111022549Y-95340699D01*
X111159876Y-95343216D01*
X111169109Y-95340699D01*
X111283727Y-95309451D01*
X111292391Y-95307089D01*
X111409439Y-95235221D01*
X111458924Y-95180551D01*
X111495584Y-95140050D01*
X111495585Y-95140049D01*
X111501612Y-95133390D01*
X111534210Y-95066109D01*
X111557585Y-95017862D01*
X111557585Y-95017861D01*
X111561499Y-95009783D01*
X111584286Y-94874336D01*
X111584431Y-94862500D01*
X111583584Y-94856582D01*
X111566232Y-94735423D01*
X111566232Y-94735421D01*
X111564959Y-94726536D01*
X111508110Y-94601503D01*
X111418453Y-94497451D01*
X111303196Y-94422744D01*
X111171603Y-94383390D01*
X111162627Y-94383335D01*
X111162626Y-94383335D01*
X111105080Y-94382984D01*
X111034255Y-94382551D01*
X110902192Y-94420295D01*
X110894605Y-94425082D01*
X110894603Y-94425083D01*
X110846614Y-94455362D01*
X110786031Y-94493587D01*
X110780088Y-94500316D01*
X110723812Y-94564036D01*
X110695109Y-94596536D01*
X110636736Y-94720866D01*
X110632675Y-94746951D01*
X110616986Y-94847709D01*
X110616986Y-94847713D01*
X110615605Y-94856582D01*
X86456994Y-94856582D01*
X86457585Y-94855362D01*
X86457585Y-94855361D01*
X86461499Y-94847283D01*
X86484286Y-94711836D01*
X86484431Y-94700000D01*
X86483584Y-94694082D01*
X86466232Y-94572923D01*
X86466232Y-94572921D01*
X86464959Y-94564036D01*
X86408110Y-94439003D01*
X86318453Y-94334951D01*
X86255401Y-94294082D01*
X90015605Y-94294082D01*
X90016769Y-94302984D01*
X90016769Y-94302987D01*
X90020444Y-94331087D01*
X90033414Y-94430273D01*
X90088732Y-94555992D01*
X90094510Y-94562865D01*
X90094510Y-94562866D01*
X90126988Y-94601503D01*
X90177111Y-94661132D01*
X90184588Y-94666109D01*
X90275367Y-94726536D01*
X90291447Y-94737240D01*
X90422549Y-94778199D01*
X90559876Y-94780716D01*
X90569109Y-94778199D01*
X90683727Y-94746951D01*
X90692391Y-94744589D01*
X90809439Y-94672721D01*
X90871044Y-94604661D01*
X90895584Y-94577550D01*
X90895585Y-94577549D01*
X90901612Y-94570890D01*
X90911616Y-94550243D01*
X90957585Y-94455362D01*
X90957585Y-94455361D01*
X90961499Y-94447283D01*
X90984286Y-94311836D01*
X90984431Y-94300000D01*
X90983584Y-94294082D01*
X90966232Y-94172923D01*
X90966232Y-94172921D01*
X90964959Y-94164036D01*
X90908110Y-94039003D01*
X90818453Y-93934951D01*
X90703196Y-93860244D01*
X90571603Y-93820890D01*
X90562627Y-93820835D01*
X90562626Y-93820835D01*
X90505080Y-93820484D01*
X90434255Y-93820051D01*
X90302192Y-93857795D01*
X90294605Y-93862582D01*
X90294603Y-93862583D01*
X90232850Y-93901546D01*
X90186031Y-93931087D01*
X90095109Y-94034036D01*
X90036736Y-94158366D01*
X90027132Y-94220051D01*
X90016986Y-94285209D01*
X90016986Y-94285213D01*
X90015605Y-94294082D01*
X86255401Y-94294082D01*
X86203196Y-94260244D01*
X86071603Y-94220890D01*
X86062627Y-94220835D01*
X86062626Y-94220835D01*
X86005080Y-94220484D01*
X85934255Y-94220051D01*
X85802192Y-94257795D01*
X85794605Y-94262582D01*
X85794603Y-94262583D01*
X85758743Y-94285209D01*
X85686031Y-94331087D01*
X85595109Y-94434036D01*
X85591295Y-94442159D01*
X85591294Y-94442161D01*
X85563136Y-94502136D01*
X85536736Y-94558366D01*
X85531079Y-94594700D01*
X85516986Y-94685209D01*
X85516986Y-94685213D01*
X85515605Y-94694082D01*
X84254000Y-94694082D01*
X84254000Y-92494082D01*
X97403105Y-92494082D01*
X97404269Y-92502984D01*
X97404269Y-92502987D01*
X97406054Y-92516633D01*
X97420914Y-92630273D01*
X97476232Y-92755992D01*
X97564611Y-92861132D01*
X97678947Y-92937240D01*
X97810049Y-92978199D01*
X97947376Y-92980716D01*
X97956609Y-92978199D01*
X98071227Y-92946951D01*
X98079891Y-92944589D01*
X98196939Y-92872721D01*
X98289112Y-92770890D01*
X98317225Y-92712866D01*
X98345085Y-92655362D01*
X98345085Y-92655361D01*
X98348999Y-92647283D01*
X98371786Y-92511836D01*
X98371931Y-92500000D01*
X98371084Y-92494082D01*
X98363923Y-92444082D01*
X102415605Y-92444082D01*
X102416769Y-92452984D01*
X102416769Y-92452987D01*
X102418554Y-92466633D01*
X102433414Y-92580273D01*
X102488732Y-92705992D01*
X102494510Y-92712865D01*
X102494510Y-92712866D01*
X102571331Y-92804256D01*
X102577111Y-92811132D01*
X102691447Y-92887240D01*
X102822549Y-92928199D01*
X102959876Y-92930716D01*
X102969109Y-92928199D01*
X103083727Y-92896951D01*
X103092391Y-92894589D01*
X103209439Y-92822721D01*
X103263617Y-92762866D01*
X103295584Y-92727550D01*
X103295585Y-92727549D01*
X103301612Y-92720890D01*
X103337275Y-92647283D01*
X103357585Y-92605362D01*
X103357585Y-92605361D01*
X103361499Y-92597283D01*
X103384286Y-92461836D01*
X103384431Y-92450000D01*
X103383584Y-92444082D01*
X103366232Y-92322923D01*
X103366232Y-92322921D01*
X103364959Y-92314036D01*
X103308110Y-92189003D01*
X103218453Y-92084951D01*
X103103196Y-92010244D01*
X102971603Y-91970890D01*
X102962627Y-91970835D01*
X102962626Y-91970835D01*
X102905080Y-91970484D01*
X102834255Y-91970051D01*
X102702192Y-92007795D01*
X102694605Y-92012582D01*
X102694603Y-92012583D01*
X102632850Y-92051546D01*
X102586031Y-92081087D01*
X102495109Y-92184036D01*
X102436736Y-92308366D01*
X102428951Y-92358366D01*
X102416986Y-92435209D01*
X102416986Y-92435213D01*
X102415605Y-92444082D01*
X98363923Y-92444082D01*
X98353732Y-92372923D01*
X98353732Y-92372921D01*
X98352459Y-92364036D01*
X98295610Y-92239003D01*
X98205953Y-92134951D01*
X98090696Y-92060244D01*
X97959103Y-92020890D01*
X97950127Y-92020835D01*
X97950126Y-92020835D01*
X97892580Y-92020484D01*
X97821755Y-92020051D01*
X97689692Y-92057795D01*
X97682105Y-92062582D01*
X97682103Y-92062583D01*
X97635872Y-92091753D01*
X97573531Y-92131087D01*
X97482609Y-92234036D01*
X97424236Y-92358366D01*
X97414527Y-92420724D01*
X97404486Y-92485209D01*
X97404486Y-92485213D01*
X97403105Y-92494082D01*
X84254000Y-92494082D01*
X84254000Y-90494082D01*
X85515605Y-90494082D01*
X85516769Y-90502984D01*
X85516769Y-90502987D01*
X85518554Y-90516633D01*
X85533414Y-90630273D01*
X85588732Y-90755992D01*
X85677111Y-90861132D01*
X85791447Y-90937240D01*
X85922549Y-90978199D01*
X86059876Y-90980716D01*
X86069109Y-90978199D01*
X86183727Y-90946951D01*
X86192391Y-90944589D01*
X86309439Y-90872721D01*
X86401612Y-90770890D01*
X86461499Y-90647283D01*
X86484286Y-90511836D01*
X86484431Y-90500000D01*
X86483584Y-90494082D01*
X86466232Y-90372923D01*
X86466232Y-90372921D01*
X86464959Y-90364036D01*
X86408110Y-90239003D01*
X86318453Y-90134951D01*
X86203196Y-90060244D01*
X86071603Y-90020890D01*
X86062627Y-90020835D01*
X86062626Y-90020835D01*
X86005080Y-90020484D01*
X85934255Y-90020051D01*
X85802192Y-90057795D01*
X85794605Y-90062582D01*
X85794603Y-90062583D01*
X85732850Y-90101546D01*
X85686031Y-90131087D01*
X85680088Y-90137816D01*
X85650878Y-90170890D01*
X85595109Y-90234036D01*
X85591295Y-90242159D01*
X85591294Y-90242161D01*
X85563136Y-90302136D01*
X85536736Y-90358366D01*
X85533282Y-90380551D01*
X85516986Y-90485209D01*
X85516986Y-90485213D01*
X85515605Y-90494082D01*
X84254000Y-90494082D01*
X84254000Y-89894082D01*
X95415605Y-89894082D01*
X95416769Y-89902984D01*
X95416769Y-89902987D01*
X95418554Y-89916633D01*
X95433414Y-90030273D01*
X95488732Y-90155992D01*
X95494510Y-90162865D01*
X95494510Y-90162866D01*
X95558510Y-90239003D01*
X95577111Y-90261132D01*
X95691447Y-90337240D01*
X95777216Y-90364036D01*
X95805662Y-90372923D01*
X95822549Y-90378199D01*
X95959876Y-90380716D01*
X95969109Y-90378199D01*
X96026133Y-90362653D01*
X96092391Y-90344589D01*
X96209439Y-90272721D01*
X96226153Y-90254256D01*
X96295584Y-90177550D01*
X96295585Y-90177549D01*
X96301612Y-90170890D01*
X96317637Y-90137816D01*
X96357585Y-90055362D01*
X96357585Y-90055361D01*
X96361499Y-90047283D01*
X96384286Y-89911836D01*
X96384431Y-89900000D01*
X96383584Y-89894082D01*
X96366232Y-89772923D01*
X96366232Y-89772921D01*
X96364959Y-89764036D01*
X96308110Y-89639003D01*
X96218453Y-89534951D01*
X96103196Y-89460244D01*
X95971603Y-89420890D01*
X95962627Y-89420835D01*
X95962626Y-89420835D01*
X95905080Y-89420484D01*
X95834255Y-89420051D01*
X95702192Y-89457795D01*
X95694605Y-89462582D01*
X95694603Y-89462583D01*
X95632850Y-89501546D01*
X95586031Y-89531087D01*
X95495109Y-89634036D01*
X95436736Y-89758366D01*
X95427027Y-89820724D01*
X95416986Y-89885209D01*
X95416986Y-89885213D01*
X95415605Y-89894082D01*
X84254000Y-89894082D01*
X84254000Y-88969082D01*
X101150605Y-88969082D01*
X101151769Y-88977984D01*
X101151769Y-88977987D01*
X101153554Y-88991633D01*
X101168414Y-89105273D01*
X101223732Y-89230992D01*
X101312111Y-89336132D01*
X101426447Y-89412240D01*
X101557549Y-89453199D01*
X101694876Y-89455716D01*
X101704109Y-89453199D01*
X101818727Y-89421951D01*
X101827391Y-89419589D01*
X101944439Y-89347721D01*
X102036612Y-89245890D01*
X102096499Y-89122283D01*
X102119286Y-88986836D01*
X102119431Y-88975000D01*
X102118584Y-88969082D01*
X111150605Y-88969082D01*
X111151769Y-88977984D01*
X111151769Y-88977987D01*
X111153554Y-88991633D01*
X111168414Y-89105273D01*
X111223732Y-89230992D01*
X111312111Y-89336132D01*
X111426447Y-89412240D01*
X111557549Y-89453199D01*
X111694876Y-89455716D01*
X111704109Y-89453199D01*
X111818727Y-89421951D01*
X111827391Y-89419589D01*
X111944439Y-89347721D01*
X112036612Y-89245890D01*
X112096499Y-89122283D01*
X112119286Y-88986836D01*
X112119431Y-88975000D01*
X112118584Y-88969082D01*
X112101232Y-88847923D01*
X112101232Y-88847921D01*
X112099959Y-88839036D01*
X112043110Y-88714003D01*
X111953453Y-88609951D01*
X111838196Y-88535244D01*
X111706603Y-88495890D01*
X111697627Y-88495835D01*
X111697626Y-88495835D01*
X111640080Y-88495484D01*
X111569255Y-88495051D01*
X111437192Y-88532795D01*
X111429605Y-88537582D01*
X111429603Y-88537583D01*
X111367850Y-88576546D01*
X111321031Y-88606087D01*
X111230109Y-88709036D01*
X111171736Y-88833366D01*
X111162027Y-88895724D01*
X111151986Y-88960209D01*
X111151986Y-88960213D01*
X111150605Y-88969082D01*
X102118584Y-88969082D01*
X102101232Y-88847923D01*
X102101232Y-88847921D01*
X102099959Y-88839036D01*
X102043110Y-88714003D01*
X101953453Y-88609951D01*
X101838196Y-88535244D01*
X101706603Y-88495890D01*
X101697627Y-88495835D01*
X101697626Y-88495835D01*
X101640080Y-88495484D01*
X101569255Y-88495051D01*
X101437192Y-88532795D01*
X101429605Y-88537582D01*
X101429603Y-88537583D01*
X101367850Y-88576546D01*
X101321031Y-88606087D01*
X101230109Y-88709036D01*
X101171736Y-88833366D01*
X101162027Y-88895724D01*
X101151986Y-88960209D01*
X101151986Y-88960213D01*
X101150605Y-88969082D01*
X84254000Y-88969082D01*
X84254000Y-87994082D01*
X95428105Y-87994082D01*
X95429269Y-88002984D01*
X95429269Y-88002987D01*
X95431054Y-88016633D01*
X95445914Y-88130273D01*
X95501232Y-88255992D01*
X95589611Y-88361132D01*
X95703947Y-88437240D01*
X95835049Y-88478199D01*
X95972376Y-88480716D01*
X95981609Y-88478199D01*
X96096227Y-88446951D01*
X96104891Y-88444589D01*
X96221939Y-88372721D01*
X96314112Y-88270890D01*
X96373999Y-88147283D01*
X96396786Y-88011836D01*
X96396931Y-88000000D01*
X96396084Y-87994082D01*
X96378732Y-87872923D01*
X96378732Y-87872921D01*
X96377459Y-87864036D01*
X96320610Y-87739003D01*
X96230953Y-87634951D01*
X96115696Y-87560244D01*
X95984103Y-87520890D01*
X95975127Y-87520835D01*
X95975126Y-87520835D01*
X95917580Y-87520484D01*
X95846755Y-87520051D01*
X95714692Y-87557795D01*
X95707105Y-87562582D01*
X95707103Y-87562583D01*
X95645350Y-87601546D01*
X95598531Y-87631087D01*
X95507609Y-87734036D01*
X95503795Y-87742159D01*
X95503794Y-87742161D01*
X95498419Y-87753609D01*
X95449236Y-87858366D01*
X95439527Y-87920724D01*
X95429486Y-87985209D01*
X95429486Y-87985213D01*
X95428105Y-87994082D01*
X84254000Y-87994082D01*
X84254000Y-87381582D01*
X104215605Y-87381582D01*
X104216769Y-87390484D01*
X104216769Y-87390487D01*
X104218554Y-87404133D01*
X104233414Y-87517773D01*
X104288732Y-87643492D01*
X104294510Y-87650365D01*
X104294510Y-87650366D01*
X104364842Y-87734036D01*
X104377111Y-87748632D01*
X104491447Y-87824740D01*
X104622549Y-87865699D01*
X104759876Y-87868216D01*
X104769109Y-87865699D01*
X104883727Y-87834451D01*
X104892391Y-87832089D01*
X105009439Y-87760221D01*
X105033141Y-87734036D01*
X105095584Y-87665050D01*
X105095585Y-87665049D01*
X105101612Y-87658390D01*
X105115335Y-87630067D01*
X105157585Y-87542862D01*
X105157585Y-87542861D01*
X105161499Y-87534783D01*
X105184286Y-87399336D01*
X105184431Y-87387500D01*
X105183584Y-87381582D01*
X114215605Y-87381582D01*
X114216769Y-87390484D01*
X114216769Y-87390487D01*
X114218554Y-87404133D01*
X114233414Y-87517773D01*
X114288732Y-87643492D01*
X114294510Y-87650365D01*
X114294510Y-87650366D01*
X114364842Y-87734036D01*
X114377111Y-87748632D01*
X114491447Y-87824740D01*
X114622549Y-87865699D01*
X114759876Y-87868216D01*
X114769109Y-87865699D01*
X114883727Y-87834451D01*
X114892391Y-87832089D01*
X115009439Y-87760221D01*
X115033141Y-87734036D01*
X115095584Y-87665050D01*
X115095585Y-87665049D01*
X115101612Y-87658390D01*
X115115335Y-87630067D01*
X115157585Y-87542862D01*
X115157585Y-87542861D01*
X115161499Y-87534783D01*
X115184286Y-87399336D01*
X115184431Y-87387500D01*
X115183584Y-87381582D01*
X115166232Y-87260423D01*
X115166232Y-87260421D01*
X115164959Y-87251536D01*
X115108110Y-87126503D01*
X115018453Y-87022451D01*
X114903196Y-86947744D01*
X114771603Y-86908390D01*
X114762627Y-86908335D01*
X114762626Y-86908335D01*
X114705080Y-86907984D01*
X114634255Y-86907551D01*
X114502192Y-86945295D01*
X114494605Y-86950082D01*
X114494603Y-86950083D01*
X114432850Y-86989046D01*
X114386031Y-87018587D01*
X114380088Y-87025316D01*
X114352996Y-87055992D01*
X114295109Y-87121536D01*
X114236736Y-87245866D01*
X114232119Y-87275522D01*
X114216986Y-87372709D01*
X114216986Y-87372713D01*
X114215605Y-87381582D01*
X105183584Y-87381582D01*
X105166232Y-87260423D01*
X105166232Y-87260421D01*
X105164959Y-87251536D01*
X105108110Y-87126503D01*
X105018453Y-87022451D01*
X104903196Y-86947744D01*
X104771603Y-86908390D01*
X104762627Y-86908335D01*
X104762626Y-86908335D01*
X104705080Y-86907984D01*
X104634255Y-86907551D01*
X104502192Y-86945295D01*
X104494605Y-86950082D01*
X104494603Y-86950083D01*
X104432850Y-86989046D01*
X104386031Y-87018587D01*
X104380088Y-87025316D01*
X104352996Y-87055992D01*
X104295109Y-87121536D01*
X104236736Y-87245866D01*
X104232119Y-87275522D01*
X104216986Y-87372709D01*
X104216986Y-87372713D01*
X104215605Y-87381582D01*
X84254000Y-87381582D01*
X84254000Y-86094082D01*
X93515605Y-86094082D01*
X93516769Y-86102984D01*
X93516769Y-86102987D01*
X93518554Y-86116633D01*
X93533414Y-86230273D01*
X93588732Y-86355992D01*
X93677111Y-86461132D01*
X93791447Y-86537240D01*
X93922549Y-86578199D01*
X94059876Y-86580716D01*
X94068540Y-86578354D01*
X94174088Y-86549579D01*
X94245071Y-86550959D01*
X94304040Y-86590496D01*
X94332272Y-86655638D01*
X94331729Y-86690524D01*
X94315605Y-86794082D01*
X94316769Y-86802984D01*
X94316769Y-86802987D01*
X94318554Y-86816633D01*
X94333414Y-86930273D01*
X94361073Y-86993133D01*
X94373974Y-87022451D01*
X94388732Y-87055992D01*
X94477111Y-87161132D01*
X94591447Y-87237240D01*
X94722549Y-87278199D01*
X94859876Y-87280716D01*
X94869109Y-87278199D01*
X94983727Y-87246951D01*
X94992391Y-87244589D01*
X95109439Y-87172721D01*
X95151274Y-87126503D01*
X95195584Y-87077550D01*
X95195585Y-87077549D01*
X95201612Y-87070890D01*
X95223693Y-87025316D01*
X95257585Y-86955362D01*
X95257585Y-86955361D01*
X95261499Y-86947283D01*
X95284286Y-86811836D01*
X95284431Y-86800000D01*
X95283584Y-86794082D01*
X95266232Y-86672923D01*
X95266232Y-86672921D01*
X95264959Y-86664036D01*
X95208110Y-86539003D01*
X95118453Y-86434951D01*
X95003196Y-86360244D01*
X94871603Y-86320890D01*
X94862627Y-86320835D01*
X94862626Y-86320835D01*
X94805080Y-86320484D01*
X94734255Y-86320051D01*
X94626870Y-86350742D01*
X94555876Y-86350230D01*
X94496429Y-86311416D01*
X94467402Y-86246624D01*
X94467992Y-86208689D01*
X94483479Y-86116633D01*
X94484286Y-86111836D01*
X94484431Y-86100000D01*
X94483584Y-86094082D01*
X103615605Y-86094082D01*
X103616769Y-86102984D01*
X103616769Y-86102987D01*
X103618554Y-86116633D01*
X103633414Y-86230273D01*
X103688732Y-86355992D01*
X103777111Y-86461132D01*
X103891447Y-86537240D01*
X104022549Y-86578199D01*
X104159876Y-86580716D01*
X104169109Y-86578199D01*
X104269026Y-86550959D01*
X104292391Y-86544589D01*
X104409439Y-86472721D01*
X104443627Y-86434951D01*
X104495584Y-86377550D01*
X104495585Y-86377549D01*
X104501612Y-86370890D01*
X104507957Y-86357795D01*
X104557585Y-86255362D01*
X104557585Y-86255361D01*
X104561499Y-86247283D01*
X104584286Y-86111836D01*
X104584431Y-86100000D01*
X104583584Y-86094082D01*
X104566232Y-85972923D01*
X104566232Y-85972921D01*
X104564959Y-85964036D01*
X104508110Y-85839003D01*
X104418453Y-85734951D01*
X104303196Y-85660244D01*
X104171603Y-85620890D01*
X104162627Y-85620835D01*
X104162626Y-85620835D01*
X104105080Y-85620484D01*
X104034255Y-85620051D01*
X103902192Y-85657795D01*
X103894605Y-85662582D01*
X103894603Y-85662583D01*
X103832850Y-85701546D01*
X103786031Y-85731087D01*
X103695109Y-85834036D01*
X103636736Y-85958366D01*
X103627027Y-86020724D01*
X103616986Y-86085209D01*
X103616986Y-86085213D01*
X103615605Y-86094082D01*
X94483584Y-86094082D01*
X94466232Y-85972923D01*
X94466232Y-85972921D01*
X94464959Y-85964036D01*
X94408110Y-85839003D01*
X94318453Y-85734951D01*
X94203196Y-85660244D01*
X94071603Y-85620890D01*
X94062627Y-85620835D01*
X94062626Y-85620835D01*
X94005080Y-85620484D01*
X93934255Y-85620051D01*
X93802192Y-85657795D01*
X93794605Y-85662582D01*
X93794603Y-85662583D01*
X93732850Y-85701546D01*
X93686031Y-85731087D01*
X93595109Y-85834036D01*
X93536736Y-85958366D01*
X93527027Y-86020724D01*
X93516986Y-86085209D01*
X93516986Y-86085213D01*
X93515605Y-86094082D01*
X84254000Y-86094082D01*
X84254000Y-84224082D01*
X90465605Y-84224082D01*
X90466769Y-84232984D01*
X90466769Y-84232987D01*
X90468554Y-84246633D01*
X90483414Y-84360273D01*
X90538732Y-84485992D01*
X90627111Y-84591132D01*
X90741447Y-84667240D01*
X90872549Y-84708199D01*
X91009876Y-84710716D01*
X91019109Y-84708199D01*
X91133727Y-84676951D01*
X91142391Y-84674589D01*
X91259439Y-84602721D01*
X91351612Y-84500890D01*
X91366778Y-84469589D01*
X91407585Y-84385362D01*
X91407585Y-84385361D01*
X91411499Y-84377283D01*
X91434286Y-84241836D01*
X91434431Y-84230000D01*
X91433584Y-84224082D01*
X91416232Y-84102923D01*
X91416232Y-84102921D01*
X91414959Y-84094036D01*
X91380880Y-84019082D01*
X99880605Y-84019082D01*
X99881769Y-84027984D01*
X99881769Y-84027987D01*
X99883554Y-84041633D01*
X99898414Y-84155273D01*
X99953732Y-84280992D01*
X100042111Y-84386132D01*
X100156447Y-84462240D01*
X100287549Y-84503199D01*
X100424876Y-84505716D01*
X100434109Y-84503199D01*
X100548727Y-84471951D01*
X100557391Y-84469589D01*
X100674439Y-84397721D01*
X100700950Y-84368432D01*
X100760584Y-84302550D01*
X100760585Y-84302549D01*
X100766612Y-84295890D01*
X100796176Y-84234871D01*
X100822585Y-84180362D01*
X100822585Y-84180361D01*
X100826499Y-84172283D01*
X100849286Y-84036836D01*
X100849431Y-84025000D01*
X100848584Y-84019082D01*
X101150605Y-84019082D01*
X101151769Y-84027984D01*
X101151769Y-84027987D01*
X101153554Y-84041633D01*
X101168414Y-84155273D01*
X101223732Y-84280992D01*
X101312111Y-84386132D01*
X101426447Y-84462240D01*
X101557549Y-84503199D01*
X101694876Y-84505716D01*
X101704109Y-84503199D01*
X101818727Y-84471951D01*
X101827391Y-84469589D01*
X101944439Y-84397721D01*
X101970950Y-84368432D01*
X102030584Y-84302550D01*
X102030585Y-84302549D01*
X102036612Y-84295890D01*
X102066176Y-84234871D01*
X102092585Y-84180362D01*
X102092585Y-84180361D01*
X102096499Y-84172283D01*
X102119286Y-84036836D01*
X102119431Y-84025000D01*
X102118584Y-84019082D01*
X109880605Y-84019082D01*
X109881769Y-84027984D01*
X109881769Y-84027987D01*
X109883554Y-84041633D01*
X109898414Y-84155273D01*
X109953732Y-84280992D01*
X110042111Y-84386132D01*
X110156447Y-84462240D01*
X110287549Y-84503199D01*
X110424876Y-84505716D01*
X110434109Y-84503199D01*
X110548727Y-84471951D01*
X110557391Y-84469589D01*
X110674439Y-84397721D01*
X110700950Y-84368432D01*
X110760584Y-84302550D01*
X110760585Y-84302549D01*
X110766612Y-84295890D01*
X110796176Y-84234871D01*
X110822585Y-84180362D01*
X110822585Y-84180361D01*
X110826499Y-84172283D01*
X110849286Y-84036836D01*
X110849431Y-84025000D01*
X110848584Y-84019082D01*
X111150605Y-84019082D01*
X111151769Y-84027984D01*
X111151769Y-84027987D01*
X111153554Y-84041633D01*
X111168414Y-84155273D01*
X111223732Y-84280992D01*
X111312111Y-84386132D01*
X111426447Y-84462240D01*
X111557549Y-84503199D01*
X111694876Y-84505716D01*
X111704109Y-84503199D01*
X111818727Y-84471951D01*
X111827391Y-84469589D01*
X111944439Y-84397721D01*
X111970950Y-84368432D01*
X112030584Y-84302550D01*
X112030585Y-84302549D01*
X112036612Y-84295890D01*
X112066176Y-84234871D01*
X112092585Y-84180362D01*
X112092585Y-84180361D01*
X112096499Y-84172283D01*
X112119286Y-84036836D01*
X112119431Y-84025000D01*
X112118584Y-84019082D01*
X112101232Y-83897923D01*
X112101232Y-83897921D01*
X112099959Y-83889036D01*
X112043110Y-83764003D01*
X111953453Y-83659951D01*
X111838196Y-83585244D01*
X111706603Y-83545890D01*
X111697627Y-83545835D01*
X111697626Y-83545835D01*
X111640080Y-83545484D01*
X111569255Y-83545051D01*
X111437192Y-83582795D01*
X111429605Y-83587582D01*
X111429603Y-83587583D01*
X111367850Y-83626546D01*
X111321031Y-83656087D01*
X111230109Y-83759036D01*
X111226295Y-83767159D01*
X111226294Y-83767161D01*
X111213165Y-83795125D01*
X111171736Y-83883366D01*
X111162027Y-83945724D01*
X111151986Y-84010209D01*
X111151986Y-84010213D01*
X111150605Y-84019082D01*
X110848584Y-84019082D01*
X110831232Y-83897923D01*
X110831232Y-83897921D01*
X110829959Y-83889036D01*
X110773110Y-83764003D01*
X110683453Y-83659951D01*
X110568196Y-83585244D01*
X110436603Y-83545890D01*
X110427627Y-83545835D01*
X110427626Y-83545835D01*
X110370080Y-83545484D01*
X110299255Y-83545051D01*
X110167192Y-83582795D01*
X110159605Y-83587582D01*
X110159603Y-83587583D01*
X110097850Y-83626546D01*
X110051031Y-83656087D01*
X109960109Y-83759036D01*
X109956295Y-83767159D01*
X109956294Y-83767161D01*
X109943165Y-83795125D01*
X109901736Y-83883366D01*
X109892027Y-83945724D01*
X109881986Y-84010209D01*
X109881986Y-84010213D01*
X109880605Y-84019082D01*
X102118584Y-84019082D01*
X102101232Y-83897923D01*
X102101232Y-83897921D01*
X102099959Y-83889036D01*
X102043110Y-83764003D01*
X101953453Y-83659951D01*
X101838196Y-83585244D01*
X101706603Y-83545890D01*
X101697627Y-83545835D01*
X101697626Y-83545835D01*
X101640080Y-83545484D01*
X101569255Y-83545051D01*
X101437192Y-83582795D01*
X101429605Y-83587582D01*
X101429603Y-83587583D01*
X101367850Y-83626546D01*
X101321031Y-83656087D01*
X101230109Y-83759036D01*
X101226295Y-83767159D01*
X101226294Y-83767161D01*
X101213165Y-83795125D01*
X101171736Y-83883366D01*
X101162027Y-83945724D01*
X101151986Y-84010209D01*
X101151986Y-84010213D01*
X101150605Y-84019082D01*
X100848584Y-84019082D01*
X100831232Y-83897923D01*
X100831232Y-83897921D01*
X100829959Y-83889036D01*
X100773110Y-83764003D01*
X100683453Y-83659951D01*
X100568196Y-83585244D01*
X100436603Y-83545890D01*
X100427627Y-83545835D01*
X100427626Y-83545835D01*
X100370080Y-83545484D01*
X100299255Y-83545051D01*
X100167192Y-83582795D01*
X100159605Y-83587582D01*
X100159603Y-83587583D01*
X100097850Y-83626546D01*
X100051031Y-83656087D01*
X99960109Y-83759036D01*
X99956295Y-83767159D01*
X99956294Y-83767161D01*
X99943165Y-83795125D01*
X99901736Y-83883366D01*
X99892027Y-83945724D01*
X99881986Y-84010209D01*
X99881986Y-84010213D01*
X99880605Y-84019082D01*
X91380880Y-84019082D01*
X91358110Y-83969003D01*
X91268453Y-83864951D01*
X91153196Y-83790244D01*
X91021603Y-83750890D01*
X91012627Y-83750835D01*
X91012626Y-83750835D01*
X90955080Y-83750484D01*
X90884255Y-83750051D01*
X90752192Y-83787795D01*
X90744605Y-83792582D01*
X90744603Y-83792583D01*
X90682850Y-83831546D01*
X90636031Y-83861087D01*
X90630088Y-83867816D01*
X90603498Y-83897923D01*
X90545109Y-83964036D01*
X90486736Y-84088366D01*
X90477705Y-84146368D01*
X90466986Y-84215209D01*
X90466986Y-84215213D01*
X90465605Y-84224082D01*
X84254000Y-84224082D01*
X84254000Y-82954082D01*
X90465605Y-82954082D01*
X90466769Y-82962984D01*
X90466769Y-82962987D01*
X90468554Y-82976633D01*
X90483414Y-83090273D01*
X90538732Y-83215992D01*
X90627111Y-83321132D01*
X90741447Y-83397240D01*
X90872549Y-83438199D01*
X91009876Y-83440716D01*
X91019109Y-83438199D01*
X91133727Y-83406951D01*
X91142391Y-83404589D01*
X91259439Y-83332721D01*
X91351612Y-83230890D01*
X91411499Y-83107283D01*
X91434286Y-82971836D01*
X91434431Y-82960000D01*
X91433584Y-82954082D01*
X91416232Y-82832923D01*
X91416232Y-82832921D01*
X91414959Y-82824036D01*
X91358110Y-82699003D01*
X91268453Y-82594951D01*
X91153196Y-82520244D01*
X91021603Y-82480890D01*
X91012627Y-82480835D01*
X91012626Y-82480835D01*
X90955080Y-82480484D01*
X90884255Y-82480051D01*
X90752192Y-82517795D01*
X90744605Y-82522582D01*
X90744603Y-82522583D01*
X90682850Y-82561546D01*
X90636031Y-82591087D01*
X90545109Y-82694036D01*
X90486736Y-82818366D01*
X90477027Y-82880724D01*
X90466986Y-82945209D01*
X90466986Y-82945213D01*
X90465605Y-82954082D01*
X84254000Y-82954082D01*
X84254000Y-81294082D01*
X87015605Y-81294082D01*
X87016769Y-81302984D01*
X87016769Y-81302987D01*
X87018554Y-81316633D01*
X87033414Y-81430273D01*
X87088732Y-81555992D01*
X87177111Y-81661132D01*
X87291447Y-81737240D01*
X87422549Y-81778199D01*
X87559876Y-81780716D01*
X87569109Y-81778199D01*
X87683727Y-81746951D01*
X87692391Y-81744589D01*
X87809439Y-81672721D01*
X87901612Y-81570890D01*
X87961499Y-81447283D01*
X87984286Y-81311836D01*
X87984431Y-81300000D01*
X87983584Y-81294082D01*
X87966232Y-81172923D01*
X87966232Y-81172921D01*
X87964959Y-81164036D01*
X87908110Y-81039003D01*
X87818453Y-80934951D01*
X87703196Y-80860244D01*
X87571603Y-80820890D01*
X87562627Y-80820835D01*
X87562626Y-80820835D01*
X87505080Y-80820484D01*
X87434255Y-80820051D01*
X87302192Y-80857795D01*
X87294605Y-80862582D01*
X87294603Y-80862583D01*
X87232850Y-80901546D01*
X87186031Y-80931087D01*
X87180088Y-80937816D01*
X87113825Y-81012844D01*
X87095109Y-81034036D01*
X87036736Y-81158366D01*
X87027027Y-81220724D01*
X87016986Y-81285209D01*
X87016986Y-81285213D01*
X87015605Y-81294082D01*
X84254000Y-81294082D01*
X84254000Y-81037425D01*
X84256421Y-81012844D01*
X84256555Y-81012170D01*
X84258976Y-81000000D01*
X84256555Y-80987828D01*
X84256555Y-80980246D01*
X84257162Y-80967896D01*
X84267118Y-80866812D01*
X84271935Y-80842592D01*
X84307187Y-80726383D01*
X84316631Y-80703582D01*
X84373876Y-80596483D01*
X84387594Y-80575953D01*
X84464626Y-80482091D01*
X84482091Y-80464626D01*
X84575953Y-80387594D01*
X84596483Y-80373876D01*
X84703582Y-80316631D01*
X84726383Y-80307187D01*
X84842592Y-80271935D01*
X84866812Y-80267118D01*
X84967896Y-80257162D01*
X84980246Y-80256555D01*
X84987828Y-80256555D01*
X85000000Y-80258976D01*
X85012847Y-80256421D01*
X85037425Y-80254000D01*
X114962575Y-80254000D01*
X114987153Y-80256421D01*
G37*
%TD.AperFunction*%
%TD*%
M02*
