M48
; DRILL file {KiCad (6.0.1-0)} date 2022 February 09, Wednesday 14:27:00
; FORMAT={-:-/ absolute / metric / decimal}
; #@! TF.CreationDate,2022-02-09T14:27:00+08:00
; #@! TF.GenerationSoftware,Kicad,Pcbnew,(6.0.1-0)
; #@! TF.FileFunction,Plated,1,4,PTH
FMAT,2
METRIC
; #@! TA.AperFunction,Plated,PTH,ViaDrill
T1C0.200
; #@! TA.AperFunction,Plated,PTH,ComponentDrill
T2C0.500
%
G90
G05
T1
X86.0Y-90.5
X86.0Y-94.7
X86.0Y-107.5
X87.362Y-98.75
X87.362Y-103.3
X87.362Y-111.7
X87.362Y-113.3
X87.5Y-81.3
X87.5Y-121.0
X87.5Y-122.0
X87.5Y-123.0
X87.5Y-124.0
X87.5Y-125.0
X88.0Y-106.0
X88.0Y-109.0
X88.5Y-121.0
X88.5Y-122.0
X88.5Y-123.0
X88.5Y-124.0
X88.5Y-125.0
X89.5Y-121.0
X89.5Y-122.0
X89.5Y-123.0
X89.5Y-124.0
X89.5Y-125.0
X90.5Y-94.3
X90.5Y-121.0
X90.5Y-122.0
X90.5Y-123.0
X90.5Y-124.0
X90.6Y-113.8
X90.9Y-104.0
X90.95Y-82.96
X90.95Y-84.23
X91.1Y-110.8
X91.4Y-96.9
X91.7Y-108.25
X91.9Y-114.4
X92.25Y-117.637
X92.325Y-97.15
X92.5Y-102.5
X92.5Y-105.0
X92.5Y-107.5
X92.5Y-110.0
X92.7Y-113.9
X94.0Y-86.1
X94.0Y-105.0
X94.0Y-107.5
X94.0Y-110.0
X94.14Y-97.66
X94.8Y-86.8
X94.8Y-97.75
X95.2Y-127.0
X95.8Y-96.6
X95.9Y-89.9
X95.912Y-88.0
X96.2Y-112.2
X96.4Y-122.087
X96.4Y-123.912
X97.41Y-117.64
X97.5Y-98.5
X97.5Y-116.9
X97.887Y-92.5
X98.1Y-96.1
X98.15Y-122.087
X98.15Y-123.912
X98.3Y-113.5
X98.36Y-101.03
X99.2Y-95.7
X100.0Y-98.5
X100.0Y-102.5
X100.0Y-105.0
X100.0Y-107.5
X100.0Y-110.0
X100.365Y-84.025
X100.6Y-112.7
X100.9Y-113.9
X101.635Y-84.025
X101.635Y-88.975
X102.5Y-98.5
X102.5Y-102.5
X102.5Y-105.0
X102.5Y-107.5
X102.5Y-110.0
X102.52Y-117.64
X102.525Y-116.9
X102.9Y-92.45
X103.3Y-114.3
X103.6Y-96.0
X104.1Y-86.1
X104.7Y-87.388
X105.0Y-98.5
X105.0Y-102.5
X105.0Y-105.0
X105.0Y-107.5
X105.0Y-110.0
X107.225Y-96.25
X107.5Y-98.5
X107.5Y-102.5
X107.5Y-105.0
X107.5Y-107.5
X107.5Y-110.0
X108.15Y-126.7
X108.4Y-105.5
X108.4Y-111.0
X108.9Y-97.0
X108.9Y-103.6
X109.0Y-109.1
X110.25Y-116.387
X110.365Y-84.025
X111.1Y-94.862
X111.635Y-84.025
X111.635Y-88.975
X112.637Y-102.75
X112.637Y-108.25
X114.7Y-87.388
T2
X103.9Y-124.05G85X103.9Y-124.75
G05
X103.9Y-127.52G85X103.9Y-128.22
G05
X111.1Y-124.05G85X111.1Y-124.75
G05
X111.1Y-127.52G85X111.1Y-128.22
G05
T0
M30
